<ttFont>
    <TTGlyph name=".notdef" xMin="80" yMin="0" xMax="556" yMax="660">
      <contour>
        <pt x="496" y="95" on="1"/>
        <pt x="496" y="565" on="1"/>
        <pt x="348" y="330" on="1"/>
      </contour>
      <contour>
        <pt x="464" y="50" on="1"/>
        <pt x="318" y="282" on="1"/>
        <pt x="172" y="50" on="1"/>
      </contour>
      <contour>
        <pt x="140" y="95" on="1"/>
        <pt x="288" y="330" on="1"/>
        <pt x="140" y="565" on="1"/>
      </contour>
      <contour>
        <pt x="172" y="610" on="1"/>
        <pt x="318" y="378" on="1"/>
        <pt x="464" y="610" on="1"/>
      </contour>
      <contour>
        <pt x="556" y="0" on="1"/>
        <pt x="80" y="0" on="1"/>
        <pt x="80" y="660" on="1"/>
        <pt x="556" y="660" on="1"/>
      </contour>
    </TTGlyph>
    <TTGlyph name="A" xMin="5" yMin="0" xMax="654" yMax="669">
      <contour>
        <pt x="408" y="265" on="1"/>
        <pt x="310" y="554" on="1"/>
        <pt x="210" y="265" on="1"/>
      </contour>
      <contour>
        <pt x="654" y="41" on="1"/>
        <pt x="654" y="0" on="1"/>
        <pt x="382" y="0" on="1"/>
        <pt x="382" y="41" on="1"/>
        <pt x="480" y="53" on="1"/>
        <pt x="424" y="218" on="1"/>
        <pt x="194" y="218" on="1"/>
        <pt x="138" y="54" on="1"/>
        <pt x="235" y="41" on="1"/>
        <pt x="235" y="0" on="1"/>
        <pt x="5" y="0" on="1"/>
        <pt x="5" y="41" on="1"/>
        <pt x="90" y="54" on="1"/>
        <pt x="304" y="669" on="1"/>
        <pt x="364" y="669" on="1"/>
        <pt x="579" y="50" on="1"/>
      </contour>
    </TTGlyph>
    <TTGlyph name="AE" xMin="5" yMin="0" xMax="887" yMax="669">
      <contour>
        <pt x="277" y="295" on="1"/>
        <pt x="456" y="295" on="1"/>
        <pt x="456" y="613" on="1"/>
        <pt x="449" y="613" on="1"/>
      </contour>
      <contour>
        <pt x="887" y="178" on="1"/>
        <pt x="880" y="0" on="1"/>
        <pt x="368" y="0" on="1"/>
        <pt x="368" y="41" on="1"/>
        <pt x="454" y="51" on="1"/>
        <pt x="455" y="98" on="0"/>
        <pt x="456" y="195" on="0"/>
        <pt x="456" y="248" on="1"/>
        <pt x="252" y="248" on="1"/>
        <pt x="147" y="54" on="1"/>
        <pt x="235" y="41" on="1"/>
        <pt x="235" y="0" on="1"/>
        <pt x="5" y="0" on="1"/>
        <pt x="5" y="41" on="1"/>
        <pt x="88" y="52" on="1"/>
        <pt x="396" y="619" on="1"/>
        <pt x="319" y="628" on="1"/>
        <pt x="319" y="669" on="1"/>
        <pt x="860" y="669" on="1"/>
        <pt x="867" y="491" on="1"/>
        <pt x="810" y="491" on="1"/>
        <pt x="788" y="618" on="1"/>
        <pt x="552" y="618" on="1"/>
        <pt x="550" y="555" on="0"/>
        <pt x="550" y="429" on="0"/>
        <pt x="550" y="365" on="1"/>
        <pt x="699" y="365" on="1"/>
        <pt x="713" y="461" on="1"/>
        <pt x="759" y="461" on="1"/>
        <pt x="759" y="224" on="1"/>
        <pt x="713" y="224" on="1"/>
        <pt x="700" y="318" on="1"/>
        <pt x="550" y="318" on="1"/>
        <pt x="550" y="246" on="0"/>
        <pt x="550" y="115" on="0"/>
        <pt x="552" y="50" on="1"/>
        <pt x="808" y="50" on="1"/>
        <pt x="830" y="178" on="1"/>
      </contour>
    </TTGlyph>
    <TTGlyph name="Aacute" xMin="5" yMin="0" xMax="654" yMax="877">
      <component glyphName="A" x="0" y="0" flags="0x204"/>
      <component glyphName="acutecmb.cap" x="334" y="0" flags="0x4"/>
    </TTGlyph>
    <TTGlyph name="Abreve" xMin="5" yMin="0" xMax="654" yMax="861">
      <component glyphName="A" x="0" y="0" flags="0x204"/>
      <component glyphName="brevecmb.cap" x="336" y="-9" flags="0x4"/>
    </TTGlyph>
    <TTGlyph name="Acircumflex" xMin="5" yMin="0" xMax="654" yMax="848">
      <component glyphName="A" x="0" y="0" flags="0x204"/>
      <component glyphName="circumflexcmb.cap" x="333" y="-19" flags="0x4"/>
    </TTGlyph>
    <TTGlyph name="Adieresis" xMin="5" yMin="0" xMax="654" yMax="847">
      <component glyphName="A" x="0" y="0" flags="0x204"/>
      <component glyphName="dieresiscmb.cap" x="333" y="0" flags="0x4"/>
    </TTGlyph>
    <TTGlyph name="Agrave" xMin="5" yMin="0" xMax="654" yMax="877">
      <component glyphName="A" x="0" y="0" flags="0x204"/>
      <component glyphName="gravecmb.cap" x="332" y="0" flags="0x4"/>
    </TTGlyph>
    <TTGlyph name="Amacron" xMin="5" yMin="0" xMax="654" yMax="811">
      <component glyphName="A" x="0" y="0" flags="0x204"/>
      <component glyphName="macroncmb.cap" x="332" y="0" flags="0x4"/>
    </TTGlyph>
    <TTGlyph name="Aogonek" xMin="5" yMin="-221" xMax="654" yMax="669">
      <component glyphName="A" x="0" y="0" flags="0x204"/>
      <component glyphName="uni0328" x="547" y="0" flags="0x4"/>
    </TTGlyph>
    <TTGlyph name="Aring" xMin="5" yMin="0" xMax="654" yMax="908">
      <component glyphName="A" x="0" y="0" flags="0x204"/>
      <component glyphName="ringcmb.cap" x="332" y="0" flags="0x4"/>
    </TTGlyph>
    <TTGlyph name="Atilde" xMin="5" yMin="0" xMax="654" yMax="852">
      <component glyphName="A" x="0" y="0" flags="0x204"/>
      <component glyphName="tildecmb.cap" x="333" y="0" flags="0x4"/>
    </TTGlyph>
    <TTGlyph name="B" xMin="44" yMin="0" xMax="585" yMax="669">
      <contour>
        <pt x="295" y="47" on="1"/>
        <pt x="394" y="47" on="0"/>
        <pt x="486" y="117" on="0"/>
        <pt x="486" y="183" on="1"/>
        <pt x="486" y="253" on="0"/>
        <pt x="393" y="323" on="0"/>
        <pt x="288" y="323" on="1"/>
        <pt x="232" y="323" on="1"/>
        <pt x="232" y="248" on="0"/>
        <pt x="232" y="113" on="0"/>
        <pt x="234" y="47" on="1"/>
      </contour>
      <contour>
        <pt x="234" y="622" on="1"/>
        <pt x="232" y="559" on="0"/>
        <pt x="232" y="433" on="0"/>
        <pt x="232" y="369" on="1"/>
        <pt x="285" y="369" on="1"/>
        <pt x="376" y="369" on="0"/>
        <pt x="458" y="430" on="0"/>
        <pt x="458" y="499" on="1"/>
        <pt x="458" y="567" on="0"/>
        <pt x="381" y="622" on="0"/>
        <pt x="305" y="622" on="1"/>
      </contour>
      <contour>
        <pt x="334" y="669" on="1"/>
        <pt x="386" y="669" on="0"/>
        <pt x="467" y="645" on="0"/>
        <pt x="523" y="601" on="0"/>
        <pt x="552" y="541" on="0"/>
        <pt x="552" y="505" on="1"/>
        <pt x="552" y="452" on="0"/>
        <pt x="481" y="365" on="0"/>
        <pt x="399" y="348" on="1"/>
        <pt x="448" y="341" on="0"/>
        <pt x="519" y="310" on="0"/>
        <pt x="564" y="267" on="0"/>
        <pt x="585" y="213" on="0"/>
        <pt x="585" y="183" on="1"/>
        <pt x="585" y="149" on="0"/>
        <pt x="556" y="83" on="0"/>
        <pt x="492" y="32" on="0"/>
        <pt x="390" y="0" on="0"/>
        <pt x="317" y="0" on="1"/>
        <pt x="44" y="0" on="1"/>
        <pt x="44" y="41" on="1"/>
        <pt x="136" y="52" on="1"/>
        <pt x="138" y="115" on="0"/>
        <pt x="138" y="244" on="0"/>
        <pt x="138" y="310" on="1"/>
        <pt x="138" y="359" on="1"/>
        <pt x="138" y="424" on="0"/>
        <pt x="138" y="552" on="0"/>
        <pt x="136" y="617" on="1"/>
        <pt x="44" y="628" on="1"/>
        <pt x="44" y="669" on="1"/>
      </contour>
    </TTGlyph>
    <TTGlyph name="C" xMin="47" yMin="-15" xMax="592" yMax="684">
      <contour>
        <pt x="592" y="178" on="1"/>
        <pt x="588" y="33" on="1"/>
        <pt x="540" y="7" on="0"/>
        <pt x="439" y="-15" on="0"/>
        <pt x="386" y="-15" on="1"/>
        <pt x="310" y="-15" on="0"/>
        <pt x="185" y="36" on="0"/>
        <pt x="96" y="129" on="0"/>
        <pt x="47" y="257" on="0"/>
        <pt x="47" y="334" on="1"/>
        <pt x="47" y="410" on="0"/>
        <pt x="98" y="539" on="0"/>
        <pt x="188" y="632" on="0"/>
        <pt x="312" y="684" on="0"/>
        <pt x="386" y="684" on="1"/>
        <pt x="427" y="684" on="0"/>
        <pt x="527" y="665" on="0"/>
        <pt x="578" y="636" on="1"/>
        <pt x="582" y="490" on="1"/>
        <pt x="519" y="490" on="1"/>
        <pt x="499" y="609" on="1"/>
        <pt x="473" y="622" on="0"/>
        <pt x="423" y="633" on="0"/>
        <pt x="397" y="633" on="1"/>
        <pt x="347" y="633" on="0"/>
        <pt x="259" y="594" on="0"/>
        <pt x="193" y="519" on="0"/>
        <pt x="155" y="407" on="0"/>
        <pt x="155" y="334" on="1"/>
        <pt x="155" y="261" on="0"/>
        <pt x="190" y="150" on="0"/>
        <pt x="252" y="74" on="0"/>
        <pt x="339" y="35" on="0"/>
        <pt x="390" y="35" on="1"/>
        <pt x="419" y="35" on="0"/>
        <pt x="479" y="48" on="0"/>
        <pt x="509" y="62" on="1"/>
        <pt x="529" y="178" on="1"/>
      </contour>
    </TTGlyph>
    <TTGlyph name="Cacute" xMin="47" yMin="-15" xMax="592" yMax="877">
      <component glyphName="C" x="0" y="0" flags="0x204"/>
      <component glyphName="acutecmb.cap" x="385" y="0" flags="0x4"/>
    </TTGlyph>
    <TTGlyph name="Ccaron" xMin="47" yMin="-15" xMax="592" yMax="867">
      <component glyphName="C" x="0" y="0" flags="0x204"/>
      <component glyphName="caroncmb.cap" x="376" y="0" flags="0x4"/>
    </TTGlyph>
    <TTGlyph name="Ccedilla" xMin="47" yMin="-221" xMax="592" yMax="684">
      <component glyphName="C" x="0" y="0" flags="0x204"/>
      <component glyphName="uni0327" x="365" y="0" flags="0x4"/>
    </TTGlyph>
    <TTGlyph name="D" xMin="44" yMin="0" xMax="662" yMax="669">
      <contour>
        <pt x="323" y="47" on="1"/>
        <pt x="375" y="47" on="0"/>
        <pt x="460" y="84" on="0"/>
        <pt x="520" y="157" on="0"/>
        <pt x="553" y="264" on="0"/>
        <pt x="553" y="334" on="1"/>
        <pt x="553" y="404" on="0"/>
        <pt x="520" y="512" on="0"/>
        <pt x="459" y="585" on="0"/>
        <pt x="374" y="622" on="0"/>
        <pt x="322" y="622" on="1"/>
        <pt x="234" y="622" on="1"/>
        <pt x="232" y="557" on="0"/>
        <pt x="232" y="426" on="0"/>
        <pt x="232" y="359" on="1"/>
        <pt x="232" y="322" on="1"/>
        <pt x="232" y="248" on="0"/>
        <pt x="232" y="113" on="0"/>
        <pt x="234" y="47" on="1"/>
      </contour>
      <contour>
        <pt x="340" y="669" on="1"/>
        <pt x="409" y="669" on="0"/>
        <pt x="527" y="625" on="0"/>
        <pt x="613" y="541" on="0"/>
        <pt x="662" y="416" on="0"/>
        <pt x="662" y="335" on="1"/>
        <pt x="662" y="254" on="0"/>
        <pt x="608" y="129" on="0"/>
        <pt x="515" y="44" on="0"/>
        <pt x="390" y="0" on="0"/>
        <pt x="320" y="0" on="1"/>
        <pt x="44" y="0" on="1"/>
        <pt x="44" y="41" on="1"/>
        <pt x="136" y="52" on="1"/>
        <pt x="138" y="116" on="0"/>
        <pt x="138" y="249" on="0"/>
        <pt x="138" y="322" on="1"/>
        <pt x="138" y="359" on="1"/>
        <pt x="138" y="424" on="0"/>
        <pt x="138" y="552" on="0"/>
        <pt x="136" y="617" on="1"/>
        <pt x="44" y="628" on="1"/>
        <pt x="44" y="669" on="1"/>
      </contour>
    </TTGlyph>
    <TTGlyph name="Dcaron" xMin="44" yMin="0" xMax="662" yMax="867">
      <component glyphName="D" x="0" y="0" flags="0x204"/>
      <component glyphName="caroncmb.cap" x="354" y="0" flags="0x4"/>
    </TTGlyph>
    <TTGlyph name="Dcroat" xMin="44" yMin="0" xMax="662" yMax="669">
      <component glyphName="Eth" x="0" y="0" flags="0x204"/>
    </TTGlyph>
    <TTGlyph name="E" xMin="44" yMin="0" xMax="569" yMax="669">
      <contour>
        <pt x="569" y="178" on="1"/>
        <pt x="562" y="0" on="1"/>
        <pt x="44" y="0" on="1"/>
        <pt x="44" y="41" on="1"/>
        <pt x="136" y="52" on="1"/>
        <pt x="138" y="115" on="0"/>
        <pt x="138" y="244" on="0"/>
        <pt x="138" y="310" on="1"/>
        <pt x="138" y="359" on="1"/>
        <pt x="138" y="424" on="0"/>
        <pt x="138" y="552" on="0"/>
        <pt x="136" y="617" on="1"/>
        <pt x="44" y="628" on="1"/>
        <pt x="44" y="669" on="1"/>
        <pt x="542" y="669" on="1"/>
        <pt x="549" y="491" on="1"/>
        <pt x="492" y="491" on="1"/>
        <pt x="470" y="618" on="1"/>
        <pt x="234" y="618" on="1"/>
        <pt x="232" y="555" on="0"/>
        <pt x="232" y="429" on="0"/>
        <pt x="232" y="365" on="1"/>
        <pt x="381" y="365" on="1"/>
        <pt x="395" y="461" on="1"/>
        <pt x="440" y="461" on="1"/>
        <pt x="440" y="224" on="1"/>
        <pt x="395" y="224" on="1"/>
        <pt x="382" y="318" on="1"/>
        <pt x="232" y="318" on="1"/>
        <pt x="232" y="246" on="0"/>
        <pt x="232" y="115" on="0"/>
        <pt x="234" y="50" on="1"/>
        <pt x="490" y="50" on="1"/>
        <pt x="512" y="178" on="1"/>
      </contour>
    </TTGlyph>
    <TTGlyph name="Eacute" xMin="44" yMin="0" xMax="569" yMax="877">
      <component glyphName="E" x="0" y="0" flags="0x204"/>
      <component glyphName="acutecmb.cap" x="343" y="0" flags="0x4"/>
    </TTGlyph>
    <TTGlyph name="Ecaron" xMin="44" yMin="0" xMax="569" yMax="867">
      <component glyphName="E" x="0" y="0" flags="0x204"/>
      <component glyphName="caroncmb.cap" x="341" y="0" flags="0x4"/>
    </TTGlyph>
    <TTGlyph name="Ecircumflex" xMin="44" yMin="0" xMax="569" yMax="867">
      <component glyphName="E" x="0" y="0" flags="0x204"/>
      <component glyphName="circumflexcmb.cap" x="341" y="0" flags="0x4"/>
    </TTGlyph>
    <TTGlyph name="Edieresis" xMin="44" yMin="0" xMax="569" yMax="847">
      <component glyphName="E" x="0" y="0" flags="0x204"/>
      <component glyphName="dieresiscmb.cap" x="325" y="0" flags="0x4"/>
    </TTGlyph>
    <TTGlyph name="Edotaccent" xMin="44" yMin="0" xMax="569" yMax="864">
      <component glyphName="E" x="0" y="0" flags="0x204"/>
      <component glyphName="dotaccentcmb.cap" x="303" y="0" flags="0x4"/>
    </TTGlyph>
    <TTGlyph name="Egrave" xMin="44" yMin="0" xMax="569" yMax="877">
      <component glyphName="E" x="0" y="0" flags="0x204"/>
      <component glyphName="gravecmb.cap" x="301" y="0" flags="0x4"/>
    </TTGlyph>
    <TTGlyph name="Emacron" xMin="44" yMin="0" xMax="569" yMax="811">
      <component glyphName="E" x="0" y="0" flags="0x204"/>
      <component glyphName="macroncmb.cap" x="342" y="0" flags="0x4"/>
    </TTGlyph>
    <TTGlyph name="Eogonek" xMin="44" yMin="-221" xMax="570" yMax="669">
      <component glyphName="E" x="0" y="0" flags="0x204"/>
      <component glyphName="uni0328" x="470" y="0" flags="0x4"/>
    </TTGlyph>
    <TTGlyph name="Eth" xMin="44" yMin="0" xMax="662" yMax="669">
      <contour>
        <pt x="323" y="47" on="1"/>
        <pt x="375" y="47" on="0"/>
        <pt x="460" y="84" on="0"/>
        <pt x="520" y="157" on="0"/>
        <pt x="553" y="264" on="0"/>
        <pt x="553" y="334" on="1"/>
        <pt x="553" y="404" on="0"/>
        <pt x="520" y="512" on="0"/>
        <pt x="459" y="585" on="0"/>
        <pt x="374" y="622" on="0"/>
        <pt x="322" y="622" on="1"/>
        <pt x="234" y="622" on="1"/>
        <pt x="232" y="559" on="0"/>
        <pt x="232" y="431" on="0"/>
        <pt x="232" y="366" on="1"/>
        <pt x="386" y="366" on="1"/>
        <pt x="386" y="319" on="1"/>
        <pt x="232" y="319" on="1"/>
        <pt x="232" y="247" on="0"/>
        <pt x="232" y="113" on="0"/>
        <pt x="234" y="47" on="1"/>
      </contour>
      <contour>
        <pt x="340" y="669" on="1"/>
        <pt x="409" y="669" on="0"/>
        <pt x="527" y="625" on="0"/>
        <pt x="613" y="541" on="0"/>
        <pt x="662" y="416" on="0"/>
        <pt x="662" y="335" on="1"/>
        <pt x="662" y="254" on="0"/>
        <pt x="608" y="129" on="0"/>
        <pt x="515" y="44" on="0"/>
        <pt x="390" y="0" on="0"/>
        <pt x="320" y="0" on="1"/>
        <pt x="44" y="0" on="1"/>
        <pt x="44" y="41" on="1"/>
        <pt x="136" y="52" on="1"/>
        <pt x="138" y="115" on="0"/>
        <pt x="138" y="247" on="0"/>
        <pt x="138" y="319" on="1"/>
        <pt x="44" y="319" on="1"/>
        <pt x="44" y="366" on="1"/>
        <pt x="138" y="366" on="1"/>
        <pt x="138" y="429" on="0"/>
        <pt x="138" y="554" on="0"/>
        <pt x="136" y="617" on="1"/>
        <pt x="44" y="628" on="1"/>
        <pt x="44" y="669" on="1"/>
      </contour>
    </TTGlyph>
    <TTGlyph name="Euro" xMin="11" yMin="-15" xMax="489" yMax="659">
      <contour>
        <pt x="379" y="83" on="1"/>
        <pt x="389" y="124" on="0"/>
        <pt x="423" y="150" on="0"/>
        <pt x="441" y="150" on="1"/>
        <pt x="458" y="150" on="0"/>
        <pt x="482" y="133" on="0"/>
        <pt x="485" y="116" on="1"/>
        <pt x="477" y="58" on="0"/>
        <pt x="384" y="-15" on="0"/>
        <pt x="313" y="-15" on="1"/>
        <pt x="216" y="-15" on="0"/>
        <pt x="88" y="117" on="0"/>
        <pt x="70" y="234" on="1"/>
        <pt x="11" y="234" on="1"/>
        <pt x="11" y="285" on="1"/>
        <pt x="64" y="285" on="1"/>
        <pt x="63" y="294" on="0"/>
        <pt x="63" y="312" on="0"/>
        <pt x="63" y="322" on="1"/>
        <pt x="63" y="330" on="0"/>
        <pt x="63" y="344" on="0"/>
        <pt x="64" y="352" on="1"/>
        <pt x="11" y="352" on="1"/>
        <pt x="11" y="402" on="1"/>
        <pt x="69" y="402" on="1"/>
        <pt x="78" y="462" on="0"/>
        <pt x="121" y="557" on="0"/>
        <pt x="186" y="623" on="0"/>
        <pt x="271" y="659" on="0"/>
        <pt x="321" y="659" on="1"/>
        <pt x="393" y="659" on="0"/>
        <pt x="480" y="587" on="0"/>
        <pt x="489" y="529" on="1"/>
        <pt x="484" y="511" on="0"/>
        <pt x="456" y="493" on="0"/>
        <pt x="440" y="493" on="1"/>
        <pt x="422" y="493" on="0"/>
        <pt x="393" y="521" on="0"/>
        <pt x="382" y="560" on="1"/>
        <pt x="367" y="612" on="1"/>
        <pt x="358" y="614" on="0"/>
        <pt x="342" y="614" on="0"/>
        <pt x="337" y="614" on="1"/>
        <pt x="268" y="614" on="0"/>
        <pt x="176" y="506" on="0"/>
        <pt x="162" y="402" on="1"/>
        <pt x="385" y="402" on="1"/>
        <pt x="385" y="352" on="1"/>
        <pt x="158" y="352" on="1"/>
        <pt x="157" y="344" on="0"/>
        <pt x="157" y="330" on="0"/>
        <pt x="157" y="322" on="1"/>
        <pt x="157" y="312" on="0"/>
        <pt x="157" y="294" on="0"/>
        <pt x="158" y="285" on="1"/>
        <pt x="385" y="285" on="1"/>
        <pt x="385" y="234" on="1"/>
        <pt x="163" y="234" on="1"/>
        <pt x="177" y="134" on="0"/>
        <pt x="267" y="30" on="0"/>
        <pt x="336" y="30" on="1"/>
        <pt x="348" y="30" on="0"/>
        <pt x="366" y="33" on="1"/>
      </contour>
    </TTGlyph>
    <TTGlyph name="F" xMin="44" yMin="0" xMax="549" yMax="669">
      <contour>
        <pt x="234" y="618" on="1"/>
        <pt x="232" y="555" on="0"/>
        <pt x="232" y="429" on="0"/>
        <pt x="232" y="365" on="1"/>
        <pt x="388" y="365" on="1"/>
        <pt x="402" y="461" on="1"/>
        <pt x="448" y="461" on="1"/>
        <pt x="448" y="214" on="1"/>
        <pt x="402" y="214" on="1"/>
        <pt x="388" y="318" on="1"/>
        <pt x="232" y="318" on="1"/>
        <pt x="232" y="247" on="0"/>
        <pt x="232" y="116" on="0"/>
        <pt x="234" y="52" on="1"/>
        <pt x="327" y="41" on="1"/>
        <pt x="327" y="0" on="1"/>
        <pt x="44" y="0" on="1"/>
        <pt x="44" y="41" on="1"/>
        <pt x="136" y="52" on="1"/>
        <pt x="138" y="115" on="0"/>
        <pt x="138" y="244" on="0"/>
        <pt x="138" y="310" on="1"/>
        <pt x="138" y="359" on="1"/>
        <pt x="138" y="424" on="0"/>
        <pt x="138" y="552" on="0"/>
        <pt x="136" y="617" on="1"/>
        <pt x="44" y="628" on="1"/>
        <pt x="44" y="669" on="1"/>
        <pt x="542" y="669" on="1"/>
        <pt x="549" y="491" on="1"/>
        <pt x="492" y="491" on="1"/>
        <pt x="470" y="618" on="1"/>
      </contour>
    </TTGlyph>
    <TTGlyph name="G" xMin="47" yMin="-15" xMax="666" yMax="684">
      <contour>
        <pt x="666" y="277" on="1"/>
        <pt x="605" y="271" on="1"/>
        <pt x="604" y="226" on="0"/>
        <pt x="603" y="135" on="0"/>
        <pt x="603" y="88" on="1"/>
        <pt x="603" y="44" on="1"/>
        <pt x="551" y="17" on="0"/>
        <pt x="446" y="-15" on="0"/>
        <pt x="383" y="-15" on="1"/>
        <pt x="308" y="-15" on="0"/>
        <pt x="184" y="38" on="0"/>
        <pt x="96" y="131" on="0"/>
        <pt x="47" y="259" on="0"/>
        <pt x="47" y="334" on="1"/>
        <pt x="47" y="409" on="0"/>
        <pt x="96" y="538" on="0"/>
        <pt x="186" y="631" on="0"/>
        <pt x="311" y="684" on="0"/>
        <pt x="388" y="684" on="1"/>
        <pt x="449" y="684" on="0"/>
        <pt x="545" y="661" on="0"/>
        <pt x="589" y="636" on="1"/>
        <pt x="593" y="491" on="1"/>
        <pt x="530" y="491" on="1"/>
        <pt x="510" y="607" on="1"/>
        <pt x="483" y="621" on="0"/>
        <pt x="427" y="633" on="0"/>
        <pt x="396" y="633" on="1"/>
        <pt x="344" y="633" on="0"/>
        <pt x="256" y="593" on="0"/>
        <pt x="191" y="517" on="0"/>
        <pt x="155" y="406" on="0"/>
        <pt x="155" y="334" on="1"/>
        <pt x="155" y="191" on="0"/>
        <pt x="287" y="36" on="0"/>
        <pt x="403" y="36" on="1"/>
        <pt x="459" y="36" on="0"/>
        <pt x="509" y="56" on="1"/>
        <pt x="509" y="88" on="1"/>
        <pt x="509" y="133" on="0"/>
        <pt x="508" y="223" on="0"/>
        <pt x="507" y="268" on="1"/>
        <pt x="404" y="277" on="1"/>
        <pt x="404" y="317" on="1"/>
        <pt x="666" y="317" on="1"/>
      </contour>
    </TTGlyph>
    <TTGlyph name="Gbreve" xMin="47" yMin="-15" xMax="666" yMax="870">
      <component glyphName="G" x="0" y="0" flags="0x204"/>
      <component glyphName="brevecmb.cap" x="390" y="0" flags="0x4"/>
    </TTGlyph>
    <TTGlyph name="Gdotaccent" xMin="47" yMin="-15" xMax="666" yMax="864">
      <component glyphName="G" x="0" y="0" flags="0x204"/>
      <component glyphName="dotaccentcmb.cap" x="392" y="0" flags="0x4"/>
    </TTGlyph>
    <TTGlyph name="H" xMin="44" yMin="0" xMax="746" yMax="669">
      <contour>
        <pt x="654" y="617" on="1"/>
        <pt x="652" y="554" on="0"/>
        <pt x="652" y="425" on="0"/>
        <pt x="652" y="359" on="1"/>
        <pt x="652" y="310" on="1"/>
        <pt x="652" y="245" on="0"/>
        <pt x="652" y="117" on="0"/>
        <pt x="654" y="52" on="1"/>
        <pt x="746" y="41" on="1"/>
        <pt x="746" y="0" on="1"/>
        <pt x="464" y="0" on="1"/>
        <pt x="464" y="41" on="1"/>
        <pt x="556" y="52" on="1"/>
        <pt x="558" y="114" on="0"/>
        <pt x="558" y="244" on="0"/>
        <pt x="558" y="319" on="1"/>
        <pt x="232" y="319" on="1"/>
        <pt x="232" y="245" on="0"/>
        <pt x="232" y="115" on="0"/>
        <pt x="234" y="52" on="1"/>
        <pt x="327" y="41" on="1"/>
        <pt x="327" y="0" on="1"/>
        <pt x="44" y="0" on="1"/>
        <pt x="44" y="41" on="1"/>
        <pt x="136" y="52" on="1"/>
        <pt x="138" y="115" on="0"/>
        <pt x="138" y="244" on="0"/>
        <pt x="138" y="310" on="1"/>
        <pt x="138" y="359" on="1"/>
        <pt x="138" y="424" on="0"/>
        <pt x="138" y="552" on="0"/>
        <pt x="136" y="617" on="1"/>
        <pt x="44" y="628" on="1"/>
        <pt x="44" y="669" on="1"/>
        <pt x="327" y="669" on="1"/>
        <pt x="327" y="628" on="1"/>
        <pt x="234" y="617" on="1"/>
        <pt x="232" y="555" on="0"/>
        <pt x="232" y="430" on="0"/>
        <pt x="232" y="366" on="1"/>
        <pt x="558" y="366" on="1"/>
        <pt x="558" y="429" on="0"/>
        <pt x="558" y="554" on="0"/>
        <pt x="556" y="617" on="1"/>
        <pt x="464" y="628" on="1"/>
        <pt x="464" y="669" on="1"/>
        <pt x="746" y="669" on="1"/>
        <pt x="746" y="628" on="1"/>
      </contour>
    </TTGlyph>
    <TTGlyph name="I" xMin="44" yMin="0" xMax="327" yMax="669">
      <contour>
        <pt x="234" y="617" on="1"/>
        <pt x="232" y="554" on="0"/>
        <pt x="232" y="425" on="0"/>
        <pt x="232" y="359" on="1"/>
        <pt x="232" y="310" on="1"/>
        <pt x="232" y="245" on="0"/>
        <pt x="232" y="117" on="0"/>
        <pt x="234" y="52" on="1"/>
        <pt x="327" y="41" on="1"/>
        <pt x="327" y="0" on="1"/>
        <pt x="44" y="0" on="1"/>
        <pt x="44" y="41" on="1"/>
        <pt x="136" y="52" on="1"/>
        <pt x="138" y="115" on="0"/>
        <pt x="138" y="244" on="0"/>
        <pt x="138" y="310" on="1"/>
        <pt x="138" y="359" on="1"/>
        <pt x="138" y="424" on="0"/>
        <pt x="138" y="552" on="0"/>
        <pt x="136" y="617" on="1"/>
        <pt x="44" y="628" on="1"/>
        <pt x="44" y="669" on="1"/>
        <pt x="327" y="669" on="1"/>
        <pt x="327" y="628" on="1"/>
      </contour>
    </TTGlyph>
    <TTGlyph name="Iacute" xMin="44" yMin="0" xMax="327" yMax="877">
      <component glyphName="I" x="0" y="0" flags="0x204"/>
      <component glyphName="acutecmb.cap" x="207" y="0" flags="0x4"/>
    </TTGlyph>
    <TTGlyph name="Icircumflex" xMin="44" yMin="0" xMax="327" yMax="867">
      <component glyphName="I" x="0" y="0" flags="0x204"/>
      <component glyphName="circumflexcmb.cap" x="185" y="0" flags="0x4"/>
    </TTGlyph>
    <TTGlyph name="Idieresis" xMin="15" yMin="0" xMax="354" yMax="847">
      <component glyphName="I" x="0" y="0" flags="0x204"/>
      <component glyphName="dieresiscmb.cap" x="185" y="0" flags="0x4"/>
    </TTGlyph>
    <TTGlyph name="Idotaccent" xMin="44" yMin="0" xMax="327" yMax="864">
      <component glyphName="I" x="0" y="0" flags="0x204"/>
      <component glyphName="dotaccentcmb.cap" x="185" y="0" flags="0x4"/>
    </TTGlyph>
    <TTGlyph name="Igrave" xMin="44" yMin="0" xMax="327" yMax="877">
      <component glyphName="I" x="0" y="0" flags="0x204"/>
      <component glyphName="gravecmb.cap" x="184" y="0" flags="0x4"/>
    </TTGlyph>
    <TTGlyph name="Imacron" xMin="34" yMin="0" xMax="335" yMax="811">
      <component glyphName="I" x="0" y="0" flags="0x204"/>
      <component glyphName="macroncmb.cap" x="185" y="0" flags="0x4"/>
    </TTGlyph>
    <TTGlyph name="Iogonek" xMin="44" yMin="-221" xMax="327" yMax="669">
      <component glyphName="I" x="0" y="0" flags="0x204"/>
      <component glyphName="uni0328" x="206" y="0" flags="0x4"/>
    </TTGlyph>
    <TTGlyph name="J" xMin="-42" yMin="-163" xMax="340" yMax="669">
      <contour>
        <pt x="340" y="628" on="1"/>
        <pt x="248" y="617" on="1"/>
        <pt x="246" y="554" on="0"/>
        <pt x="246" y="425" on="0"/>
        <pt x="246" y="359" on="1"/>
        <pt x="246" y="201" on="1"/>
        <pt x="246" y="159" on="0"/>
        <pt x="245" y="96" on="0"/>
        <pt x="242" y="46" on="0"/>
        <pt x="237" y="5" on="0"/>
        <pt x="233" y="-14" on="1"/>
        <pt x="225" y="-52" on="0"/>
        <pt x="189" y="-107" on="0"/>
        <pt x="138" y="-145" on="0"/>
        <pt x="77" y="-163" on="0"/>
        <pt x="46" y="-163" on="1"/>
        <pt x="18" y="-163" on="0"/>
        <pt x="-34" y="-143" on="0"/>
        <pt x="-42" y="-114" on="1"/>
        <pt x="-37" y="-87" on="0"/>
        <pt x="-4" y="-65" on="0"/>
        <pt x="19" y="-65" on="1"/>
        <pt x="38" y="-65" on="0"/>
        <pt x="72" y="-78" on="0"/>
        <pt x="93" y="-95" on="1"/>
        <pt x="120" y="-116" on="1"/>
        <pt x="139" y="-94" on="0"/>
        <pt x="158" y="-37" on="0"/>
        <pt x="158" y="5" on="1"/>
        <pt x="158" y="27" on="0"/>
        <pt x="156" y="98" on="0"/>
        <pt x="154" y="232" on="0"/>
        <pt x="150" y="449" on="0"/>
        <pt x="149" y="617" on="1"/>
        <pt x="47" y="628" on="1"/>
        <pt x="47" y="669" on="1"/>
        <pt x="340" y="669" on="1"/>
      </contour>
    </TTGlyph>
    <TTGlyph name="K" xMin="44" yMin="0" xMax="663" yMax="669">
      <contour>
        <pt x="663" y="41" on="1"/>
        <pt x="663" y="0" on="1"/>
        <pt x="405" y="0" on="1"/>
        <pt x="405" y="41" on="1"/>
        <pt x="486" y="51" on="1"/>
        <pt x="324" y="344" on="1"/>
        <pt x="230" y="232" on="1"/>
        <pt x="230" y="190" on="0"/>
        <pt x="230" y="100" on="0"/>
        <pt x="232" y="52" on="1"/>
        <pt x="327" y="41" on="1"/>
        <pt x="327" y="0" on="1"/>
        <pt x="44" y="0" on="1"/>
        <pt x="44" y="41" on="1"/>
        <pt x="136" y="52" on="1"/>
        <pt x="138" y="115" on="0"/>
        <pt x="138" y="244" on="0"/>
        <pt x="138" y="310" on="1"/>
        <pt x="138" y="359" on="1"/>
        <pt x="138" y="424" on="0"/>
        <pt x="138" y="552" on="0"/>
        <pt x="136" y="617" on="1"/>
        <pt x="44" y="628" on="1"/>
        <pt x="44" y="669" on="1"/>
        <pt x="327" y="669" on="1"/>
        <pt x="327" y="628" on="1"/>
        <pt x="232" y="617" on="1"/>
        <pt x="230" y="554" on="0"/>
        <pt x="230" y="425" on="0"/>
        <pt x="230" y="359" on="1"/>
        <pt x="230" y="298" on="1"/>
        <pt x="490" y="617" on="1"/>
        <pt x="417" y="628" on="1"/>
        <pt x="417" y="669" on="1"/>
        <pt x="647" y="669" on="1"/>
        <pt x="647" y="628" on="1"/>
        <pt x="549" y="615" on="1"/>
        <pt x="379" y="410" on="1"/>
        <pt x="585" y="51" on="1"/>
      </contour>
    </TTGlyph>
    <TTGlyph name="L" xMin="44" yMin="0" xMax="553" yMax="669">
      <contour>
        <pt x="553" y="188" on="1"/>
        <pt x="543" y="0" on="1"/>
        <pt x="44" y="0" on="1"/>
        <pt x="44" y="41" on="1"/>
        <pt x="136" y="52" on="1"/>
        <pt x="138" y="117" on="0"/>
        <pt x="138" y="245" on="0"/>
        <pt x="138" y="310" on="1"/>
        <pt x="138" y="359" on="1"/>
        <pt x="138" y="425" on="0"/>
        <pt x="138" y="554" on="0"/>
        <pt x="136" y="617" on="1"/>
        <pt x="44" y="628" on="1"/>
        <pt x="44" y="669" on="1"/>
        <pt x="327" y="669" on="1"/>
        <pt x="327" y="628" on="1"/>
        <pt x="234" y="617" on="1"/>
        <pt x="232" y="552" on="0"/>
        <pt x="232" y="424" on="0"/>
        <pt x="232" y="359" on="1"/>
        <pt x="232" y="310" on="1"/>
        <pt x="232" y="244" on="0"/>
        <pt x="232" y="114" on="0"/>
        <pt x="234" y="50" on="1"/>
        <pt x="462" y="50" on="1"/>
        <pt x="491" y="188" on="1"/>
      </contour>
    </TTGlyph>
    <TTGlyph name="Lacute" xMin="44" yMin="0" xMax="553" yMax="877">
      <component glyphName="L" x="0" y="0" flags="0x204"/>
      <component glyphName="acutecmb.cap" x="259" y="0" flags="0x4"/>
    </TTGlyph>
    <TTGlyph name="Lcaron" xMin="44" yMin="0" xMax="553" yMax="740">
      <component glyphName="L" x="0" y="0" flags="0x204"/>
      <component glyphName="caron.alt" x="448" y="0" flags="0x4"/>
    </TTGlyph>
    <TTGlyph name="Ldot" xMin="44" yMin="0" xMax="553" yMax="669">
      <component glyphName="L" x="0" y="0" flags="0x204"/>
      <component glyphName="period" x="319" y="324" flags="0x4"/>
    </TTGlyph>
    <TTGlyph name="Lslash" xMin="44" yMin="0" xMax="553" yMax="669">
      <contour>
        <pt x="553" y="188" on="1"/>
        <pt x="543" y="0" on="1"/>
        <pt x="44" y="0" on="1"/>
        <pt x="44" y="41" on="1"/>
        <pt x="136" y="52" on="1"/>
        <pt x="138" y="103" on="0"/>
        <pt x="138" y="206" on="0"/>
        <pt x="138" y="258" on="1"/>
        <pt x="44" y="205" on="1"/>
        <pt x="44" y="261" on="1"/>
        <pt x="138" y="315" on="1"/>
        <pt x="138" y="359" on="1"/>
        <pt x="138" y="425" on="0"/>
        <pt x="138" y="554" on="0"/>
        <pt x="136" y="617" on="1"/>
        <pt x="44" y="628" on="1"/>
        <pt x="44" y="669" on="1"/>
        <pt x="327" y="669" on="1"/>
        <pt x="327" y="628" on="1"/>
        <pt x="234" y="617" on="1"/>
        <pt x="232" y="554" on="0"/>
        <pt x="232" y="426" on="0"/>
        <pt x="232" y="363" on="1"/>
        <pt x="396" y="457" on="1"/>
        <pt x="396" y="400" on="1"/>
        <pt x="232" y="306" on="1"/>
        <pt x="232" y="241" on="0"/>
        <pt x="232" y="113" on="0"/>
        <pt x="234" y="50" on="1"/>
        <pt x="462" y="50" on="1"/>
        <pt x="491" y="188" on="1"/>
      </contour>
    </TTGlyph>
    <TTGlyph name="M" xMin="38" yMin="0" xMax="859" yMax="669">
      <contour>
        <pt x="767" y="617" on="1"/>
        <pt x="765" y="554" on="0"/>
        <pt x="765" y="425" on="0"/>
        <pt x="765" y="359" on="1"/>
        <pt x="765" y="310" on="1"/>
        <pt x="765" y="245" on="0"/>
        <pt x="765" y="117" on="0"/>
        <pt x="767" y="52" on="1"/>
        <pt x="859" y="41" on="1"/>
        <pt x="859" y="0" on="1"/>
        <pt x="586" y="0" on="1"/>
        <pt x="586" y="41" on="1"/>
        <pt x="670" y="51" on="1"/>
        <pt x="672" y="115" on="0"/>
        <pt x="672" y="244" on="0"/>
        <pt x="672" y="310" on="1"/>
        <pt x="672" y="522" on="1"/>
        <pt x="442" y="0" on="1"/>
        <pt x="411" y="0" on="1"/>
        <pt x="180" y="529" on="1"/>
        <pt x="180" y="54" on="1"/>
        <pt x="263" y="41" on="1"/>
        <pt x="263" y="0" on="1"/>
        <pt x="38" y="0" on="1"/>
        <pt x="38" y="41" on="1"/>
        <pt x="129" y="54" on="1"/>
        <pt x="129" y="617" on="1"/>
        <pt x="39" y="628" on="1"/>
        <pt x="39" y="669" on="1"/>
        <pt x="217" y="669" on="1"/>
        <pt x="449" y="132" on="1"/>
        <pt x="689" y="669" on="1"/>
        <pt x="859" y="669" on="1"/>
        <pt x="859" y="628" on="1"/>
      </contour>
    </TTGlyph>
    <TTGlyph name="N" xMin="39" yMin="-10" xMax="698" yMax="669">
      <contour>
        <pt x="698" y="628" on="1"/>
        <pt x="613" y="615" on="1"/>
        <pt x="613" y="-10" on="1"/>
        <pt x="579" y="-10" on="1"/>
        <pt x="175" y="538" on="1"/>
        <pt x="175" y="55" on="1"/>
        <pt x="281" y="41" on="1"/>
        <pt x="281" y="0" on="1"/>
        <pt x="39" y="0" on="1"/>
        <pt x="39" y="41" on="1"/>
        <pt x="125" y="53" on="1"/>
        <pt x="125" y="606" on="1"/>
        <pt x="115" y="619" on="1"/>
        <pt x="44" y="628" on="1"/>
        <pt x="44" y="669" on="1"/>
        <pt x="198" y="669" on="1"/>
        <pt x="562" y="173" on="1"/>
        <pt x="562" y="615" on="1"/>
        <pt x="456" y="628" on="1"/>
        <pt x="456" y="669" on="1"/>
        <pt x="698" y="669" on="1"/>
      </contour>
    </TTGlyph>
    <TTGlyph name="Nacute" xMin="39" yMin="-10" xMax="698" yMax="863">
      <component glyphName="N" x="0" y="0" flags="0x204"/>
      <component glyphName="acutecmb.cap" x="389" y="-14" flags="0x4"/>
    </TTGlyph>
    <TTGlyph name="Ncaron" xMin="39" yMin="-10" xMax="698" yMax="858">
      <component glyphName="N" x="0" y="0" flags="0x204"/>
      <component glyphName="caroncmb.cap" x="364" y="-9" flags="0x4"/>
    </TTGlyph>
    <TTGlyph name="Ntilde" xMin="39" yMin="-10" xMax="698" yMax="844">
      <component glyphName="N" x="0" y="0" flags="0x204"/>
      <component glyphName="tildecmb.cap" x="377" y="-8" flags="0x4"/>
    </TTGlyph>
    <TTGlyph name="O" xMin="47" yMin="-15" xMax="660" yMax="684">
      <contour>
        <pt x="156" y="334" on="1"/>
        <pt x="156" y="278" on="0"/>
        <pt x="179" y="171" on="0"/>
        <pt x="227" y="87" on="0"/>
        <pt x="302" y="35" on="0"/>
        <pt x="354" y="35" on="1"/>
        <pt x="406" y="35" on="0"/>
        <pt x="481" y="87" on="0"/>
        <pt x="529" y="171" on="0"/>
        <pt x="552" y="278" on="0"/>
        <pt x="552" y="334" on="1"/>
        <pt x="552" y="390" on="0"/>
        <pt x="529" y="498" on="0"/>
        <pt x="481" y="582" on="0"/>
        <pt x="406" y="633" on="0"/>
        <pt x="354" y="633" on="1"/>
        <pt x="302" y="633" on="0"/>
        <pt x="227" y="582" on="0"/>
        <pt x="179" y="498" on="0"/>
        <pt x="156" y="390" on="0"/>
      </contour>
      <contour>
        <pt x="354" y="684" on="1"/>
        <pt x="412" y="684" on="0"/>
        <pt x="522" y="639" on="0"/>
        <pt x="608" y="550" on="0"/>
        <pt x="660" y="419" on="0"/>
        <pt x="660" y="334" on="1"/>
        <pt x="660" y="252" on="0"/>
        <pt x="608" y="122" on="0"/>
        <pt x="522" y="32" on="0"/>
        <pt x="412" y="-15" on="0"/>
        <pt x="354" y="-15" on="1"/>
        <pt x="296" y="-15" on="0"/>
        <pt x="185" y="30" on="0"/>
        <pt x="99" y="118" on="0"/>
        <pt x="47" y="248" on="0"/>
        <pt x="47" y="334" on="1"/>
        <pt x="47" y="416" on="0"/>
        <pt x="100" y="546" on="0"/>
        <pt x="186" y="636" on="0"/>
        <pt x="296" y="684" on="0"/>
      </contour>
    </TTGlyph>
    <TTGlyph name="OE" xMin="47" yMin="-15" xMax="903" yMax="684">
      <contour>
        <pt x="472" y="359" on="1"/>
        <pt x="472" y="424" on="0"/>
        <pt x="472" y="552" on="0"/>
        <pt x="470" y="617" on="1"/>
        <pt x="422" y="633" on="0"/>
        <pt x="375" y="633" on="1"/>
        <pt x="316" y="633" on="0"/>
        <pt x="233" y="583" on="0"/>
        <pt x="180" y="499" on="0"/>
        <pt x="155" y="391" on="0"/>
        <pt x="155" y="334" on="1"/>
        <pt x="155" y="277" on="0"/>
        <pt x="180" y="169" on="0"/>
        <pt x="233" y="85" on="0"/>
        <pt x="316" y="35" on="0"/>
        <pt x="375" y="35" on="1"/>
        <pt x="419" y="35" on="0"/>
        <pt x="470" y="52" on="1"/>
        <pt x="472" y="115" on="0"/>
        <pt x="472" y="244" on="0"/>
        <pt x="472" y="310" on="1"/>
      </contour>
      <contour>
        <pt x="903" y="178" on="1"/>
        <pt x="896" y="0" on="1"/>
        <pt x="519" y="0" on="1"/>
        <pt x="477" y="-8" on="0"/>
        <pt x="407" y="-15" on="0"/>
        <pt x="381" y="-15" on="1"/>
        <pt x="313" y="-15" on="0"/>
        <pt x="192" y="31" on="0"/>
        <pt x="101" y="120" on="0"/>
        <pt x="47" y="250" on="0"/>
        <pt x="47" y="334" on="1"/>
        <pt x="47" y="418" on="0"/>
        <pt x="101" y="548" on="0"/>
        <pt x="192" y="637" on="0"/>
        <pt x="313" y="684" on="0"/>
        <pt x="381" y="684" on="1"/>
        <pt x="407" y="684" on="0"/>
        <pt x="477" y="677" on="0"/>
        <pt x="519" y="669" on="1"/>
        <pt x="876" y="669" on="1"/>
        <pt x="883" y="491" on="1"/>
        <pt x="826" y="491" on="1"/>
        <pt x="804" y="618" on="1"/>
        <pt x="569" y="618" on="1"/>
        <pt x="567" y="555" on="0"/>
        <pt x="567" y="429" on="0"/>
        <pt x="567" y="365" on="1"/>
        <pt x="714" y="365" on="1"/>
        <pt x="728" y="461" on="1"/>
        <pt x="774" y="461" on="1"/>
        <pt x="774" y="224" on="1"/>
        <pt x="728" y="224" on="1"/>
        <pt x="715" y="318" on="1"/>
        <pt x="567" y="318" on="1"/>
        <pt x="567" y="246" on="0"/>
        <pt x="567" y="115" on="0"/>
        <pt x="569" y="50" on="1"/>
        <pt x="824" y="50" on="1"/>
        <pt x="846" y="178" on="1"/>
      </contour>
    </TTGlyph>
    <TTGlyph name="Oacute" xMin="47" yMin="-15" xMax="660" yMax="877">
      <component glyphName="O" x="0" y="0" flags="0x204"/>
      <component glyphName="acutecmb.cap" x="374" y="0" flags="0x4"/>
    </TTGlyph>
    <TTGlyph name="Ocircumflex" xMin="47" yMin="-15" xMax="660" yMax="867">
      <component glyphName="O" x="0" y="0" flags="0x204"/>
      <component glyphName="circumflexcmb.cap" x="353" y="0" flags="0x4"/>
    </TTGlyph>
    <TTGlyph name="Odieresis" xMin="47" yMin="-15" xMax="660" yMax="847">
      <component glyphName="O" x="0" y="0" flags="0x204"/>
      <component glyphName="dieresiscmb.cap" x="353" y="0" flags="0x4"/>
    </TTGlyph>
    <TTGlyph name="Ograve" xMin="47" yMin="-15" xMax="660" yMax="877">
      <component glyphName="O" x="0" y="0" flags="0x204"/>
      <component glyphName="gravecmb.cap" x="352" y="0" flags="0x4"/>
    </TTGlyph>
    <TTGlyph name="Ohungarumlaut" xMin="47" yMin="-15" xMax="660" yMax="887">
      <component glyphName="O" x="0" y="0" flags="0x204"/>
      <component glyphName="hungarumlautcmb.cap" x="358" y="0" flags="0x4"/>
    </TTGlyph>
    <TTGlyph name="Omacron" xMin="47" yMin="-15" xMax="660" yMax="811">
      <component glyphName="O" x="0" y="0" flags="0x204"/>
      <component glyphName="macroncmb.cap" x="353" y="0" flags="0x4"/>
    </TTGlyph>
    <TTGlyph name="Oslash" xMin="47" yMin="-20" xMax="660" yMax="688">
      <contour>
        <pt x="208" y="120" on="1"/>
        <pt x="232" y="82" on="0"/>
        <pt x="304" y="35" on="0"/>
        <pt x="354" y="35" on="1"/>
        <pt x="406" y="35" on="0"/>
        <pt x="481" y="87" on="0"/>
        <pt x="529" y="171" on="0"/>
        <pt x="552" y="278" on="0"/>
        <pt x="552" y="334" on="1"/>
        <pt x="552" y="379" on="0"/>
        <pt x="538" y="465" on="0"/>
        <pt x="523" y="503" on="1"/>
      </contour>
      <contour>
        <pt x="495" y="556" on="1"/>
        <pt x="471" y="591" on="0"/>
        <pt x="402" y="633" on="0"/>
        <pt x="354" y="633" on="1"/>
        <pt x="302" y="633" on="0"/>
        <pt x="227" y="582" on="0"/>
        <pt x="179" y="498" on="0"/>
        <pt x="156" y="390" on="0"/>
        <pt x="156" y="334" on="1"/>
        <pt x="156" y="292" on="0"/>
        <pt x="168" y="210" on="0"/>
        <pt x="182" y="174" on="1"/>
      </contour>
      <contour>
        <pt x="582" y="575" on="1"/>
        <pt x="617" y="531" on="0"/>
        <pt x="660" y="411" on="0"/>
        <pt x="660" y="334" on="1"/>
        <pt x="660" y="252" on="0"/>
        <pt x="608" y="122" on="0"/>
        <pt x="522" y="32" on="0"/>
        <pt x="412" y="-15" on="0"/>
        <pt x="354" y="-15" on="1"/>
        <pt x="301" y="-15" on="0"/>
        <pt x="200" y="22" on="0"/>
        <pt x="158" y="59" on="1"/>
        <pt x="94" y="-20" on="1"/>
        <pt x="51" y="14" on="1"/>
        <pt x="121" y="99" on="1"/>
        <pt x="87" y="142" on="0"/>
        <pt x="47" y="259" on="0"/>
        <pt x="47" y="334" on="1"/>
        <pt x="47" y="416" on="0"/>
        <pt x="100" y="546" on="0"/>
        <pt x="186" y="636" on="0"/>
        <pt x="296" y="684" on="0"/>
        <pt x="354" y="684" on="1"/>
        <pt x="405" y="684" on="0"/>
        <pt x="502" y="649" on="0"/>
        <pt x="543" y="615" on="1"/>
        <pt x="603" y="688" on="1"/>
        <pt x="646" y="654" on="1"/>
      </contour>
    </TTGlyph>
    <TTGlyph name="Otilde" xMin="47" yMin="-15" xMax="660" yMax="853">
      <component glyphName="O" x="0" y="0" flags="0x204"/>
      <component glyphName="tildecmb.cap" x="353" y="1" flags="0x4"/>
    </TTGlyph>
    <TTGlyph name="P" xMin="44" yMin="0" xMax="567" yMax="669">
      <contour>
        <pt x="234" y="622" on="1"/>
        <pt x="232" y="557" on="0"/>
        <pt x="232" y="426" on="0"/>
        <pt x="232" y="359" on="1"/>
        <pt x="232" y="311" on="1"/>
        <pt x="280" y="311" on="1"/>
        <pt x="331" y="311" on="0"/>
        <pt x="402" y="334" on="0"/>
        <pt x="447" y="376" on="0"/>
        <pt x="468" y="434" on="0"/>
        <pt x="468" y="470" on="1"/>
        <pt x="468" y="542" on="0"/>
        <pt x="386" y="622" on="0"/>
        <pt x="295" y="622" on="1"/>
      </contour>
      <contour>
        <pt x="232" y="264" on="1"/>
        <pt x="232" y="211" on="0"/>
        <pt x="232" y="106" on="0"/>
        <pt x="234" y="52" on="1"/>
        <pt x="327" y="41" on="1"/>
        <pt x="327" y="0" on="1"/>
        <pt x="44" y="0" on="1"/>
        <pt x="44" y="41" on="1"/>
        <pt x="136" y="52" on="1"/>
        <pt x="138" y="115" on="0"/>
        <pt x="138" y="244" on="0"/>
        <pt x="138" y="310" on="1"/>
        <pt x="138" y="359" on="1"/>
        <pt x="138" y="424" on="0"/>
        <pt x="138" y="552" on="0"/>
        <pt x="136" y="617" on="1"/>
        <pt x="44" y="628" on="1"/>
        <pt x="44" y="669" on="1"/>
        <pt x="313" y="669" on="1"/>
        <pt x="376" y="669" on="0"/>
        <pt x="472" y="640" on="0"/>
        <pt x="535" y="587" on="0"/>
        <pt x="567" y="514" on="0"/>
        <pt x="567" y="470" on="1"/>
        <pt x="567" y="428" on="0"/>
        <pt x="534" y="354" on="0"/>
        <pt x="462" y="297" on="0"/>
        <pt x="347" y="264" on="0"/>
        <pt x="265" y="264" on="1"/>
      </contour>
    </TTGlyph>
    <TTGlyph name="Q" xMin="47" yMin="-216" xMax="660" yMax="684">
      <contour>
        <pt x="156" y="334" on="1"/>
        <pt x="156" y="278" on="0"/>
        <pt x="179" y="171" on="0"/>
        <pt x="227" y="87" on="0"/>
        <pt x="302" y="35" on="0"/>
        <pt x="354" y="35" on="1"/>
        <pt x="406" y="35" on="0"/>
        <pt x="481" y="87" on="0"/>
        <pt x="529" y="171" on="0"/>
        <pt x="552" y="278" on="0"/>
        <pt x="552" y="334" on="1"/>
        <pt x="552" y="390" on="0"/>
        <pt x="529" y="498" on="0"/>
        <pt x="481" y="582" on="0"/>
        <pt x="406" y="633" on="0"/>
        <pt x="354" y="633" on="1"/>
        <pt x="302" y="633" on="0"/>
        <pt x="227" y="582" on="0"/>
        <pt x="179" y="498" on="0"/>
        <pt x="156" y="390" on="0"/>
      </contour>
      <contour>
        <pt x="623" y="-184" on="1"/>
        <pt x="597" y="-201" on="0"/>
        <pt x="531" y="-216" on="0"/>
        <pt x="499" y="-216" on="1"/>
        <pt x="453" y="-216" on="0"/>
        <pt x="380" y="-183" on="0"/>
        <pt x="330" y="-127" on="0"/>
        <pt x="303" y="-52" on="0"/>
        <pt x="302" y="-10" on="1"/>
        <pt x="251" y="-1" on="0"/>
        <pt x="159" y="52" on="0"/>
        <pt x="89" y="139" on="0"/>
        <pt x="47" y="258" on="0"/>
        <pt x="47" y="334" on="1"/>
        <pt x="47" y="416" on="0"/>
        <pt x="100" y="546" on="0"/>
        <pt x="186" y="636" on="0"/>
        <pt x="296" y="684" on="0"/>
        <pt x="354" y="684" on="1"/>
        <pt x="412" y="684" on="0"/>
        <pt x="522" y="639" on="0"/>
        <pt x="608" y="550" on="0"/>
        <pt x="660" y="419" on="0"/>
        <pt x="660" y="334" on="1"/>
        <pt x="660" y="259" on="0"/>
        <pt x="616" y="138" on="0"/>
        <pt x="543" y="49" on="0"/>
        <pt x="447" y="-5" on="0"/>
        <pt x="395" y="-12" on="1"/>
        <pt x="397" y="-85" on="0"/>
        <pt x="471" y="-161" on="0"/>
        <pt x="534" y="-161" on="1"/>
        <pt x="549" y="-161" on="0"/>
        <pt x="588" y="-156" on="0"/>
        <pt x="611" y="-149" on="1"/>
      </contour>
    </TTGlyph>
    <TTGlyph name="R" xMin="44" yMin="-10" xMax="636" yMax="669">
      <contour>
        <pt x="309" y="355" on="1"/>
        <pt x="390" y="355" on="0"/>
        <pt x="468" y="434" on="0"/>
        <pt x="468" y="497" on="1"/>
        <pt x="468" y="557" on="0"/>
        <pt x="398" y="622" on="0"/>
        <pt x="320" y="622" on="1"/>
        <pt x="234" y="622" on="1"/>
        <pt x="232" y="557" on="0"/>
        <pt x="232" y="428" on="0"/>
        <pt x="232" y="355" on="1"/>
      </contour>
      <contour>
        <pt x="636" y="41" on="1"/>
        <pt x="636" y="0" on="1"/>
        <pt x="622" y="-5" on="0"/>
        <pt x="585" y="-10" on="0"/>
        <pt x="562" y="-10" on="1"/>
        <pt x="513" y="-10" on="0"/>
        <pt x="459" y="18" on="0"/>
        <pt x="450" y="54" on="1"/>
        <pt x="410" y="214" on="1"/>
        <pt x="403" y="244" on="0"/>
        <pt x="382" y="281" on="0"/>
        <pt x="350" y="302" on="0"/>
        <pt x="306" y="309" on="0"/>
        <pt x="276" y="309" on="1"/>
        <pt x="232" y="309" on="1"/>
        <pt x="232" y="241" on="0"/>
        <pt x="232" y="115" on="0"/>
        <pt x="234" y="52" on="1"/>
        <pt x="327" y="41" on="1"/>
        <pt x="327" y="0" on="1"/>
        <pt x="44" y="0" on="1"/>
        <pt x="44" y="41" on="1"/>
        <pt x="136" y="52" on="1"/>
        <pt x="138" y="115" on="0"/>
        <pt x="138" y="244" on="0"/>
        <pt x="138" y="310" on="1"/>
        <pt x="138" y="359" on="1"/>
        <pt x="138" y="424" on="0"/>
        <pt x="138" y="552" on="0"/>
        <pt x="136" y="617" on="1"/>
        <pt x="44" y="628" on="1"/>
        <pt x="44" y="669" on="1"/>
        <pt x="324" y="669" on="1"/>
        <pt x="439" y="669" on="0"/>
        <pt x="566" y="578" on="0"/>
        <pt x="566" y="497" on="1"/>
        <pt x="566" y="466" on="0"/>
        <pt x="547" y="409" on="0"/>
        <pt x="508" y="363" on="0"/>
        <pt x="447" y="330" on="0"/>
        <pt x="404" y="322" on="1"/>
        <pt x="442" y="311" on="0"/>
        <pt x="492" y="253" on="0"/>
        <pt x="508" y="198" on="1"/>
        <pt x="551" y="51" on="1"/>
      </contour>
    </TTGlyph>
    <TTGlyph name="Racute" xMin="44" yMin="-10" xMax="636" yMax="877">
      <component glyphName="R" x="0" y="0" flags="0x204"/>
      <component glyphName="acutecmb.cap" x="351" y="0" flags="0x4"/>
    </TTGlyph>
    <TTGlyph name="Rcaron" xMin="44" yMin="-10" xMax="636" yMax="867">
      <component glyphName="R" x="0" y="0" flags="0x204"/>
      <component glyphName="caroncmb.cap" x="320" y="0" flags="0x4"/>
    </TTGlyph>
    <TTGlyph name="S" xMin="40" yMin="-15" xMax="473" yMax="684">
      <contour>
        <pt x="290" y="377" on="1"/>
        <pt x="340" y="358" on="0"/>
        <pt x="410" y="316" on="0"/>
        <pt x="453" y="268" on="0"/>
        <pt x="473" y="212" on="0"/>
        <pt x="473" y="178" on="1"/>
        <pt x="473" y="133" on="0"/>
        <pt x="438" y="62" on="0"/>
        <pt x="375" y="12" on="0"/>
        <pt x="287" y="-15" on="0"/>
        <pt x="235" y="-15" on="1"/>
        <pt x="178" y="-15" on="0"/>
        <pt x="75" y="16" on="0"/>
        <pt x="40" y="38" on="1"/>
        <pt x="46" y="178" on="1"/>
        <pt x="107" y="178" on="1"/>
        <pt x="127" y="62" on="1"/>
        <pt x="151" y="48" on="0"/>
        <pt x="200" y="35" on="0"/>
        <pt x="232" y="35" on="1"/>
        <pt x="303" y="35" on="0"/>
        <pt x="388" y="99" on="0"/>
        <pt x="388" y="158" on="1"/>
        <pt x="388" y="181" on="0"/>
        <pt x="373" y="216" on="0"/>
        <pt x="343" y="244" on="0"/>
        <pt x="296" y="268" on="0"/>
        <pt x="264" y="280" on="1"/>
        <pt x="225" y="295" on="1"/>
        <pt x="186" y="310" on="0"/>
        <pt x="123" y="348" on="0"/>
        <pt x="77" y="397" on="0"/>
        <pt x="52" y="457" on="0"/>
        <pt x="52" y="495" on="1"/>
        <pt x="52" y="538" on="0"/>
        <pt x="86" y="608" on="0"/>
        <pt x="146" y="658" on="0"/>
        <pt x="229" y="684" on="0"/>
        <pt x="277" y="684" on="1"/>
        <pt x="328" y="684" on="0"/>
        <pt x="410" y="655" on="0"/>
        <pt x="442" y="631" on="1"/>
        <pt x="436" y="500" on="1"/>
        <pt x="374" y="500" on="1"/>
        <pt x="353" y="614" on="1"/>
        <pt x="315" y="633" on="0"/>
        <pt x="272" y="633" on="1"/>
        <pt x="214" y="633" on="0"/>
        <pt x="136" y="575" on="0"/>
        <pt x="136" y="517" on="1"/>
        <pt x="136" y="469" on="0"/>
        <pt x="195" y="413" on="0"/>
        <pt x="250" y="392" on="1"/>
      </contour>
    </TTGlyph>
    <TTGlyph name="Sacute" xMin="40" yMin="-15" xMax="473" yMax="877">
      <component glyphName="S" x="0" y="0" flags="0x204"/>
      <component glyphName="acutecmb.cap" x="287" y="0" flags="0x4"/>
    </TTGlyph>
    <TTGlyph name="Scaron" xMin="40" yMin="-15" xMax="473" yMax="867">
      <component glyphName="S" x="0" y="0" flags="0x204"/>
      <component glyphName="caroncmb.cap" x="273" y="0" flags="0x4"/>
    </TTGlyph>
    <TTGlyph name="T" xMin="20" yMin="0" xMax="585" yMax="669">
      <contour>
        <pt x="352" y="618" on="1"/>
        <pt x="350" y="554" on="0"/>
        <pt x="350" y="425" on="0"/>
        <pt x="350" y="359" on="1"/>
        <pt x="350" y="310" on="1"/>
        <pt x="350" y="245" on="0"/>
        <pt x="350" y="117" on="0"/>
        <pt x="352" y="52" on="1"/>
        <pt x="454" y="41" on="1"/>
        <pt x="454" y="0" on="1"/>
        <pt x="151" y="0" on="1"/>
        <pt x="151" y="41" on="1"/>
        <pt x="253" y="52" on="1"/>
        <pt x="255" y="115" on="0"/>
        <pt x="255" y="244" on="0"/>
        <pt x="255" y="310" on="1"/>
        <pt x="255" y="359" on="1"/>
        <pt x="255" y="424" on="0"/>
        <pt x="255" y="553" on="0"/>
        <pt x="253" y="618" on="1"/>
        <pt x="100" y="618" on="1"/>
        <pt x="78" y="490" on="1"/>
        <pt x="20" y="490" on="1"/>
        <pt x="28" y="669" on="1"/>
        <pt x="578" y="669" on="1"/>
        <pt x="585" y="490" on="1"/>
        <pt x="528" y="490" on="1"/>
        <pt x="505" y="618" on="1"/>
      </contour>
    </TTGlyph>
    <TTGlyph name="Tcaron" xMin="20" yMin="0" xMax="585" yMax="867">
      <component glyphName="T" x="0" y="0" flags="0x204"/>
      <component glyphName="caroncmb.cap" x="302" y="0" flags="0x4"/>
    </TTGlyph>
    <TTGlyph name="Thorn" xMin="44" yMin="0" xMax="586" yMax="669">
      <contour>
        <pt x="317" y="201" on="1"/>
        <pt x="405" y="201" on="0"/>
        <pt x="487" y="283" on="0"/>
        <pt x="487" y="348" on="1"/>
        <pt x="487" y="416" on="0"/>
        <pt x="405" y="488" on="0"/>
        <pt x="314" y="488" on="1"/>
        <pt x="232" y="488" on="1"/>
        <pt x="232" y="201" on="1"/>
      </contour>
      <contour>
        <pt x="232" y="154" on="1"/>
        <pt x="232" y="128" on="0"/>
        <pt x="233" y="78" on="0"/>
        <pt x="233" y="52" on="1"/>
        <pt x="332" y="41" on="1"/>
        <pt x="332" y="0" on="1"/>
        <pt x="44" y="0" on="1"/>
        <pt x="44" y="41" on="1"/>
        <pt x="136" y="52" on="1"/>
        <pt x="138" y="115" on="0"/>
        <pt x="138" y="244" on="0"/>
        <pt x="138" y="310" on="1"/>
        <pt x="138" y="359" on="1"/>
        <pt x="138" y="424" on="0"/>
        <pt x="138" y="552" on="0"/>
        <pt x="136" y="617" on="1"/>
        <pt x="44" y="628" on="1"/>
        <pt x="44" y="669" on="1"/>
        <pt x="332" y="669" on="1"/>
        <pt x="332" y="628" on="1"/>
        <pt x="234" y="617" on="1"/>
        <pt x="233" y="597" on="0"/>
        <pt x="232" y="555" on="0"/>
        <pt x="232" y="535" on="1"/>
        <pt x="326" y="535" on="1"/>
        <pt x="457" y="535" on="0"/>
        <pt x="586" y="431" on="0"/>
        <pt x="586" y="346" on="1"/>
        <pt x="586" y="310" on="0"/>
        <pt x="561" y="241" on="0"/>
        <pt x="497" y="187" on="0"/>
        <pt x="386" y="154" on="0"/>
        <pt x="300" y="154" on="1"/>
      </contour>
    </TTGlyph>
    <TTGlyph name="U" xMin="39" yMin="-15" xMax="695" yMax="669">
      <contour>
        <pt x="695" y="628" on="1"/>
        <pt x="608" y="616" on="1"/>
        <pt x="608" y="274" on="1"/>
        <pt x="608" y="195" on="0"/>
        <pt x="572" y="85" on="0"/>
        <pt x="507" y="16" on="0"/>
        <pt x="420" y="-15" on="0"/>
        <pt x="369" y="-15" on="1"/>
        <pt x="314" y="-15" on="0"/>
        <pt x="224" y="16" on="0"/>
        <pt x="159" y="81" on="0"/>
        <pt x="124" y="182" on="0"/>
        <pt x="124" y="252" on="1"/>
        <pt x="124" y="359" on="1"/>
        <pt x="124" y="424" on="0"/>
        <pt x="124" y="553" on="0"/>
        <pt x="122" y="618" on="1"/>
        <pt x="39" y="628" on="1"/>
        <pt x="39" y="669" on="1"/>
        <pt x="322" y="669" on="1"/>
        <pt x="322" y="628" on="1"/>
        <pt x="221" y="616" on="1"/>
        <pt x="219" y="553" on="0"/>
        <pt x="219" y="425" on="0"/>
        <pt x="219" y="359" on="1"/>
        <pt x="219" y="281" on="1"/>
        <pt x="219" y="217" on="0"/>
        <pt x="242" y="131" on="0"/>
        <pt x="285" y="78" on="0"/>
        <pt x="347" y="56" on="0"/>
        <pt x="385" y="56" on="1"/>
        <pt x="428" y="56" on="0"/>
        <pt x="492" y="82" on="0"/>
        <pt x="535" y="139" on="0"/>
        <pt x="557" y="231" on="0"/>
        <pt x="557" y="298" on="1"/>
        <pt x="557" y="614" on="1"/>
        <pt x="455" y="628" on="1"/>
        <pt x="455" y="669" on="1"/>
        <pt x="695" y="669" on="1"/>
      </contour>
    </TTGlyph>
    <TTGlyph name="Uacute" xMin="39" yMin="-15" xMax="695" yMax="869">
      <component glyphName="U" x="0" y="0" flags="0x204"/>
      <component glyphName="acutecmb.cap" x="397" y="-8" flags="0x4"/>
    </TTGlyph>
    <TTGlyph name="Ucircumflex" xMin="39" yMin="-15" xMax="695" yMax="859">
      <component glyphName="U" x="0" y="0" flags="0x204"/>
      <component glyphName="circumflexcmb.cap" x="381" y="-8" flags="0x4"/>
    </TTGlyph>
    <TTGlyph name="Udieresis" xMin="39" yMin="-15" xMax="695" yMax="847">
      <component glyphName="U" x="0" y="0" flags="0x204"/>
      <component glyphName="dieresiscmb.cap" x="386" y="0" flags="0x4"/>
    </TTGlyph>
    <TTGlyph name="Ugrave" xMin="39" yMin="-15" xMax="695" yMax="869">
      <component glyphName="U" x="0" y="0" flags="0x204"/>
      <component glyphName="gravecmb.cap" x="364" y="-8" flags="0x4"/>
    </TTGlyph>
    <TTGlyph name="Uhungarumlaut" xMin="39" yMin="-15" xMax="695" yMax="887">
      <component glyphName="U" x="0" y="0" flags="0x204"/>
      <component glyphName="hungarumlautcmb.cap" x="397" y="0" flags="0x4"/>
    </TTGlyph>
    <TTGlyph name="Umacron" xMin="39" yMin="-15" xMax="695" yMax="811">
      <component glyphName="U" x="0" y="0" flags="0x204"/>
      <component glyphName="macroncmb.cap" x="385" y="0" flags="0x4"/>
    </TTGlyph>
    <TTGlyph name="Uogonek" xMin="39" yMin="-221" xMax="695" yMax="669">
      <contour>
        <pt x="695" y="628" on="1"/>
        <pt x="608" y="615" on="1"/>
        <pt x="608" y="274" on="1"/>
        <pt x="608" y="221" on="0"/>
        <pt x="592" y="141" on="0"/>
        <pt x="563" y="79" on="0"/>
        <pt x="524" y="35" on="0"/>
        <pt x="500" y="19" on="1"/>
        <pt x="461" y="-7" on="0"/>
        <pt x="424" y="-66" on="0"/>
        <pt x="424" y="-96" on="1"/>
        <pt x="424" y="-128" on="0"/>
        <pt x="463" y="-164" on="0"/>
        <pt x="492" y="-164" on="1"/>
        <pt x="502" y="-164" on="0"/>
        <pt x="529" y="-158" on="0"/>
        <pt x="544" y="-150" on="1"/>
        <pt x="556" y="-173" on="1"/>
        <pt x="538" y="-198" on="0"/>
        <pt x="485" y="-221" on="0"/>
        <pt x="456" y="-221" on="1"/>
        <pt x="411" y="-221" on="0"/>
        <pt x="360" y="-174" on="0"/>
        <pt x="360" y="-132" on="1"/>
        <pt x="360" y="-97" on="0"/>
        <pt x="396" y="-34" on="0"/>
        <pt x="423" y="-11" on="1"/>
        <pt x="412" y="-13" on="0"/>
        <pt x="387" y="-15" on="0"/>
        <pt x="376" y="-15" on="1"/>
        <pt x="319" y="-15" on="0"/>
        <pt x="226" y="16" on="0"/>
        <pt x="160" y="81" on="0"/>
        <pt x="124" y="182" on="0"/>
        <pt x="124" y="252" on="1"/>
        <pt x="124" y="359" on="1"/>
        <pt x="124" y="425" on="0"/>
        <pt x="124" y="554" on="0"/>
        <pt x="122" y="618" on="1"/>
        <pt x="39" y="628" on="1"/>
        <pt x="39" y="669" on="1"/>
        <pt x="322" y="669" on="1"/>
        <pt x="322" y="628" on="1"/>
        <pt x="221" y="616" on="1"/>
        <pt x="219" y="552" on="0"/>
        <pt x="219" y="424" on="0"/>
        <pt x="219" y="359" on="1"/>
        <pt x="219" y="281" on="1"/>
        <pt x="219" y="217" on="0"/>
        <pt x="242" y="131" on="0"/>
        <pt x="284" y="78" on="0"/>
        <pt x="344" y="56" on="0"/>
        <pt x="381" y="56" on="1"/>
        <pt x="425" y="56" on="0"/>
        <pt x="491" y="82" on="0"/>
        <pt x="535" y="139" on="0"/>
        <pt x="557" y="231" on="0"/>
        <pt x="557" y="298" on="1"/>
        <pt x="557" y="615" on="1"/>
        <pt x="455" y="628" on="1"/>
        <pt x="455" y="669" on="1"/>
        <pt x="695" y="669" on="1"/>
      </contour>
    </TTGlyph>
    <TTGlyph name="Uring" xMin="39" yMin="-15" xMax="695" yMax="908">
      <component glyphName="U" x="0" y="0" flags="0x204"/>
      <component glyphName="ringcmb.cap" x="385" y="0" flags="0x4"/>
    </TTGlyph>
    <TTGlyph name="V" xMin="14" yMin="-10" xMax="663" yMax="669">
      <contour>
        <pt x="663" y="628" on="1"/>
        <pt x="577" y="616" on="1"/>
        <pt x="365" y="-10" on="1"/>
        <pt x="324" y="-10" on="1"/>
        <pt x="90" y="619" on="1"/>
        <pt x="14" y="628" on="1"/>
        <pt x="14" y="669" on="1"/>
        <pt x="286" y="669" on="1"/>
        <pt x="286" y="623" on="1"/>
        <pt x="191" y="615" on="1"/>
        <pt x="360" y="134" on="1"/>
        <pt x="522" y="614" on="1"/>
        <pt x="433" y="623" on="1"/>
        <pt x="433" y="669" on="1"/>
        <pt x="663" y="669" on="1"/>
      </contour>
    </TTGlyph>
    <TTGlyph name="W" xMin="14" yMin="-10" xMax="953" yMax="669">
      <contour>
        <pt x="953" y="628" on="1"/>
        <pt x="870" y="616" on="1"/>
        <pt x="700" y="-10" on="1"/>
        <pt x="659" y="-10" on="1"/>
        <pt x="483" y="513" on="1"/>
        <pt x="318" y="-10" on="1"/>
        <pt x="278" y="-10" on="1"/>
        <pt x="97" y="618" on="1"/>
        <pt x="14" y="628" on="1"/>
        <pt x="14" y="669" on="1"/>
        <pt x="286" y="669" on="1"/>
        <pt x="286" y="628" on="1"/>
        <pt x="194" y="617" on="1"/>
        <pt x="318" y="158" on="1"/>
        <pt x="470" y="616" on="1"/>
        <pt x="371" y="628" on="1"/>
        <pt x="371" y="669" on="1"/>
        <pt x="642" y="669" on="1"/>
        <pt x="642" y="628" on="1"/>
        <pt x="542" y="616" on="1"/>
        <pt x="691" y="153" on="1"/>
        <pt x="819" y="615" on="1"/>
        <pt x="726" y="628" on="1"/>
        <pt x="726" y="669" on="1"/>
        <pt x="953" y="669" on="1"/>
      </contour>
    </TTGlyph>
    <TTGlyph name="X" xMin="11" yMin="0" xMax="637" yMax="669">
      <contour>
        <pt x="637" y="41" on="1"/>
        <pt x="637" y="0" on="1"/>
        <pt x="356" y="0" on="1"/>
        <pt x="356" y="41" on="1"/>
        <pt x="447" y="52" on="1"/>
        <pt x="308" y="284" on="1"/>
        <pt x="161" y="52" on="1"/>
        <pt x="239" y="41" on="1"/>
        <pt x="239" y="0" on="1"/>
        <pt x="11" y="0" on="1"/>
        <pt x="11" y="41" on="1"/>
        <pt x="106" y="53" on="1"/>
        <pt x="284" y="325" on="1"/>
        <pt x="109" y="618" on="1"/>
        <pt x="20" y="628" on="1"/>
        <pt x="20" y="669" on="1"/>
        <pt x="301" y="669" on="1"/>
        <pt x="301" y="628" on="1"/>
        <pt x="213" y="618" on="1"/>
        <pt x="340" y="404" on="1"/>
        <pt x="472" y="615" on="1"/>
        <pt x="388" y="628" on="1"/>
        <pt x="388" y="669" on="1"/>
        <pt x="618" y="669" on="1"/>
        <pt x="618" y="628" on="1"/>
        <pt x="528" y="616" on="1"/>
        <pt x="365" y="363" on="1"/>
        <pt x="552" y="51" on="1"/>
      </contour>
    </TTGlyph>
    <TTGlyph name="Y" xMin="14" yMin="0" xMax="621" yMax="669">
      <contour>
        <pt x="364" y="265" on="1"/>
        <pt x="364" y="234" on="1"/>
        <pt x="364" y="202" on="0"/>
        <pt x="364" y="106" on="0"/>
        <pt x="366" y="52" on="1"/>
        <pt x="468" y="41" on="1"/>
        <pt x="468" y="0" on="1"/>
        <pt x="166" y="0" on="1"/>
        <pt x="166" y="41" on="1"/>
        <pt x="268" y="52" on="1"/>
        <pt x="270" y="106" on="0"/>
        <pt x="270" y="202" on="0"/>
        <pt x="270" y="234" on="1"/>
        <pt x="270" y="260" on="1"/>
        <pt x="93" y="619" on="1"/>
        <pt x="14" y="628" on="1"/>
        <pt x="14" y="669" on="1"/>
        <pt x="296" y="669" on="1"/>
        <pt x="296" y="628" on="1"/>
        <pt x="201" y="617" on="1"/>
        <pt x="340" y="315" on="1"/>
        <pt x="483" y="616" on="1"/>
        <pt x="393" y="628" on="1"/>
        <pt x="393" y="669" on="1"/>
        <pt x="621" y="669" on="1"/>
        <pt x="621" y="628" on="1"/>
        <pt x="534" y="615" on="1"/>
      </contour>
    </TTGlyph>
    <TTGlyph name="Yacute" xMin="14" yMin="0" xMax="621" yMax="869">
      <component glyphName="Y" x="0" y="0" flags="0x204"/>
      <component glyphName="acutecmb.cap" x="357" y="-8" flags="0x4"/>
    </TTGlyph>
    <TTGlyph name="Ydieresis" xMin="14" yMin="0" xMax="621" yMax="847">
      <component glyphName="Y" x="0" y="0" flags="0x204"/>
      <component glyphName="dieresiscmb.cap" x="336" y="0" flags="0x4"/>
    </TTGlyph>
    <TTGlyph name="Z" xMin="20" yMin="0" xMax="532" yMax="669">
      <contour>
        <pt x="532" y="178" on="1"/>
        <pt x="524" y="0" on="1"/>
        <pt x="20" y="0" on="1"/>
        <pt x="20" y="35" on="1"/>
        <pt x="399" y="618" on="1"/>
        <pt x="118" y="618" on="1"/>
        <pt x="91" y="490" on="1"/>
        <pt x="30" y="490" on="1"/>
        <pt x="38" y="669" on="1"/>
        <pt x="510" y="669" on="1"/>
        <pt x="510" y="633" on="1"/>
        <pt x="131" y="50" on="1"/>
        <pt x="443" y="50" on="1"/>
        <pt x="470" y="178" on="1"/>
      </contour>
    </TTGlyph>
    <TTGlyph name="Zacute" xMin="20" yMin="0" xMax="532" yMax="877">
      <component glyphName="Z" x="0" y="0" flags="0x204"/>
      <component glyphName="acutecmb.cap" x="307" y="0" flags="0x4"/>
    </TTGlyph>
    <TTGlyph name="Zcaron" xMin="20" yMin="0" xMax="532" yMax="867">
      <component glyphName="Z" x="0" y="0" flags="0x204"/>
      <component glyphName="caroncmb.cap" x="277" y="0" flags="0x4"/>
    </TTGlyph>
    <TTGlyph name="Zdotaccent" xMin="20" yMin="0" xMax="532" yMax="864">
      <component glyphName="Z" x="0" y="0" flags="0x204"/>
      <component glyphName="dotaccentcmb.cap" x="295" y="0" flags="0x4"/>
    </TTGlyph>
    <TTGlyph name="a" xMin="46" yMin="-15" xMax="504" yMax="491">
      <contour>
        <pt x="324" y="259" on="1"/>
        <pt x="298" y="252" on="0"/>
        <pt x="249" y="236" on="0"/>
        <pt x="233" y="230" on="1"/>
        <pt x="200" y="217" on="0"/>
        <pt x="161" y="190" on="0"/>
        <pt x="141" y="164" on="0"/>
        <pt x="135" y="138" on="0"/>
        <pt x="135" y="127" on="1"/>
        <pt x="135" y="107" on="0"/>
        <pt x="146" y="83" on="0"/>
        <pt x="154" y="74" on="1"/>
        <pt x="177" y="51" on="0"/>
        <pt x="215" y="51" on="1"/>
        <pt x="227" y="51" on="0"/>
        <pt x="249" y="56" on="0"/>
        <pt x="273" y="69" on="0"/>
        <pt x="303" y="90" on="0"/>
        <pt x="324" y="105" on="1"/>
      </contour>
      <contour>
        <pt x="504" y="43" on="1"/>
        <pt x="487" y="11" on="0"/>
        <pt x="447" y="-10" on="0"/>
        <pt x="423" y="-10" on="1"/>
        <pt x="381" y="-10" on="0"/>
        <pt x="333" y="31" on="0"/>
        <pt x="326" y="65" on="1"/>
        <pt x="306" y="45" on="0"/>
        <pt x="272" y="15" on="0"/>
        <pt x="238" y="-5" on="0"/>
        <pt x="202" y="-15" on="0"/>
        <pt x="180" y="-15" on="1"/>
        <pt x="153" y="-15" on="0"/>
        <pt x="104" y="1" on="0"/>
        <pt x="67" y="33" on="0"/>
        <pt x="46" y="80" on="0"/>
        <pt x="46" y="111" on="1"/>
        <pt x="46" y="132" on="0"/>
        <pt x="60" y="172" on="0"/>
        <pt x="96" y="209" on="0"/>
        <pt x="161" y="246" on="0"/>
        <pt x="212" y="264" on="1"/>
        <pt x="235" y="272" on="0"/>
        <pt x="294" y="289" on="0"/>
        <pt x="324" y="297" on="1"/>
        <pt x="324" y="324" on="1"/>
        <pt x="324" y="360" on="0"/>
        <pt x="313" y="407" on="0"/>
        <pt x="291" y="434" on="0"/>
        <pt x="256" y="445" on="0"/>
        <pt x="231" y="445" on="1"/>
        <pt x="220" y="445" on="0"/>
        <pt x="195" y="443" on="0"/>
        <pt x="180" y="440" on="1"/>
        <pt x="160" y="370" on="1"/>
        <pt x="146" y="322" on="0"/>
        <pt x="106" y="322" on="1"/>
        <pt x="85" y="322" on="0"/>
        <pt x="61" y="345" on="0"/>
        <pt x="59" y="365" on="1"/>
        <pt x="73" y="422" on="0"/>
        <pt x="177" y="491" on="0"/>
        <pt x="254" y="491" on="1"/>
        <pt x="333" y="491" on="0"/>
        <pt x="409" y="411" on="0"/>
        <pt x="409" y="315" on="1"/>
        <pt x="409" y="101" on="1"/>
        <pt x="409" y="42" on="0"/>
        <pt x="442" y="42" on="1"/>
        <pt x="454" y="42" on="0"/>
        <pt x="472" y="53" on="0"/>
        <pt x="479" y="59" on="1"/>
        <pt x="484" y="65" on="1"/>
      </contour>
    </TTGlyph>
    <TTGlyph name="a.sups" xMin="31" yMin="415" xMax="350" yMax="749">
      <contour>
        <pt x="219" y="592" on="1"/>
        <pt x="202" y="588" on="0"/>
        <pt x="170" y="579" on="0"/>
        <pt x="158" y="575" on="1"/>
        <pt x="119" y="561" on="0"/>
        <pt x="98" y="530" on="0"/>
        <pt x="98" y="513" on="1"/>
        <pt x="98" y="499" on="0"/>
        <pt x="105" y="483" on="0"/>
        <pt x="110" y="478" on="1"/>
        <pt x="118" y="470" on="0"/>
        <pt x="140" y="464" on="0"/>
        <pt x="151" y="464" on="1"/>
        <pt x="165" y="464" on="0"/>
        <pt x="193" y="476" on="0"/>
        <pt x="219" y="494" on="1"/>
      </contour>
      <contour>
        <pt x="350" y="462" on="1"/>
        <pt x="338" y="437" on="0"/>
        <pt x="308" y="418" on="0"/>
        <pt x="288" y="418" on="1"/>
        <pt x="235" y="418" on="0"/>
        <pt x="222" y="465" on="1"/>
        <pt x="197" y="441" on="0"/>
        <pt x="150" y="415" on="0"/>
        <pt x="121" y="415" on="1"/>
        <pt x="84" y="415" on="0"/>
        <pt x="31" y="455" on="0"/>
        <pt x="31" y="494" on="1"/>
        <pt x="31" y="509" on="0"/>
        <pt x="40" y="537" on="0"/>
        <pt x="65" y="564" on="0"/>
        <pt x="109" y="589" on="0"/>
        <pt x="145" y="601" on="1"/>
        <pt x="161" y="606" on="0"/>
        <pt x="199" y="617" on="0"/>
        <pt x="219" y="622" on="1"/>
        <pt x="219" y="640" on="1"/>
        <pt x="219" y="684" on="0"/>
        <pt x="191" y="714" on="0"/>
        <pt x="159" y="714" on="1"/>
        <pt x="145" y="714" on="0"/>
        <pt x="124" y="711" on="1"/>
        <pt x="115" y="674" on="1"/>
        <pt x="103" y="631" on="0"/>
        <pt x="73" y="631" on="1"/>
        <pt x="58" y="631" on="0"/>
        <pt x="43" y="648" on="0"/>
        <pt x="41" y="662" on="1"/>
        <pt x="49" y="700" on="0"/>
        <pt x="121" y="749" on="0"/>
        <pt x="174" y="749" on="1"/>
        <pt x="228" y="749" on="0"/>
        <pt x="285" y="692" on="0"/>
        <pt x="285" y="623" on="1"/>
        <pt x="285" y="487" on="1"/>
        <pt x="285" y="473" on="0"/>
        <pt x="298" y="458" on="0"/>
        <pt x="307" y="458" on="1"/>
        <pt x="321" y="458" on="0"/>
        <pt x="335" y="475" on="1"/>
      </contour>
    </TTGlyph>
    <TTGlyph name="aacute" xMin="46" yMin="-15" xMax="504" yMax="757">
      <component glyphName="a" x="0" y="0" flags="0x204"/>
      <component glyphName="uni0301" x="280" y="0" flags="0x4"/>
    </TTGlyph>
    <TTGlyph name="abreve" xMin="46" yMin="-15" xMax="504" yMax="735">
      <component glyphName="a" x="0" y="0" flags="0x204"/>
      <component glyphName="uni0306" x="257" y="0" flags="0x4"/>
    </TTGlyph>
    <TTGlyph name="acircumflex" xMin="46" yMin="-15" xMax="504" yMax="753">
      <component glyphName="a" x="0" y="0" flags="0x204"/>
      <component glyphName="uni0302" x="257" y="0" flags="0x4"/>
    </TTGlyph>
    <TTGlyph name="acute" xMin="129" yMin="556" xMax="310" yMax="757">
      <component glyphName="uni0301" x="200" y="0" flags="0x4"/>
    </TTGlyph>
    <TTGlyph name="acutecmb.cap" xMin="-79" yMin="720" xMax="116" yMax="877">
      <contour>
        <pt x="15" y="839" on="1"/>
        <pt x="36" y="860" on="0"/>
        <pt x="64" y="877" on="0"/>
        <pt x="78" y="877" on="1"/>
        <pt x="93" y="877" on="0"/>
        <pt x="116" y="858" on="0"/>
        <pt x="116" y="843" on="1"/>
        <pt x="116" y="829" on="0"/>
        <pt x="94" y="803" on="0"/>
        <pt x="65" y="788" on="1"/>
        <pt x="-61" y="720" on="1"/>
        <pt x="-79" y="745" on="1"/>
      </contour>
    </TTGlyph>
    <TTGlyph name="adieresis" xMin="46" yMin="-15" xMax="504" yMax="696">
      <component glyphName="a" x="0" y="0" flags="0x204"/>
      <component glyphName="uni0308" x="250" y="0" flags="0x4"/>
    </TTGlyph>
    <TTGlyph name="ae" xMin="46" yMin="-15" xMax="737" yMax="491">
      <contour>
        <pt x="343" y="112" on="1"/>
        <pt x="320" y="166" on="0"/>
        <pt x="320" y="236" on="1"/>
        <pt x="320" y="242" on="0"/>
        <pt x="320" y="253" on="0"/>
        <pt x="321" y="259" on="1"/>
        <pt x="295" y="251" on="0"/>
        <pt x="249" y="236" on="0"/>
        <pt x="233" y="230" on="1"/>
        <pt x="200" y="217" on="0"/>
        <pt x="161" y="190" on="0"/>
        <pt x="141" y="164" on="0"/>
        <pt x="135" y="138" on="0"/>
        <pt x="135" y="127" on="1"/>
        <pt x="135" y="107" on="0"/>
        <pt x="146" y="83" on="0"/>
        <pt x="154" y="74" on="1"/>
        <pt x="177" y="51" on="0"/>
        <pt x="215" y="51" on="1"/>
        <pt x="230" y="51" on="0"/>
        <pt x="255" y="56" on="0"/>
        <pt x="281" y="68" on="0"/>
        <pt x="311" y="88" on="0"/>
        <pt x="331" y="103" on="1"/>
      </contour>
      <contour>
        <pt x="595" y="285" on="1"/>
        <pt x="630" y="285" on="0"/>
        <pt x="654" y="314" on="0"/>
        <pt x="654" y="337" on="1"/>
        <pt x="654" y="359" on="0"/>
        <pt x="637" y="398" on="0"/>
        <pt x="608" y="428" on="0"/>
        <pt x="568" y="445" on="0"/>
        <pt x="545" y="445" on="1"/>
        <pt x="524" y="445" on="0"/>
        <pt x="481" y="428" on="0"/>
        <pt x="443" y="390" on="0"/>
        <pt x="416" y="329" on="0"/>
        <pt x="412" y="285" on="1"/>
      </contour>
      <contour>
        <pt x="410" y="242" on="1"/>
        <pt x="411" y="150" on="0"/>
        <pt x="499" y="49" on="0"/>
        <pt x="573" y="49" on="1"/>
        <pt x="621" y="49" on="0"/>
        <pt x="685" y="89" on="0"/>
        <pt x="711" y="121" on="1"/>
        <pt x="735" y="102" on="1"/>
        <pt x="709" y="48" on="0"/>
        <pt x="612" y="-15" on="0"/>
        <pt x="543" y="-15" on="1"/>
        <pt x="481" y="-15" on="0"/>
        <pt x="387" y="35" on="0"/>
        <pt x="358" y="82" on="1"/>
        <pt x="336" y="62" on="1"/>
        <pt x="313" y="41" on="0"/>
        <pt x="276" y="12" on="0"/>
        <pt x="241" y="-7" on="0"/>
        <pt x="204" y="-15" on="0"/>
        <pt x="181" y="-15" on="1"/>
        <pt x="153" y="-15" on="0"/>
        <pt x="104" y="1" on="0"/>
        <pt x="67" y="33" on="0"/>
        <pt x="46" y="80" on="0"/>
        <pt x="46" y="111" on="1"/>
        <pt x="46" y="132" on="0"/>
        <pt x="60" y="172" on="0"/>
        <pt x="96" y="209" on="0"/>
        <pt x="161" y="246" on="0"/>
        <pt x="212" y="264" on="1"/>
        <pt x="235" y="272" on="0"/>
        <pt x="294" y="290" on="0"/>
        <pt x="324" y="297" on="1"/>
        <pt x="324" y="324" on="1"/>
        <pt x="324" y="360" on="0"/>
        <pt x="313" y="407" on="0"/>
        <pt x="291" y="434" on="0"/>
        <pt x="257" y="445" on="0"/>
        <pt x="234" y="445" on="1"/>
        <pt x="222" y="445" on="0"/>
        <pt x="195" y="443" on="0"/>
        <pt x="180" y="440" on="1"/>
        <pt x="160" y="370" on="1"/>
        <pt x="146" y="322" on="0"/>
        <pt x="105" y="322" on="1"/>
        <pt x="85" y="322" on="0"/>
        <pt x="61" y="345" on="0"/>
        <pt x="59" y="365" on="1"/>
        <pt x="73" y="422" on="0"/>
        <pt x="177" y="491" on="0"/>
        <pt x="253" y="491" on="1"/>
        <pt x="301" y="491" on="0"/>
        <pt x="372" y="454" on="0"/>
        <pt x="389" y="412" on="1"/>
        <pt x="421" y="450" on="0"/>
        <pt x="502" y="491" on="0"/>
        <pt x="549" y="491" on="1"/>
        <pt x="589" y="491" on="0"/>
        <pt x="657" y="465" on="0"/>
        <pt x="708" y="415" on="0"/>
        <pt x="737" y="343" on="0"/>
        <pt x="737" y="297" on="1"/>
        <pt x="737" y="280" on="0"/>
        <pt x="733" y="253" on="0"/>
        <pt x="730" y="242" on="1"/>
      </contour>
    </TTGlyph>
    <TTGlyph name="agrave" xMin="46" yMin="-15" xMax="504" yMax="757">
      <component glyphName="a" x="0" y="0" flags="0x204"/>
      <component glyphName="uni0300" x="256" y="0" flags="0x4"/>
    </TTGlyph>
    <TTGlyph name="amacron" xMin="46" yMin="-15" xMax="504" yMax="666">
      <component glyphName="a" x="0" y="0" flags="0x204"/>
      <component glyphName="uni0304" x="257" y="0" flags="0x4"/>
    </TTGlyph>
    <TTGlyph name="ampersand" xMin="26" yMin="-15" xMax="698" yMax="684">
      <contour>
        <pt x="260" y="49" on="1"/>
        <pt x="308" y="49" on="0"/>
        <pt x="388" y="92" on="0"/>
        <pt x="417" y="121" on="1"/>
        <pt x="391" y="153" on="0"/>
        <pt x="338" y="215" on="0"/>
        <pt x="306" y="250" on="1"/>
        <pt x="282" y="276" on="0"/>
        <pt x="237" y="327" on="0"/>
        <pt x="214" y="353" on="1"/>
        <pt x="185" y="337" on="0"/>
        <pt x="146" y="300" on="0"/>
        <pt x="123" y="261" on="0"/>
        <pt x="114" y="221" on="0"/>
        <pt x="114" y="202" on="1"/>
        <pt x="114" y="173" on="0"/>
        <pt x="134" y="118" on="0"/>
        <pt x="171" y="75" on="0"/>
        <pt x="225" y="49" on="0"/>
      </contour>
      <contour>
        <pt x="260" y="415" on="1"/>
        <pt x="299" y="444" on="0"/>
        <pt x="345" y="512" on="0"/>
        <pt x="345" y="553" on="1"/>
        <pt x="345" y="598" on="0"/>
        <pt x="296" y="648" on="0"/>
        <pt x="258" y="648" on="1"/>
        <pt x="219" y="648" on="0"/>
        <pt x="166" y="601" on="0"/>
        <pt x="166" y="563" on="1"/>
        <pt x="166" y="537" on="0"/>
        <pt x="193" y="486" on="0"/>
        <pt x="222" y="455" on="1"/>
      </contour>
      <contour>
        <pt x="629" y="421" on="1"/>
        <pt x="603" y="348" on="0"/>
        <pt x="538" y="216" on="0"/>
        <pt x="496" y="154" on="1"/>
        <pt x="517" y="128" on="0"/>
        <pt x="558" y="79" on="0"/>
        <pt x="576" y="57" on="1"/>
        <pt x="684" y="36" on="1"/>
        <pt x="684" y="0" on="1"/>
        <pt x="668" y="-5" on="0"/>
        <pt x="632" y="-10" on="0"/>
        <pt x="611" y="-10" on="1"/>
        <pt x="560" y="-10" on="0"/>
        <pt x="503" y="21" on="0"/>
        <pt x="479" y="50" on="1"/>
        <pt x="471" y="60" on="0"/>
        <pt x="454" y="78" on="0"/>
        <pt x="446" y="87" on="1"/>
        <pt x="429" y="66" on="0"/>
        <pt x="388" y="29" on="0"/>
        <pt x="337" y="1" on="0"/>
        <pt x="277" y="-15" on="0"/>
        <pt x="241" y="-15" on="1"/>
        <pt x="193" y="-15" on="0"/>
        <pt x="114" y="15" on="0"/>
        <pt x="57" y="67" on="0"/>
        <pt x="26" y="136" on="0"/>
        <pt x="26" y="175" on="1"/>
        <pt x="26" y="242" on="0"/>
        <pt x="109" y="340" on="0"/>
        <pt x="188" y="381" on="1"/>
        <pt x="179" y="390" on="1"/>
        <pt x="142" y="428" on="0"/>
        <pt x="95" y="499" on="0"/>
        <pt x="95" y="544" on="1"/>
        <pt x="95" y="576" on="0"/>
        <pt x="120" y="628" on="0"/>
        <pt x="165" y="664" on="0"/>
        <pt x="226" y="684" on="0"/>
        <pt x="262" y="684" on="1"/>
        <pt x="334" y="684" on="0"/>
        <pt x="411" y="613" on="0"/>
        <pt x="411" y="556" on="1"/>
        <pt x="411" y="506" on="0"/>
        <pt x="352" y="426" on="0"/>
        <pt x="286" y="388" on="1"/>
        <pt x="360" y="310" on="1"/>
        <pt x="383" y="286" on="0"/>
        <pt x="440" y="220" on="0"/>
        <pt x="470" y="185" on="1"/>
        <pt x="505" y="239" on="0"/>
        <pt x="559" y="355" on="0"/>
        <pt x="581" y="418" on="1"/>
        <pt x="483" y="432" on="1"/>
        <pt x="483" y="473" on="1"/>
        <pt x="698" y="473" on="1"/>
        <pt x="698" y="432" on="1"/>
      </contour>
    </TTGlyph>
    <TTGlyph name="aogonek" xMin="46" yMin="-221" xMax="524" yMax="491">
      <contour>
        <pt x="324" y="259" on="1"/>
        <pt x="298" y="252" on="0"/>
        <pt x="249" y="236" on="0"/>
        <pt x="233" y="230" on="1"/>
        <pt x="200" y="217" on="0"/>
        <pt x="161" y="190" on="0"/>
        <pt x="141" y="164" on="0"/>
        <pt x="135" y="138" on="0"/>
        <pt x="135" y="127" on="1"/>
        <pt x="135" y="107" on="0"/>
        <pt x="146" y="83" on="0"/>
        <pt x="154" y="74" on="1"/>
        <pt x="177" y="51" on="0"/>
        <pt x="215" y="51" on="1"/>
        <pt x="227" y="51" on="0"/>
        <pt x="249" y="56" on="0"/>
        <pt x="273" y="69" on="0"/>
        <pt x="303" y="90" on="0"/>
        <pt x="324" y="105" on="1"/>
      </contour>
      <contour>
        <pt x="524" y="-173" on="1"/>
        <pt x="506" y="-198" on="0"/>
        <pt x="451" y="-221" on="0"/>
        <pt x="419" y="-221" on="1"/>
        <pt x="378" y="-221" on="0"/>
        <pt x="328" y="-174" on="0"/>
        <pt x="328" y="-132" on="1"/>
        <pt x="328" y="-114" on="0"/>
        <pt x="342" y="-79" on="0"/>
        <pt x="366" y="-48" on="0"/>
        <pt x="398" y="-21" on="0"/>
        <pt x="416" y="-11" on="1"/>
        <pt x="338" y="-5" on="0"/>
        <pt x="326" y="65" on="1"/>
        <pt x="306" y="45" on="0"/>
        <pt x="272" y="15" on="0"/>
        <pt x="238" y="-5" on="0"/>
        <pt x="202" y="-15" on="0"/>
        <pt x="180" y="-15" on="1"/>
        <pt x="153" y="-15" on="0"/>
        <pt x="104" y="1" on="0"/>
        <pt x="67" y="33" on="0"/>
        <pt x="46" y="80" on="0"/>
        <pt x="46" y="111" on="1"/>
        <pt x="46" y="132" on="0"/>
        <pt x="60" y="172" on="0"/>
        <pt x="96" y="209" on="0"/>
        <pt x="161" y="246" on="0"/>
        <pt x="212" y="264" on="1"/>
        <pt x="235" y="272" on="0"/>
        <pt x="294" y="289" on="0"/>
        <pt x="324" y="297" on="1"/>
        <pt x="324" y="324" on="1"/>
        <pt x="324" y="360" on="0"/>
        <pt x="313" y="407" on="0"/>
        <pt x="291" y="434" on="0"/>
        <pt x="256" y="445" on="0"/>
        <pt x="231" y="445" on="1"/>
        <pt x="220" y="445" on="0"/>
        <pt x="195" y="443" on="0"/>
        <pt x="180" y="440" on="1"/>
        <pt x="160" y="370" on="1"/>
        <pt x="146" y="322" on="0"/>
        <pt x="106" y="322" on="1"/>
        <pt x="85" y="322" on="0"/>
        <pt x="61" y="345" on="0"/>
        <pt x="59" y="365" on="1"/>
        <pt x="73" y="422" on="0"/>
        <pt x="177" y="491" on="0"/>
        <pt x="254" y="491" on="1"/>
        <pt x="333" y="491" on="0"/>
        <pt x="409" y="411" on="0"/>
        <pt x="409" y="315" on="1"/>
        <pt x="409" y="101" on="1"/>
        <pt x="409" y="42" on="0"/>
        <pt x="442" y="42" on="1"/>
        <pt x="454" y="42" on="0"/>
        <pt x="472" y="53" on="0"/>
        <pt x="479" y="59" on="1"/>
        <pt x="484" y="65" on="1"/>
        <pt x="504" y="41" on="1"/>
        <pt x="492" y="26" on="0"/>
        <pt x="472" y="8" on="0"/>
        <pt x="456" y="-5" on="1"/>
        <pt x="431" y="-25" on="0"/>
        <pt x="392" y="-71" on="0"/>
        <pt x="392" y="-97" on="1"/>
        <pt x="392" y="-129" on="0"/>
        <pt x="431" y="-164" on="0"/>
        <pt x="460" y="-164" on="1"/>
        <pt x="470" y="-164" on="0"/>
        <pt x="497" y="-158" on="0"/>
        <pt x="512" y="-150" on="1"/>
      </contour>
    </TTGlyph>
    <TTGlyph name="approxequal" xMin="49" yMin="134" xMax="482" yMax="527">
      <component glyphName="asciitilde" x="0" y="-134" flags="0x204"/>
      <component glyphName="asciitilde" x="0" y="105" flags="0x4"/>
    </TTGlyph>
    <TTGlyph name="aring" xMin="46" yMin="-15" xMax="504" yMax="742">
      <component glyphName="a" x="0" y="0" flags="0x204"/>
      <component glyphName="uni030A" x="256" y="0" flags="0x4"/>
    </TTGlyph>
    <TTGlyph name="arrowdown" xMin="39" yMin="-18" xMax="626" yMax="600">
      <contour>
        <pt x="626" y="290" on="1"/>
        <pt x="344" y="-18" on="1"/>
        <pt x="321" y="-18" on="1"/>
        <pt x="39" y="290" on="1"/>
        <pt x="66" y="316" on="1"/>
        <pt x="314" y="77" on="1"/>
        <pt x="297" y="569" on="1"/>
        <pt x="297" y="600" on="1"/>
        <pt x="368" y="600" on="1"/>
        <pt x="368" y="569" on="1"/>
        <pt x="352" y="78" on="1"/>
        <pt x="599" y="316" on="1"/>
      </contour>
    </TTGlyph>
    <TTGlyph name="arrowup" xMin="39" yMin="-18" xMax="626" yMax="600">
      <contour>
        <pt x="599" y="266" on="1"/>
        <pt x="351" y="505" on="1"/>
        <pt x="368" y="13" on="1"/>
        <pt x="368" y="-18" on="1"/>
        <pt x="297" y="-18" on="1"/>
        <pt x="297" y="13" on="1"/>
        <pt x="313" y="504" on="1"/>
        <pt x="66" y="266" on="1"/>
        <pt x="39" y="292" on="1"/>
        <pt x="321" y="600" on="1"/>
        <pt x="344" y="600" on="1"/>
        <pt x="626" y="292" on="1"/>
      </contour>
    </TTGlyph>
    <TTGlyph name="asciicircum" xMin="88" yMin="208" xMax="445" yMax="481">
      <contour>
        <pt x="400" y="208" on="1"/>
        <pt x="267" y="422" on="1"/>
        <pt x="133" y="208" on="1"/>
        <pt x="88" y="242" on="1"/>
        <pt x="234" y="481" on="1"/>
        <pt x="299" y="481" on="1"/>
        <pt x="445" y="242" on="1"/>
      </contour>
    </TTGlyph>
    <TTGlyph name="asciitilde" xMin="49" yMin="268" xMax="482" yMax="422">
      <contour>
        <pt x="284" y="367" on="1"/>
        <pt x="309" y="344" on="0"/>
        <pt x="348" y="326" on="0"/>
        <pt x="368" y="326" on="1"/>
        <pt x="388" y="326" on="0"/>
        <pt x="424" y="364" on="0"/>
        <pt x="431" y="417" on="1"/>
        <pt x="482" y="409" on="1"/>
        <pt x="473" y="268" on="0"/>
        <pt x="363" y="268" on="1"/>
        <pt x="331" y="268" on="0"/>
        <pt x="276" y="297" on="0"/>
        <pt x="247" y="323" on="1"/>
        <pt x="222" y="346" on="0"/>
        <pt x="183" y="364" on="0"/>
        <pt x="163" y="364" on="1"/>
        <pt x="142" y="364" on="0"/>
        <pt x="107" y="326" on="0"/>
        <pt x="100" y="273" on="1"/>
        <pt x="49" y="281" on="1"/>
        <pt x="58" y="422" on="0"/>
        <pt x="168" y="422" on="1"/>
        <pt x="200" y="422" on="0"/>
        <pt x="255" y="393" on="0"/>
      </contour>
    </TTGlyph>
    <TTGlyph name="asterisk" xMin="20" yMin="364" xMax="420" yMax="747">
      <contour>
        <pt x="220" y="747" on="1"/>
        <pt x="235" y="747" on="0"/>
        <pt x="256" y="731" on="0"/>
        <pt x="256" y="711" on="1"/>
        <pt x="256" y="697" on="0"/>
        <pt x="246" y="641" on="0"/>
        <pt x="241" y="607" on="1"/>
        <pt x="234" y="560" on="1"/>
        <pt x="277" y="581" on="1"/>
        <pt x="315" y="600" on="0"/>
        <pt x="371" y="627" on="0"/>
        <pt x="387" y="627" on="1"/>
        <pt x="401" y="627" on="0"/>
        <pt x="420" y="607" on="0"/>
        <pt x="420" y="592" on="1"/>
        <pt x="420" y="578" on="0"/>
        <pt x="402" y="561" on="0"/>
        <pt x="369" y="551" on="0"/>
        <pt x="321" y="544" on="0"/>
        <pt x="291" y="540" on="1"/>
        <pt x="243" y="532" on="1"/>
        <pt x="277" y="497" on="1"/>
        <pt x="312" y="462" on="0"/>
        <pt x="358" y="417" on="0"/>
        <pt x="358" y="396" on="1"/>
        <pt x="358" y="381" on="0"/>
        <pt x="337" y="364" on="0"/>
        <pt x="324" y="364" on="1"/>
        <pt x="301" y="364" on="0"/>
        <pt x="267" y="423" on="0"/>
        <pt x="242" y="473" on="1"/>
        <pt x="220" y="515" on="1"/>
        <pt x="198" y="473" on="1"/>
        <pt x="172" y="423" on="0"/>
        <pt x="139" y="364" on="0"/>
        <pt x="115" y="364" on="1"/>
        <pt x="102" y="364" on="0"/>
        <pt x="81" y="381" on="0"/>
        <pt x="81" y="396" on="1"/>
        <pt x="81" y="417" on="0"/>
        <pt x="127" y="462" on="0"/>
        <pt x="162" y="497" on="1"/>
        <pt x="196" y="532" on="1"/>
        <pt x="149" y="540" on="1"/>
        <pt x="88" y="549" on="0"/>
        <pt x="20" y="565" on="0"/>
        <pt x="20" y="592" on="1"/>
        <pt x="20" y="607" on="0"/>
        <pt x="38" y="628" on="0"/>
        <pt x="53" y="628" on="1"/>
        <pt x="70" y="628" on="0"/>
        <pt x="124" y="600" on="0"/>
        <pt x="162" y="581" on="1"/>
        <pt x="205" y="560" on="1"/>
        <pt x="198" y="607" on="1"/>
        <pt x="193" y="641" on="0"/>
        <pt x="185" y="697" on="0"/>
        <pt x="185" y="711" on="1"/>
        <pt x="185" y="731" on="0"/>
        <pt x="204" y="747" on="0"/>
      </contour>
    </TTGlyph>
    <TTGlyph name="at" xMin="35" yMin="-157" xMax="805" yMax="648">
      <contour>
        <pt x="521" y="393" on="1"/>
        <pt x="507" y="410" on="0"/>
        <pt x="477" y="424" on="0"/>
        <pt x="460" y="424" on="1"/>
        <pt x="437" y="424" on="0"/>
        <pt x="382" y="396" on="0"/>
        <pt x="358" y="364" on="1"/>
        <pt x="335" y="333" on="0"/>
        <pt x="303" y="252" on="0"/>
        <pt x="303" y="198" on="1"/>
        <pt x="303" y="102" on="0"/>
        <pt x="373" y="102" on="1"/>
        <pt x="394" y="102" on="0"/>
        <pt x="439" y="124" on="0"/>
        <pt x="474" y="153" on="1"/>
        <pt x="475" y="157" on="0"/>
        <pt x="476" y="165" on="0"/>
        <pt x="477" y="170" on="1"/>
      </contour>
      <contour>
        <pt x="545" y="168" on="1"/>
        <pt x="537" y="131" on="0"/>
        <pt x="566" y="90" on="0"/>
        <pt x="599" y="90" on="1"/>
        <pt x="625" y="90" on="0"/>
        <pt x="677" y="117" on="0"/>
        <pt x="718" y="175" on="0"/>
        <pt x="744" y="267" on="0"/>
        <pt x="744" y="332" on="1"/>
        <pt x="744" y="398" on="0"/>
        <pt x="702" y="500" on="0"/>
        <pt x="629" y="570" on="0"/>
        <pt x="528" y="606" on="0"/>
        <pt x="470" y="606" on="1"/>
        <pt x="388" y="606" on="0"/>
        <pt x="251" y="541" on="0"/>
        <pt x="152" y="432" on="0"/>
        <pt x="97" y="289" on="0"/>
        <pt x="97" y="211" on="1"/>
        <pt x="97" y="130" on="0"/>
        <pt x="149" y="7" on="0"/>
        <pt x="237" y="-75" on="0"/>
        <pt x="355" y="-116" on="0"/>
        <pt x="420" y="-116" on="1"/>
        <pt x="468" y="-116" on="0"/>
        <pt x="543" y="-100" on="0"/>
        <pt x="576" y="-84" on="1"/>
        <pt x="589" y="-114" on="1"/>
        <pt x="544" y="-137" on="0"/>
        <pt x="444" y="-157" on="0"/>
        <pt x="399" y="-157" on="1"/>
        <pt x="322" y="-157" on="0"/>
        <pt x="190" y="-111" on="0"/>
        <pt x="91" y="-21" on="0"/>
        <pt x="35" y="114" on="0"/>
        <pt x="35" y="204" on="1"/>
        <pt x="35" y="298" on="0"/>
        <pt x="103" y="460" on="0"/>
        <pt x="222" y="580" on="0"/>
        <pt x="383" y="648" on="0"/>
        <pt x="477" y="648" on="1"/>
        <pt x="554" y="648" on="0"/>
        <pt x="676" y="600" on="0"/>
        <pt x="760" y="515" on="0"/>
        <pt x="805" y="396" on="0"/>
        <pt x="805" y="324" on="1"/>
        <pt x="805" y="251" on="0"/>
        <pt x="762" y="144" on="0"/>
        <pt x="694" y="75" on="0"/>
        <pt x="613" y="42" on="0"/>
        <pt x="575" y="42" on="1"/>
        <pt x="532" y="42" on="0"/>
        <pt x="480" y="83" on="0"/>
        <pt x="475" y="119" on="1"/>
        <pt x="444" y="85" on="0"/>
        <pt x="379" y="42" on="0"/>
        <pt x="341" y="42" on="1"/>
        <pt x="320" y="42" on="0"/>
        <pt x="281" y="57" on="0"/>
        <pt x="251" y="90" on="0"/>
        <pt x="233" y="142" on="0"/>
        <pt x="233" y="179" on="1"/>
        <pt x="233" y="239" on="0"/>
        <pt x="282" y="346" on="0"/>
        <pt x="317" y="387" on="1"/>
        <pt x="350" y="427" on="0"/>
        <pt x="427" y="471" on="0"/>
        <pt x="468" y="471" on="1"/>
        <pt x="505" y="471" on="0"/>
        <pt x="536" y="446" on="1"/>
        <pt x="584" y="470" on="1"/>
        <pt x="603" y="454" on="1"/>
      </contour>
    </TTGlyph>
    <TTGlyph name="at.cap" xMin="35" yMin="-83" xMax="805" yMax="722">
      <contour>
        <pt x="521" y="467" on="1"/>
        <pt x="507" y="484" on="0"/>
        <pt x="477" y="498" on="0"/>
        <pt x="460" y="498" on="1"/>
        <pt x="437" y="498" on="0"/>
        <pt x="382" y="470" on="0"/>
        <pt x="358" y="438" on="1"/>
        <pt x="335" y="407" on="0"/>
        <pt x="303" y="326" on="0"/>
        <pt x="303" y="272" on="1"/>
        <pt x="303" y="176" on="0"/>
        <pt x="373" y="176" on="1"/>
        <pt x="394" y="176" on="0"/>
        <pt x="439" y="198" on="0"/>
        <pt x="474" y="227" on="1"/>
        <pt x="475" y="231" on="0"/>
        <pt x="476" y="239" on="0"/>
        <pt x="477" y="244" on="1"/>
      </contour>
      <contour>
        <pt x="545" y="242" on="1"/>
        <pt x="537" y="205" on="0"/>
        <pt x="566" y="164" on="0"/>
        <pt x="599" y="164" on="1"/>
        <pt x="625" y="164" on="0"/>
        <pt x="677" y="191" on="0"/>
        <pt x="718" y="249" on="0"/>
        <pt x="744" y="341" on="0"/>
        <pt x="744" y="406" on="1"/>
        <pt x="744" y="472" on="0"/>
        <pt x="702" y="574" on="0"/>
        <pt x="629" y="644" on="0"/>
        <pt x="528" y="680" on="0"/>
        <pt x="470" y="680" on="1"/>
        <pt x="388" y="680" on="0"/>
        <pt x="251" y="615" on="0"/>
        <pt x="152" y="506" on="0"/>
        <pt x="97" y="363" on="0"/>
        <pt x="97" y="285" on="1"/>
        <pt x="97" y="204" on="0"/>
        <pt x="149" y="81" on="0"/>
        <pt x="237" y="-1" on="0"/>
        <pt x="355" y="-42" on="0"/>
        <pt x="420" y="-42" on="1"/>
        <pt x="468" y="-42" on="0"/>
        <pt x="543" y="-26" on="0"/>
        <pt x="576" y="-10" on="1"/>
        <pt x="589" y="-40" on="1"/>
        <pt x="544" y="-63" on="0"/>
        <pt x="444" y="-83" on="0"/>
        <pt x="399" y="-83" on="1"/>
        <pt x="322" y="-83" on="0"/>
        <pt x="190" y="-37" on="0"/>
        <pt x="91" y="53" on="0"/>
        <pt x="35" y="188" on="0"/>
        <pt x="35" y="278" on="1"/>
        <pt x="35" y="372" on="0"/>
        <pt x="103" y="534" on="0"/>
        <pt x="222" y="654" on="0"/>
        <pt x="383" y="722" on="0"/>
        <pt x="477" y="722" on="1"/>
        <pt x="554" y="722" on="0"/>
        <pt x="676" y="674" on="0"/>
        <pt x="760" y="589" on="0"/>
        <pt x="805" y="470" on="0"/>
        <pt x="805" y="398" on="1"/>
        <pt x="805" y="325" on="0"/>
        <pt x="762" y="218" on="0"/>
        <pt x="694" y="149" on="0"/>
        <pt x="613" y="116" on="0"/>
        <pt x="575" y="116" on="1"/>
        <pt x="532" y="116" on="0"/>
        <pt x="480" y="157" on="0"/>
        <pt x="475" y="193" on="1"/>
        <pt x="444" y="159" on="0"/>
        <pt x="379" y="116" on="0"/>
        <pt x="341" y="116" on="1"/>
        <pt x="320" y="116" on="0"/>
        <pt x="281" y="131" on="0"/>
        <pt x="251" y="164" on="0"/>
        <pt x="233" y="216" on="0"/>
        <pt x="233" y="253" on="1"/>
        <pt x="233" y="313" on="0"/>
        <pt x="282" y="420" on="0"/>
        <pt x="317" y="461" on="1"/>
        <pt x="350" y="501" on="0"/>
        <pt x="427" y="545" on="0"/>
        <pt x="468" y="545" on="1"/>
        <pt x="505" y="545" on="0"/>
        <pt x="536" y="520" on="1"/>
        <pt x="584" y="544" on="1"/>
        <pt x="603" y="528" on="1"/>
      </contour>
    </TTGlyph>
    <TTGlyph name="atilde" xMin="46" yMin="-15" xMax="504" yMax="718">
      <component glyphName="a" x="0" y="0" flags="0x204"/>
      <component glyphName="uni0303" x="243" y="0" flags="0x4"/>
    </TTGlyph>
    <TTGlyph name="b" xMin="25" yMin="-15" xMax="532" yMax="729">
      <contour>
        <pt x="191" y="98" on="1"/>
        <pt x="222" y="69" on="0"/>
        <pt x="282" y="42" on="0"/>
        <pt x="310" y="42" on="1"/>
        <pt x="337" y="42" on="0"/>
        <pt x="385" y="66" on="0"/>
        <pt x="421" y="114" on="0"/>
        <pt x="442" y="186" on="0"/>
        <pt x="442" y="234" on="1"/>
        <pt x="442" y="331" on="0"/>
        <pt x="372" y="434" on="0"/>
        <pt x="315" y="434" on="1"/>
        <pt x="292" y="434" on="0"/>
        <pt x="232" y="410" on="0"/>
        <pt x="191" y="376" on="1"/>
      </contour>
      <contour>
        <pt x="188" y="414" on="1"/>
        <pt x="223" y="454" on="0"/>
        <pt x="300" y="491" on="0"/>
        <pt x="342" y="491" on="1"/>
        <pt x="382" y="491" on="0"/>
        <pt x="451" y="457" on="0"/>
        <pt x="502" y="392" on="0"/>
        <pt x="532" y="300" on="0"/>
        <pt x="532" y="242" on="1"/>
        <pt x="532" y="184" on="0"/>
        <pt x="501" y="89" on="0"/>
        <pt x="446" y="22" on="0"/>
        <pt x="371" y="-15" on="0"/>
        <pt x="327" y="-15" on="1"/>
        <pt x="292" y="-15" on="0"/>
        <pt x="226" y="13" on="0"/>
        <pt x="195" y="48" on="1"/>
        <pt x="187" y="48" on="1"/>
        <pt x="181" y="-10" on="1"/>
        <pt x="30" y="0" on="1"/>
        <pt x="30" y="36" on="1"/>
        <pt x="105" y="50" on="1"/>
        <pt x="106" y="88" on="0"/>
        <pt x="107" y="177" on="0"/>
        <pt x="107" y="210" on="1"/>
        <pt x="107" y="639" on="1"/>
        <pt x="25" y="649" on="1"/>
        <pt x="25" y="684" on="1"/>
        <pt x="178" y="729" on="1"/>
        <pt x="192" y="721" on="1"/>
        <pt x="188" y="579" on="1"/>
      </contour>
    </TTGlyph>
    <TTGlyph name="b.sups" xMin="16" yMin="415" xMax="367" yMax="898">
      <contour>
        <pt x="136" y="496" on="1"/>
        <pt x="156" y="479" on="0"/>
        <pt x="195" y="461" on="0"/>
        <pt x="217" y="461" on="1"/>
        <pt x="234" y="461" on="0"/>
        <pt x="263" y="473" on="0"/>
        <pt x="285" y="500" on="0"/>
        <pt x="298" y="546" on="0"/>
        <pt x="298" y="581" on="1"/>
        <pt x="298" y="617" on="0"/>
        <pt x="286" y="664" on="0"/>
        <pt x="266" y="692" on="0"/>
        <pt x="238" y="704" on="0"/>
        <pt x="222" y="704" on="1"/>
        <pt x="181" y="704" on="0"/>
        <pt x="136" y="668" on="1"/>
      </contour>
      <contour>
        <pt x="136" y="703" on="1"/>
        <pt x="182" y="749" on="0"/>
        <pt x="238" y="749" on="1"/>
        <pt x="263" y="749" on="0"/>
        <pt x="310" y="729" on="0"/>
        <pt x="346" y="689" on="0"/>
        <pt x="367" y="627" on="0"/>
        <pt x="367" y="584" on="1"/>
        <pt x="367" y="542" on="0"/>
        <pt x="345" y="479" on="0"/>
        <pt x="307" y="437" on="0"/>
        <pt x="256" y="415" on="0"/>
        <pt x="228" y="415" on="1"/>
        <pt x="174" y="415" on="0"/>
        <pt x="133" y="459" on="1"/>
        <pt x="129" y="416" on="1"/>
        <pt x="21" y="425" on="1"/>
        <pt x="21" y="453" on="1"/>
        <pt x="69" y="462" on="1"/>
        <pt x="69" y="834" on="1"/>
        <pt x="16" y="840" on="1"/>
        <pt x="16" y="868" on="1"/>
        <pt x="125" y="898" on="1"/>
        <pt x="136" y="893" on="1"/>
      </contour>
    </TTGlyph>
    <TTGlyph name="backslash" xMin="2" yMin="-160" xMax="328" yMax="710">
      <contour>
        <pt x="328" y="-160" on="1"/>
        <pt x="269" y="-160" on="1"/>
        <pt x="2" y="710" on="1"/>
        <pt x="61" y="710" on="1"/>
      </contour>
    </TTGlyph>
    <TTGlyph name="bar" xMin="97" yMin="-250" xMax="155" yMax="750">
      <contour>
        <pt x="97" y="750" on="1"/>
        <pt x="155" y="750" on="1"/>
        <pt x="155" y="-250" on="1"/>
        <pt x="97" y="-250" on="1"/>
      </contour>
    </TTGlyph>
    <TTGlyph name="braceleft" xMin="40" yMin="-159" xMax="314" yMax="715">
      <contour>
        <pt x="287" y="672" on="1"/>
        <pt x="261" y="669" on="0"/>
        <pt x="227" y="659" on="0"/>
        <pt x="208" y="641" on="0"/>
        <pt x="200" y="612" on="0"/>
        <pt x="200" y="590" on="1"/>
        <pt x="200" y="532" on="0"/>
        <pt x="212" y="432" on="0"/>
        <pt x="212" y="401" on="1"/>
        <pt x="212" y="353" on="0"/>
        <pt x="169" y="289" on="0"/>
        <pt x="121" y="278" on="1"/>
        <pt x="169" y="267" on="0"/>
        <pt x="212" y="203" on="0"/>
        <pt x="212" y="155" on="1"/>
        <pt x="212" y="124" on="0"/>
        <pt x="200" y="24" on="0"/>
        <pt x="200" y="-34" on="1"/>
        <pt x="200" y="-56" on="0"/>
        <pt x="208" y="-85" on="0"/>
        <pt x="227" y="-103" on="0"/>
        <pt x="261" y="-113" on="0"/>
        <pt x="287" y="-116" on="1"/>
        <pt x="314" y="-119" on="1"/>
        <pt x="314" y="-159" on="1"/>
        <pt x="269" y="-159" on="1"/>
        <pt x="197" y="-159" on="0"/>
        <pt x="117" y="-97" on="0"/>
        <pt x="117" y="-37" on="1"/>
        <pt x="117" y="-6" on="0"/>
        <pt x="130" y="50" on="0"/>
        <pt x="146" y="100" on="0"/>
        <pt x="159" y="146" on="0"/>
        <pt x="159" y="166" on="1"/>
        <pt x="159" y="204" on="0"/>
        <pt x="103" y="250" on="0"/>
        <pt x="40" y="258" on="1"/>
        <pt x="40" y="298" on="1"/>
        <pt x="103" y="306" on="0"/>
        <pt x="159" y="352" on="0"/>
        <pt x="159" y="390" on="1"/>
        <pt x="159" y="410" on="0"/>
        <pt x="146" y="456" on="0"/>
        <pt x="130" y="506" on="0"/>
        <pt x="117" y="562" on="0"/>
        <pt x="117" y="593" on="1"/>
        <pt x="117" y="653" on="0"/>
        <pt x="197" y="715" on="0"/>
        <pt x="269" y="715" on="1"/>
        <pt x="314" y="715" on="1"/>
        <pt x="314" y="675" on="1"/>
      </contour>
    </TTGlyph>
    <TTGlyph name="braceleft.cap" xMin="40" yMin="-124" xMax="314" yMax="750">
      <component glyphName="braceleft" x="0" y="35" flags="0x204"/>
    </TTGlyph>
    <TTGlyph name="braceright" xMin="30" yMin="-159" xMax="304" yMax="715">
      <contour>
        <pt x="304" y="258" on="1"/>
        <pt x="241" y="250" on="0"/>
        <pt x="185" y="204" on="0"/>
        <pt x="185" y="166" on="1"/>
        <pt x="185" y="146" on="0"/>
        <pt x="198" y="100" on="0"/>
        <pt x="214" y="50" on="0"/>
        <pt x="227" y="-6" on="0"/>
        <pt x="227" y="-37" on="1"/>
        <pt x="227" y="-97" on="0"/>
        <pt x="147" y="-159" on="0"/>
        <pt x="75" y="-159" on="1"/>
        <pt x="30" y="-159" on="1"/>
        <pt x="30" y="-119" on="1"/>
        <pt x="57" y="-116" on="1"/>
        <pt x="83" y="-113" on="0"/>
        <pt x="117" y="-103" on="0"/>
        <pt x="136" y="-85" on="0"/>
        <pt x="144" y="-56" on="0"/>
        <pt x="144" y="-34" on="1"/>
        <pt x="144" y="24" on="0"/>
        <pt x="132" y="124" on="0"/>
        <pt x="132" y="155" on="1"/>
        <pt x="132" y="203" on="0"/>
        <pt x="175" y="267" on="0"/>
        <pt x="223" y="278" on="1"/>
        <pt x="175" y="289" on="0"/>
        <pt x="132" y="353" on="0"/>
        <pt x="132" y="401" on="1"/>
        <pt x="132" y="432" on="0"/>
        <pt x="144" y="532" on="0"/>
        <pt x="144" y="590" on="1"/>
        <pt x="144" y="612" on="0"/>
        <pt x="136" y="641" on="0"/>
        <pt x="117" y="659" on="0"/>
        <pt x="83" y="669" on="0"/>
        <pt x="57" y="672" on="1"/>
        <pt x="30" y="675" on="1"/>
        <pt x="30" y="715" on="1"/>
        <pt x="75" y="715" on="1"/>
        <pt x="147" y="715" on="0"/>
        <pt x="227" y="653" on="0"/>
        <pt x="227" y="593" on="1"/>
        <pt x="227" y="562" on="0"/>
        <pt x="214" y="506" on="0"/>
        <pt x="198" y="456" on="0"/>
        <pt x="185" y="410" on="0"/>
        <pt x="185" y="390" on="1"/>
        <pt x="185" y="352" on="0"/>
        <pt x="241" y="306" on="0"/>
        <pt x="304" y="298" on="1"/>
      </contour>
    </TTGlyph>
    <TTGlyph name="braceright.cap" xMin="30" yMin="-124" xMax="304" yMax="750">
      <component glyphName="braceright" x="0" y="35" flags="0x204"/>
    </TTGlyph>
    <TTGlyph name="bracketleft" xMin="100" yMin="-159" xMax="290" yMax="715">
      <contour>
        <pt x="179" y="661" on="1"/>
        <pt x="177" y="596" on="0"/>
        <pt x="177" y="465" on="0"/>
        <pt x="177" y="398" on="1"/>
        <pt x="177" y="158" on="1"/>
        <pt x="177" y="92" on="0"/>
        <pt x="177" y="-39" on="0"/>
        <pt x="179" y="-105" on="1"/>
        <pt x="290" y="-118" on="1"/>
        <pt x="290" y="-159" on="1"/>
        <pt x="100" y="-159" on="1"/>
        <pt x="102" y="-81" on="0"/>
        <pt x="103" y="77" on="0"/>
        <pt x="103" y="158" on="1"/>
        <pt x="103" y="398" on="1"/>
        <pt x="103" y="477" on="0"/>
        <pt x="102" y="636" on="0"/>
        <pt x="100" y="715" on="1"/>
        <pt x="290" y="715" on="1"/>
        <pt x="290" y="674" on="1"/>
      </contour>
    </TTGlyph>
    <TTGlyph name="bracketleft.cap" xMin="100" yMin="-124" xMax="290" yMax="750">
      <component glyphName="bracketleft" x="0" y="35" flags="0x204"/>
    </TTGlyph>
    <TTGlyph name="bracketright" xMin="30" yMin="-159" xMax="220" yMax="715">
      <contour>
        <pt x="217" y="158" on="1"/>
        <pt x="217" y="79" on="0"/>
        <pt x="218" y="-80" on="0"/>
        <pt x="220" y="-159" on="1"/>
        <pt x="30" y="-159" on="1"/>
        <pt x="30" y="-118" on="1"/>
        <pt x="141" y="-105" on="1"/>
        <pt x="143" y="-40" on="0"/>
        <pt x="143" y="91" on="0"/>
        <pt x="143" y="158" on="1"/>
        <pt x="143" y="398" on="1"/>
        <pt x="143" y="464" on="0"/>
        <pt x="143" y="595" on="0"/>
        <pt x="141" y="661" on="1"/>
        <pt x="30" y="674" on="1"/>
        <pt x="30" y="715" on="1"/>
        <pt x="220" y="715" on="1"/>
        <pt x="218" y="637" on="0"/>
        <pt x="217" y="479" on="0"/>
        <pt x="217" y="398" on="1"/>
      </contour>
    </TTGlyph>
    <TTGlyph name="bracketright.cap" xMin="30" yMin="-124" xMax="220" yMax="750">
      <component glyphName="bracketright" x="0" y="35" flags="0x204"/>
    </TTGlyph>
    <TTGlyph name="breve" xMin="49" yMin="575" xMax="351" yMax="735">
      <component glyphName="uni0306" x="200" y="0" flags="0x4"/>
    </TTGlyph>
    <TTGlyph name="brevecmb.cap" xMin="-144" yMin="731" xMax="144" yMax="870">
      <contour>
        <pt x="0" y="731" on="1"/>
        <pt x="-35" y="731" on="0"/>
        <pt x="-86" y="754" on="0"/>
        <pt x="-121" y="791" on="0"/>
        <pt x="-141" y="837" on="0"/>
        <pt x="-144" y="859" on="1"/>
        <pt x="-113" y="870" on="1"/>
        <pt x="-100" y="835" on="0"/>
        <pt x="-45" y="791" on="0"/>
        <pt x="0" y="791" on="1"/>
        <pt x="45" y="791" on="0"/>
        <pt x="103" y="835" on="0"/>
        <pt x="114" y="869" on="1"/>
        <pt x="144" y="859" on="1"/>
        <pt x="141" y="837" on="0"/>
        <pt x="121" y="791" on="0"/>
        <pt x="86" y="754" on="0"/>
        <pt x="34" y="731" on="0"/>
      </contour>
    </TTGlyph>
    <TTGlyph name="brokenbar" xMin="97" yMin="-250" xMax="155" yMax="750">
      <contour>
        <pt x="97" y="200" on="1"/>
        <pt x="155" y="200" on="1"/>
        <pt x="155" y="-250" on="1"/>
        <pt x="97" y="-250" on="1"/>
      </contour>
      <contour>
        <pt x="97" y="320" on="1"/>
        <pt x="97" y="750" on="1"/>
        <pt x="155" y="750" on="1"/>
        <pt x="155" y="320" on="1"/>
      </contour>
    </TTGlyph>
    <TTGlyph name="bullet" xMin="41" yMin="215" xMax="264" yMax="445">
      <contour>
        <pt x="153" y="215" on="1"/>
        <pt x="130" y="215" on="0"/>
        <pt x="90" y="232" on="0"/>
        <pt x="59" y="262" on="0"/>
        <pt x="41" y="304" on="0"/>
        <pt x="41" y="330" on="1"/>
        <pt x="41" y="355" on="0"/>
        <pt x="59" y="398" on="0"/>
        <pt x="90" y="428" on="0"/>
        <pt x="130" y="445" on="0"/>
        <pt x="153" y="445" on="1"/>
        <pt x="175" y="445" on="0"/>
        <pt x="215" y="428" on="0"/>
        <pt x="246" y="398" on="0"/>
        <pt x="264" y="355" on="0"/>
        <pt x="264" y="330" on="1"/>
        <pt x="264" y="304" on="0"/>
        <pt x="246" y="262" on="0"/>
        <pt x="215" y="232" on="0"/>
        <pt x="175" y="215" on="0"/>
      </contour>
    </TTGlyph>
    <TTGlyph name="c" xMin="47" yMin="-15" xMax="458" yMax="491">
      <contour>
        <pt x="458" y="114" on="1"/>
        <pt x="438" y="51" on="0"/>
        <pt x="343" y="-15" on="0"/>
        <pt x="271" y="-15" on="1"/>
        <pt x="220" y="-15" on="0"/>
        <pt x="137" y="20" on="0"/>
        <pt x="78" y="86" on="0"/>
        <pt x="47" y="179" on="0"/>
        <pt x="47" y="236" on="1"/>
        <pt x="47" y="295" on="0"/>
        <pt x="85" y="390" on="0"/>
        <pt x="150" y="456" on="0"/>
        <pt x="233" y="491" on="0"/>
        <pt x="278" y="491" on="1"/>
        <pt x="312" y="491" on="0"/>
        <pt x="373" y="471" on="0"/>
        <pt x="420" y="436" on="0"/>
        <pt x="450" y="389" on="0"/>
        <pt x="455" y="361" on="1"/>
        <pt x="448" y="323" on="0"/>
        <pt x="409" y="323" on="1"/>
        <pt x="384" y="323" on="0"/>
        <pt x="360" y="350" on="0"/>
        <pt x="355" y="371" on="1"/>
        <pt x="337" y="437" on="1"/>
        <pt x="323" y="442" on="0"/>
        <pt x="295" y="445" on="0"/>
        <pt x="283" y="445" on="1"/>
        <pt x="218" y="445" on="0"/>
        <pt x="135" y="343" on="0"/>
        <pt x="135" y="246" on="1"/>
        <pt x="135" y="150" on="0"/>
        <pt x="224" y="49" on="0"/>
        <pt x="295" y="49" on="1"/>
        <pt x="338" y="49" on="0"/>
        <pt x="410" y="89" on="0"/>
        <pt x="433" y="127" on="1"/>
      </contour>
    </TTGlyph>
    <TTGlyph name="c.sups" xMin="30" yMin="415" xMax="316" yMax="749">
      <contour>
        <pt x="316" y="505" on="1"/>
        <pt x="302" y="463" on="0"/>
        <pt x="235" y="415" on="0"/>
        <pt x="184" y="415" on="1"/>
        <pt x="114" y="415" on="0"/>
        <pt x="30" y="503" on="0"/>
        <pt x="30" y="581" on="1"/>
        <pt x="30" y="620" on="0"/>
        <pt x="57" y="683" on="0"/>
        <pt x="102" y="726" on="0"/>
        <pt x="161" y="749" on="0"/>
        <pt x="193" y="749" on="1"/>
        <pt x="241" y="749" on="0"/>
        <pt x="309" y="697" on="0"/>
        <pt x="314" y="659" on="1"/>
        <pt x="309" y="629" on="0"/>
        <pt x="281" y="629" on="1"/>
        <pt x="264" y="629" on="0"/>
        <pt x="242" y="653" on="0"/>
        <pt x="236" y="682" on="1"/>
        <pt x="232" y="710" on="1"/>
        <pt x="217" y="714" on="0"/>
        <pt x="197" y="714" on="1"/>
        <pt x="155" y="714" on="0"/>
        <pt x="98" y="653" on="0"/>
        <pt x="98" y="590" on="1"/>
        <pt x="98" y="527" on="0"/>
        <pt x="158" y="466" on="0"/>
        <pt x="204" y="466" on="1"/>
        <pt x="238" y="466" on="0"/>
        <pt x="282" y="491" on="0"/>
        <pt x="298" y="516" on="1"/>
      </contour>
    </TTGlyph>
    <TTGlyph name="cacute" xMin="47" yMin="-15" xMax="458" yMax="757">
      <component glyphName="c" x="0" y="0" flags="0x204"/>
      <component glyphName="uni0301" x="295" y="0" flags="0x4"/>
    </TTGlyph>
    <TTGlyph name="caron" xMin="61" yMin="571" xMax="339" yMax="739">
      <component glyphName="uni030C" x="200" y="0" flags="0x4"/>
    </TTGlyph>
    <TTGlyph name="caron.alt" xMin="-17" yMin="518" xMax="68" yMax="740">
      <contour>
        <pt x="32" y="740" on="1"/>
        <pt x="52" y="740" on="0"/>
        <pt x="68" y="720" on="0"/>
        <pt x="68" y="703" on="1"/>
        <pt x="68" y="681" on="0"/>
        <pt x="47" y="609" on="0"/>
        <pt x="35" y="574" on="1"/>
        <pt x="15" y="518" on="1"/>
        <pt x="-17" y="518" on="1"/>
        <pt x="-14" y="727" on="1"/>
        <pt x="9" y="740" on="0"/>
      </contour>
    </TTGlyph>
    <TTGlyph name="caroncmb.cap" xMin="-138" yMin="728" xMax="138" yMax="867">
      <contour>
        <pt x="138" y="846" on="1"/>
        <pt x="37" y="728" on="1"/>
        <pt x="-37" y="728" on="1"/>
        <pt x="-138" y="846" on="1"/>
        <pt x="-114" y="867" on="1"/>
        <pt x="0" y="782" on="1"/>
        <pt x="114" y="867" on="1"/>
      </contour>
    </TTGlyph>
    <TTGlyph name="ccaron" xMin="47" yMin="-15" xMax="458" yMax="739">
      <component glyphName="c" x="0" y="0" flags="0x204"/>
      <component glyphName="uni030C" x="284" y="0" flags="0x4"/>
    </TTGlyph>
    <TTGlyph name="ccedilla" xMin="47" yMin="-221" xMax="458" yMax="491">
      <component glyphName="c" x="0" y="0" flags="0x204"/>
      <component glyphName="uni0327" x="263" y="0" flags="0x4"/>
    </TTGlyph>
    <TTGlyph name="cedilla" xMin="105" yMin="-221" xMax="280" yMax="3">
      <component glyphName="uni0327" x="172" y="0" flags="0x4"/>
    </TTGlyph>
    <TTGlyph name="cent" xMin="44" yMin="-45" xMax="456" yMax="660">
      <contour>
        <pt x="248" y="520" on="1"/>
        <pt x="197" y="508" on="0"/>
        <pt x="132" y="408" on="0"/>
        <pt x="132" y="323" on="1"/>
        <pt x="132" y="241" on="0"/>
        <pt x="195" y="143" on="0"/>
        <pt x="248" y="131" on="1"/>
      </contour>
      <contour>
        <pt x="456" y="192" on="1"/>
        <pt x="437" y="135" on="0"/>
        <pt x="354" y="68" on="0"/>
        <pt x="289" y="63" on="1"/>
        <pt x="289" y="-45" on="1"/>
        <pt x="248" y="-45" on="1"/>
        <pt x="248" y="63" on="1"/>
        <pt x="201" y="66" on="0"/>
        <pt x="126" y="104" on="0"/>
        <pt x="73" y="169" on="0"/>
        <pt x="44" y="259" on="0"/>
        <pt x="44" y="314" on="1"/>
        <pt x="44" y="368" on="0"/>
        <pt x="77" y="456" on="0"/>
        <pt x="133" y="521" on="0"/>
        <pt x="207" y="561" on="0"/>
        <pt x="248" y="566" on="1"/>
        <pt x="248" y="660" on="1"/>
        <pt x="289" y="660" on="1"/>
        <pt x="289" y="568" on="1"/>
        <pt x="321" y="566" on="0"/>
        <pt x="377" y="545" on="0"/>
        <pt x="421" y="511" on="0"/>
        <pt x="450" y="465" on="0"/>
        <pt x="454" y="438" on="1"/>
        <pt x="445" y="400" on="0"/>
        <pt x="406" y="400" on="1"/>
        <pt x="382" y="400" on="0"/>
        <pt x="352" y="435" on="0"/>
        <pt x="343" y="476" on="1"/>
        <pt x="334" y="515" on="1"/>
        <pt x="309" y="522" on="0"/>
        <pt x="289" y="523" on="1"/>
        <pt x="289" y="127" on="1"/>
        <pt x="333" y="129" on="0"/>
        <pt x="408" y="168" on="0"/>
        <pt x="431" y="204" on="1"/>
      </contour>
    </TTGlyph>
    <TTGlyph name="circumflex" xMin="51" yMin="556" xMax="349" yMax="753">
      <component glyphName="uni0302" x="200" y="0" flags="0x4"/>
    </TTGlyph>
    <TTGlyph name="circumflexcmb.cap" xMin="-138" yMin="727" xMax="138" yMax="867">
      <contour>
        <pt x="119" y="727" on="1"/>
        <pt x="0" y="799" on="1"/>
        <pt x="-119" y="727" on="1"/>
        <pt x="-138" y="752" on="1"/>
        <pt x="-17" y="867" on="1"/>
        <pt x="17" y="867" on="1"/>
        <pt x="138" y="752" on="1"/>
      </contour>
    </TTGlyph>
    <TTGlyph name="colon" xMin="79" yMin="-15" xMax="221" yMax="490">
      <component glyphName="period" x="0" y="362" flags="0x204"/>
      <component glyphName="period" x="0" y="0" flags="0x4"/>
    </TTGlyph>
    <TTGlyph name="colon.sups" xMin="67" yMin="416" xMax="164" yMax="733">
      <contour>
        <pt x="115" y="630" on="1"/>
        <pt x="95" y="630" on="0"/>
        <pt x="67" y="660" on="0"/>
        <pt x="67" y="682" on="1"/>
        <pt x="67" y="703" on="0"/>
        <pt x="95" y="733" on="0"/>
        <pt x="115" y="733" on="1"/>
        <pt x="136" y="733" on="0"/>
        <pt x="164" y="703" on="0"/>
        <pt x="164" y="682" on="1"/>
        <pt x="164" y="660" on="0"/>
        <pt x="136" y="630" on="0"/>
      </contour>
      <contour>
        <pt x="115" y="416" on="1"/>
        <pt x="95" y="416" on="0"/>
        <pt x="67" y="446" on="0"/>
        <pt x="67" y="467" on="1"/>
        <pt x="67" y="487" on="0"/>
        <pt x="95" y="518" on="0"/>
        <pt x="115" y="518" on="1"/>
        <pt x="136" y="518" on="0"/>
        <pt x="164" y="487" on="0"/>
        <pt x="164" y="467" on="1"/>
        <pt x="164" y="446" on="0"/>
        <pt x="136" y="416" on="0"/>
      </contour>
    </TTGlyph>
    <TTGlyph name="comma" xMin="6" yMin="-225" xMax="214" yMax="128">
      <contour>
        <pt x="116" y="-8" on="1"/>
        <pt x="96" y="9" on="0"/>
        <pt x="78" y="46" on="0"/>
        <pt x="78" y="65" on="1"/>
        <pt x="78" y="91" on="0"/>
        <pt x="109" y="128" on="0"/>
        <pt x="140" y="128" on="1"/>
        <pt x="154" y="128" on="0"/>
        <pt x="184" y="116" on="0"/>
        <pt x="203" y="99" on="1"/>
        <pt x="208" y="80" on="0"/>
        <pt x="214" y="45" on="0"/>
        <pt x="214" y="26" on="1"/>
        <pt x="214" y="-19" on="0"/>
        <pt x="180" y="-99" on="0"/>
        <pt x="126" y="-164" on="0"/>
        <pt x="56" y="-212" on="0"/>
        <pt x="20" y="-225" on="1"/>
        <pt x="6" y="-192" on="1"/>
        <pt x="58" y="-166" on="0"/>
        <pt x="135" y="-93" on="0"/>
        <pt x="153" y="-36" on="1"/>
      </contour>
    </TTGlyph>
    <TTGlyph name="comma.dnom" xMin="35" yMin="-121" xMax="163" yMax="94">
      <component glyphName="comma.sups" x="0" y="-424" flags="0x204"/>
    </TTGlyph>
    <TTGlyph name="comma.numr" xMin="35" yMin="133" xMax="163" yMax="348">
      <component glyphName="comma.sups" x="0" y="-170" flags="0x204"/>
    </TTGlyph>
    <TTGlyph name="comma.subs" xMin="35" yMin="-334" xMax="163" yMax="-119">
      <component glyphName="comma.sups" x="0" y="-637" flags="0x204"/>
    </TTGlyph>
    <TTGlyph name="comma.sups" xMin="35" yMin="303" xMax="163" yMax="518">
      <contour>
        <pt x="97" y="418" on="1"/>
        <pt x="70" y="438" on="0"/>
        <pt x="70" y="469" on="1"/>
        <pt x="70" y="489" on="0"/>
        <pt x="93" y="518" on="0"/>
        <pt x="115" y="518" on="1"/>
        <pt x="124" y="518" on="0"/>
        <pt x="144" y="511" on="0"/>
        <pt x="155" y="500" on="1"/>
        <pt x="159" y="486" on="0"/>
        <pt x="163" y="461" on="0"/>
        <pt x="163" y="448" on="1"/>
        <pt x="163" y="419" on="0"/>
        <pt x="142" y="371" on="0"/>
        <pt x="108" y="334" on="0"/>
        <pt x="65" y="309" on="0"/>
        <pt x="43" y="303" on="1"/>
        <pt x="35" y="331" on="1"/>
        <pt x="61" y="339" on="0"/>
        <pt x="109" y="373" on="0"/>
        <pt x="120" y="402" on="1"/>
      </contour>
    </TTGlyph>
    <TTGlyph name="commabelowcmb.alt" xMin="-62" yMin="571" xMax="82" yMax="772">
      <contour>
        <pt x="82" y="743" on="1"/>
        <pt x="52" y="732" on="0"/>
        <pt x="9" y="702" on="0"/>
        <pt x="-8" y="677" on="1"/>
        <pt x="12" y="668" on="0"/>
        <pt x="39" y="637" on="0"/>
        <pt x="39" y="617" on="1"/>
        <pt x="39" y="597" on="0"/>
        <pt x="11" y="571" on="0"/>
        <pt x="-9" y="571" on="1"/>
        <pt x="-20" y="571" on="0"/>
        <pt x="-42" y="580" on="0"/>
        <pt x="-53" y="591" on="1"/>
        <pt x="-58" y="607" on="0"/>
        <pt x="-62" y="627" on="0"/>
        <pt x="-62" y="637" on="1"/>
        <pt x="-62" y="664" on="0"/>
        <pt x="-40" y="706" on="0"/>
        <pt x="-3" y="739" on="0"/>
        <pt x="45" y="763" on="0"/>
        <pt x="72" y="772" on="1"/>
      </contour>
    </TTGlyph>
    <TTGlyph name="copyright" xMin="30" yMin="-15" xMax="725" yMax="684">
      <contour>
        <pt x="470" y="256" on="1"/>
        <pt x="515" y="256" on="1"/>
        <pt x="512" y="161" on="1"/>
        <pt x="485" y="147" on="0"/>
        <pt x="426" y="134" on="0"/>
        <pt x="394" y="134" on="1"/>
        <pt x="350" y="134" on="0"/>
        <pt x="279" y="164" on="0"/>
        <pt x="227" y="218" on="0"/>
        <pt x="199" y="292" on="0"/>
        <pt x="199" y="337" on="1"/>
        <pt x="199" y="380" on="0"/>
        <pt x="228" y="455" on="0"/>
        <pt x="280" y="509" on="0"/>
        <pt x="351" y="540" on="0"/>
        <pt x="393" y="540" on="1"/>
        <pt x="425" y="540" on="0"/>
        <pt x="478" y="529" on="0"/>
        <pt x="507" y="512" on="1"/>
        <pt x="509" y="417" on="1"/>
        <pt x="465" y="417" on="1"/>
        <pt x="454" y="489" on="1"/>
        <pt x="427" y="499" on="0"/>
        <pt x="401" y="499" on="1"/>
        <pt x="347" y="499" on="0"/>
        <pt x="271" y="417" on="0"/>
        <pt x="271" y="337" on="1"/>
        <pt x="271" y="258" on="0"/>
        <pt x="342" y="175" on="0"/>
        <pt x="402" y="175" on="1"/>
        <pt x="412" y="175" on="0"/>
        <pt x="442" y="180" on="0"/>
        <pt x="459" y="186" on="1"/>
      </contour>
      <contour>
        <pt x="378" y="25" on="1"/>
        <pt x="441" y="25" on="0"/>
        <pt x="549" y="69" on="0"/>
        <pt x="628" y="150" on="0"/>
        <pt x="674" y="265" on="0"/>
        <pt x="674" y="336" on="1"/>
        <pt x="674" y="408" on="0"/>
        <pt x="628" y="521" on="0"/>
        <pt x="549" y="601" on="0"/>
        <pt x="441" y="643" on="0"/>
        <pt x="378" y="643" on="1"/>
        <pt x="315" y="643" on="0"/>
        <pt x="206" y="601" on="0"/>
        <pt x="127" y="522" on="0"/>
        <pt x="81" y="408" on="0"/>
        <pt x="81" y="336" on="1"/>
        <pt x="81" y="264" on="0"/>
        <pt x="127" y="149" on="0"/>
        <pt x="206" y="68" on="0"/>
        <pt x="315" y="25" on="0"/>
      </contour>
      <contour>
        <pt x="378" y="684" on="1"/>
        <pt x="450" y="684" on="0"/>
        <pt x="577" y="637" on="0"/>
        <pt x="671" y="547" on="0"/>
        <pt x="725" y="418" on="0"/>
        <pt x="725" y="336" on="1"/>
        <pt x="725" y="255" on="0"/>
        <pt x="671" y="125" on="0"/>
        <pt x="577" y="34" on="0"/>
        <pt x="450" y="-15" on="0"/>
        <pt x="378" y="-15" on="1"/>
        <pt x="306" y="-15" on="0"/>
        <pt x="179" y="34" on="0"/>
        <pt x="84" y="125" on="0"/>
        <pt x="30" y="255" on="0"/>
        <pt x="30" y="336" on="1"/>
        <pt x="30" y="418" on="0"/>
        <pt x="84" y="547" on="0"/>
        <pt x="179" y="637" on="0"/>
        <pt x="306" y="684" on="0"/>
      </contour>
    </TTGlyph>
    <TTGlyph name="currency" xMin="28" yMin="106" xMax="473" yMax="551">
      <contour>
        <pt x="250" y="218" on="1"/>
        <pt x="295" y="218" on="0"/>
        <pt x="357" y="279" on="0"/>
        <pt x="357" y="329" on="1"/>
        <pt x="357" y="353" on="0"/>
        <pt x="340" y="394" on="0"/>
        <pt x="311" y="424" on="0"/>
        <pt x="272" y="440" on="0"/>
        <pt x="250" y="440" on="1"/>
        <pt x="228" y="440" on="0"/>
        <pt x="189" y="424" on="0"/>
        <pt x="159" y="394" on="0"/>
        <pt x="142" y="353" on="0"/>
        <pt x="142" y="329" on="1"/>
        <pt x="142" y="304" on="0"/>
        <pt x="159" y="263" on="0"/>
        <pt x="189" y="234" on="0"/>
        <pt x="228" y="218" on="0"/>
      </contour>
      <contour>
        <pt x="415" y="202" on="1"/>
        <pt x="448" y="182" on="0"/>
        <pt x="472" y="157" on="0"/>
        <pt x="472" y="143" on="1"/>
        <pt x="472" y="128" on="0"/>
        <pt x="451" y="106" on="0"/>
        <pt x="436" y="106" on="1"/>
        <pt x="422" y="106" on="0"/>
        <pt x="397" y="131" on="0"/>
        <pt x="377" y="164" on="1"/>
        <pt x="355" y="201" on="1"/>
        <pt x="333" y="184" on="0"/>
        <pt x="279" y="166" on="0"/>
        <pt x="250" y="166" on="1"/>
        <pt x="221" y="166" on="0"/>
        <pt x="167" y="184" on="0"/>
        <pt x="145" y="201" on="1"/>
        <pt x="123" y="164" on="1"/>
        <pt x="103" y="131" on="0"/>
        <pt x="78" y="107" on="0"/>
        <pt x="64" y="107" on="1"/>
        <pt x="49" y="107" on="0"/>
        <pt x="28" y="128" on="0"/>
        <pt x="28" y="143" on="1"/>
        <pt x="28" y="157" on="0"/>
        <pt x="53" y="182" on="0"/>
        <pt x="86" y="202" on="1"/>
        <pt x="122" y="223" on="1"/>
        <pt x="84" y="267" on="0"/>
        <pt x="84" y="329" on="1"/>
        <pt x="84" y="361" on="0"/>
        <pt x="104" y="414" on="0"/>
        <pt x="122" y="435" on="1"/>
        <pt x="86" y="456" on="1"/>
        <pt x="52" y="476" on="0"/>
        <pt x="28" y="501" on="0"/>
        <pt x="28" y="515" on="1"/>
        <pt x="28" y="530" on="0"/>
        <pt x="49" y="551" on="0"/>
        <pt x="64" y="551" on="1"/>
        <pt x="78" y="551" on="0"/>
        <pt x="103" y="526" on="0"/>
        <pt x="123" y="493" on="1"/>
        <pt x="145" y="456" on="1"/>
        <pt x="190" y="492" on="0"/>
        <pt x="250" y="492" on="1"/>
        <pt x="310" y="492" on="0"/>
        <pt x="355" y="456" on="1"/>
        <pt x="377" y="493" on="1"/>
        <pt x="397" y="527" on="0"/>
        <pt x="422" y="551" on="0"/>
        <pt x="436" y="551" on="1"/>
        <pt x="451" y="551" on="0"/>
        <pt x="473" y="530" on="0"/>
        <pt x="473" y="515" on="1"/>
        <pt x="473" y="501" on="0"/>
        <pt x="448" y="476" on="0"/>
        <pt x="415" y="456" on="1"/>
        <pt x="378" y="434" on="1"/>
        <pt x="395" y="414" on="0"/>
        <pt x="415" y="361" on="0"/>
        <pt x="415" y="329" on="1"/>
        <pt x="415" y="297" on="0"/>
        <pt x="395" y="244" on="0"/>
        <pt x="378" y="224" on="1"/>
      </contour>
    </TTGlyph>
    <TTGlyph name="d" xMin="45" yMin="-15" xMax="552" yMax="729">
      <contour>
        <pt x="386" y="382" on="1"/>
        <pt x="352" y="411" on="0"/>
        <pt x="298" y="434" on="0"/>
        <pt x="273" y="434" on="1"/>
        <pt x="245" y="434" on="0"/>
        <pt x="195" y="410" on="0"/>
        <pt x="157" y="361" on="0"/>
        <pt x="135" y="287" on="0"/>
        <pt x="135" y="236" on="1"/>
        <pt x="135" y="186" on="0"/>
        <pt x="156" y="113" on="0"/>
        <pt x="193" y="65" on="0"/>
        <pt x="243" y="42" on="0"/>
        <pt x="273" y="42" on="1"/>
        <pt x="305" y="42" on="0"/>
        <pt x="358" y="69" on="0"/>
        <pt x="386" y="99" on="1"/>
      </contour>
      <contour>
        <pt x="552" y="36" on="1"/>
        <pt x="552" y="0" on="1"/>
        <pt x="396" y="-10" on="1"/>
        <pt x="389" y="57" on="1"/>
        <pt x="363" y="22" on="0"/>
        <pt x="297" y="-15" on="0"/>
        <pt x="249" y="-15" on="1"/>
        <pt x="203" y="-15" on="0"/>
        <pt x="128" y="21" on="0"/>
        <pt x="74" y="87" on="0"/>
        <pt x="45" y="178" on="0"/>
        <pt x="45" y="233" on="1"/>
        <pt x="45" y="290" on="0"/>
        <pt x="77" y="385" on="0"/>
        <pt x="134" y="453" on="0"/>
        <pt x="212" y="491" on="0"/>
        <pt x="258" y="491" on="1"/>
        <pt x="294" y="491" on="0"/>
        <pt x="358" y="462" on="0"/>
        <pt x="389" y="426" on="1"/>
        <pt x="389" y="639" on="1"/>
        <pt x="304" y="649" on="1"/>
        <pt x="304" y="684" on="1"/>
        <pt x="461" y="729" on="1"/>
        <pt x="475" y="721" on="1"/>
        <pt x="471" y="579" on="1"/>
        <pt x="471" y="49" on="1"/>
      </contour>
    </TTGlyph>
    <TTGlyph name="d.sups" xMin="30" yMin="415" xMax="380" yMax="898">
      <contour>
        <pt x="262" y="667" on="1"/>
        <pt x="220" y="704" on="0"/>
        <pt x="185" y="704" on="1"/>
        <pt x="167" y="704" on="0"/>
        <pt x="135" y="692" on="0"/>
        <pt x="111" y="664" on="0"/>
        <pt x="98" y="617" on="0"/>
        <pt x="98" y="582" on="1"/>
        <pt x="98" y="546" on="0"/>
        <pt x="112" y="499" on="0"/>
        <pt x="136" y="472" on="0"/>
        <pt x="167" y="461" on="0"/>
        <pt x="185" y="461" on="1"/>
        <pt x="223" y="461" on="0"/>
        <pt x="262" y="494" on="1"/>
      </contour>
      <contour>
        <pt x="380" y="452" on="1"/>
        <pt x="380" y="425" on="1"/>
        <pt x="269" y="418" on="1"/>
        <pt x="264" y="465" on="1"/>
        <pt x="242" y="442" on="0"/>
        <pt x="193" y="415" on="0"/>
        <pt x="163" y="415" on="1"/>
        <pt x="138" y="415" on="0"/>
        <pt x="90" y="434" on="0"/>
        <pt x="53" y="474" on="0"/>
        <pt x="30" y="538" on="0"/>
        <pt x="30" y="582" on="1"/>
        <pt x="30" y="624" on="0"/>
        <pt x="53" y="687" on="0"/>
        <pt x="92" y="729" on="0"/>
        <pt x="143" y="749" on="0"/>
        <pt x="172" y="749" on="1"/>
        <pt x="224" y="749" on="0"/>
        <pt x="262" y="703" on="1"/>
        <pt x="262" y="834" on="1"/>
        <pt x="207" y="840" on="1"/>
        <pt x="207" y="868" on="1"/>
        <pt x="319" y="898" on="1"/>
        <pt x="329" y="893" on="1"/>
        <pt x="329" y="462" on="1"/>
      </contour>
    </TTGlyph>
    <TTGlyph name="dagger" xMin="39" yMin="-72" xMax="473" yMax="718">
      <contour>
        <pt x="325" y="510" on="1"/>
        <pt x="349" y="515" on="0"/>
        <pt x="405" y="526" on="0"/>
        <pt x="425" y="526" on="1"/>
        <pt x="451" y="526" on="0"/>
        <pt x="473" y="502" on="0"/>
        <pt x="473" y="482" on="1"/>
        <pt x="473" y="462" on="0"/>
        <pt x="451" y="439" on="0"/>
        <pt x="425" y="439" on="1"/>
        <pt x="405" y="439" on="0"/>
        <pt x="350" y="450" on="0"/>
        <pt x="325" y="455" on="1"/>
        <pt x="273" y="466" on="1"/>
        <pt x="279" y="440" on="0"/>
        <pt x="288" y="401" on="0"/>
        <pt x="294" y="365" on="0"/>
        <pt x="297" y="330" on="0"/>
        <pt x="297" y="309" on="1"/>
        <pt x="297" y="277" on="0"/>
        <pt x="283" y="87" on="0"/>
        <pt x="270" y="-72" on="1"/>
        <pt x="243" y="-72" on="1"/>
        <pt x="230" y="87" on="0"/>
        <pt x="215" y="277" on="0"/>
        <pt x="215" y="309" on="1"/>
        <pt x="215" y="330" on="0"/>
        <pt x="218" y="365" on="0"/>
        <pt x="224" y="401" on="0"/>
        <pt x="233" y="440" on="0"/>
        <pt x="239" y="466" on="1"/>
        <pt x="187" y="455" on="1"/>
        <pt x="163" y="450" on="0"/>
        <pt x="107" y="439" on="0"/>
        <pt x="87" y="439" on="1"/>
        <pt x="61" y="439" on="0"/>
        <pt x="39" y="462" on="0"/>
        <pt x="39" y="482" on="1"/>
        <pt x="39" y="502" on="0"/>
        <pt x="61" y="526" on="0"/>
        <pt x="87" y="526" on="1"/>
        <pt x="107" y="526" on="0"/>
        <pt x="163" y="515" on="0"/>
        <pt x="187" y="510" on="1"/>
        <pt x="239" y="499" on="1"/>
        <pt x="229" y="551" on="1"/>
        <pt x="227" y="561" on="0"/>
        <pt x="221" y="593" on="0"/>
        <pt x="216" y="627" on="0"/>
        <pt x="212" y="659" on="0"/>
        <pt x="212" y="671" on="1"/>
        <pt x="212" y="697" on="0"/>
        <pt x="236" y="718" on="0"/>
        <pt x="256" y="718" on="1"/>
        <pt x="276" y="718" on="0"/>
        <pt x="300" y="697" on="0"/>
        <pt x="300" y="671" on="1"/>
        <pt x="300" y="659" on="0"/>
        <pt x="296" y="627" on="0"/>
        <pt x="291" y="593" on="0"/>
        <pt x="285" y="561" on="0"/>
        <pt x="283" y="551" on="1"/>
        <pt x="273" y="499" on="1"/>
      </contour>
    </TTGlyph>
    <TTGlyph name="daggerdbl" xMin="39" yMin="-91" xMax="473" yMax="718">
      <contour>
        <pt x="325" y="172" on="1"/>
        <pt x="350" y="177" on="0"/>
        <pt x="405" y="188" on="0"/>
        <pt x="425" y="188" on="1"/>
        <pt x="451" y="188" on="0"/>
        <pt x="473" y="165" on="0"/>
        <pt x="473" y="145" on="1"/>
        <pt x="473" y="125" on="0"/>
        <pt x="451" y="101" on="0"/>
        <pt x="425" y="101" on="1"/>
        <pt x="405" y="101" on="0"/>
        <pt x="349" y="112" on="0"/>
        <pt x="325" y="117" on="1"/>
        <pt x="273" y="128" on="1"/>
        <pt x="283" y="76" on="1"/>
        <pt x="285" y="65" on="0"/>
        <pt x="291" y="34" on="0"/>
        <pt x="296" y="0" on="0"/>
        <pt x="300" y="-32" on="0"/>
        <pt x="300" y="-44" on="1"/>
        <pt x="300" y="-70" on="0"/>
        <pt x="276" y="-91" on="0"/>
        <pt x="256" y="-91" on="1"/>
        <pt x="236" y="-91" on="0"/>
        <pt x="212" y="-70" on="0"/>
        <pt x="212" y="-44" on="1"/>
        <pt x="212" y="-32" on="0"/>
        <pt x="216" y="0" on="0"/>
        <pt x="221" y="34" on="0"/>
        <pt x="227" y="65" on="0"/>
        <pt x="229" y="76" on="1"/>
        <pt x="239" y="128" on="1"/>
        <pt x="187" y="117" on="1"/>
        <pt x="163" y="112" on="0"/>
        <pt x="107" y="101" on="0"/>
        <pt x="87" y="101" on="1"/>
        <pt x="61" y="101" on="0"/>
        <pt x="39" y="125" on="0"/>
        <pt x="39" y="145" on="1"/>
        <pt x="39" y="165" on="0"/>
        <pt x="61" y="188" on="0"/>
        <pt x="87" y="188" on="1"/>
        <pt x="107" y="188" on="0"/>
        <pt x="163" y="177" on="0"/>
        <pt x="187" y="172" on="1"/>
        <pt x="239" y="161" on="1"/>
        <pt x="233" y="186" on="0"/>
        <pt x="224" y="225" on="0"/>
        <pt x="218" y="260" on="0"/>
        <pt x="215" y="294" on="0"/>
        <pt x="215" y="314" on="1"/>
        <pt x="215" y="334" on="0"/>
        <pt x="218" y="369" on="0"/>
        <pt x="224" y="403" on="0"/>
        <pt x="233" y="442" on="0"/>
        <pt x="239" y="466" on="1"/>
        <pt x="187" y="455" on="1"/>
        <pt x="163" y="450" on="0"/>
        <pt x="107" y="439" on="0"/>
        <pt x="87" y="439" on="1"/>
        <pt x="61" y="439" on="0"/>
        <pt x="39" y="462" on="0"/>
        <pt x="39" y="482" on="1"/>
        <pt x="39" y="502" on="0"/>
        <pt x="61" y="526" on="0"/>
        <pt x="87" y="526" on="1"/>
        <pt x="107" y="526" on="0"/>
        <pt x="163" y="515" on="0"/>
        <pt x="187" y="510" on="1"/>
        <pt x="239" y="499" on="1"/>
        <pt x="229" y="551" on="1"/>
        <pt x="227" y="561" on="0"/>
        <pt x="221" y="593" on="0"/>
        <pt x="216" y="627" on="0"/>
        <pt x="212" y="659" on="0"/>
        <pt x="212" y="671" on="1"/>
        <pt x="212" y="697" on="0"/>
        <pt x="236" y="718" on="0"/>
        <pt x="256" y="718" on="1"/>
        <pt x="276" y="718" on="0"/>
        <pt x="300" y="697" on="0"/>
        <pt x="300" y="671" on="1"/>
        <pt x="300" y="659" on="0"/>
        <pt x="296" y="627" on="0"/>
        <pt x="291" y="593" on="0"/>
        <pt x="285" y="561" on="0"/>
        <pt x="283" y="551" on="1"/>
        <pt x="273" y="499" on="1"/>
        <pt x="325" y="510" on="1"/>
        <pt x="349" y="515" on="0"/>
        <pt x="405" y="526" on="0"/>
        <pt x="425" y="526" on="1"/>
        <pt x="451" y="526" on="0"/>
        <pt x="473" y="502" on="0"/>
        <pt x="473" y="482" on="1"/>
        <pt x="473" y="462" on="0"/>
        <pt x="451" y="439" on="0"/>
        <pt x="425" y="439" on="1"/>
        <pt x="405" y="439" on="0"/>
        <pt x="350" y="450" on="0"/>
        <pt x="325" y="455" on="1"/>
        <pt x="273" y="466" on="1"/>
        <pt x="279" y="442" on="0"/>
        <pt x="288" y="403" on="0"/>
        <pt x="294" y="369" on="0"/>
        <pt x="297" y="335" on="0"/>
        <pt x="297" y="314" on="1"/>
        <pt x="297" y="294" on="0"/>
        <pt x="294" y="259" on="0"/>
        <pt x="288" y="225" on="0"/>
        <pt x="279" y="186" on="0"/>
        <pt x="273" y="161" on="1"/>
      </contour>
    </TTGlyph>
    <TTGlyph name="dcaron" xMin="45" yMin="-15" xMax="635" yMax="740">
      <component glyphName="d" x="0" y="0" flags="0x4"/>
      <component glyphName="caron.alt" x="567" y="0" flags="0x4"/>
    </TTGlyph>
    <TTGlyph name="dcroat" xMin="45" yMin="-15" xMax="552" yMax="729">
      <contour>
        <pt x="386" y="362" on="1"/>
        <pt x="352" y="391" on="0"/>
        <pt x="298" y="414" on="0"/>
        <pt x="274" y="414" on="1"/>
        <pt x="246" y="414" on="0"/>
        <pt x="195" y="392" on="0"/>
        <pt x="157" y="345" on="0"/>
        <pt x="135" y="274" on="0"/>
        <pt x="135" y="226" on="1"/>
        <pt x="135" y="179" on="0"/>
        <pt x="156" y="110" on="0"/>
        <pt x="193" y="64" on="0"/>
        <pt x="243" y="42" on="0"/>
        <pt x="273" y="42" on="1"/>
        <pt x="305" y="42" on="0"/>
        <pt x="358" y="69" on="0"/>
        <pt x="386" y="100" on="1"/>
      </contour>
      <contour>
        <pt x="471" y="538" on="1"/>
        <pt x="471" y="49" on="1"/>
        <pt x="552" y="36" on="1"/>
        <pt x="552" y="0" on="1"/>
        <pt x="396" y="-10" on="1"/>
        <pt x="389" y="58" on="1"/>
        <pt x="334" y="-15" on="0"/>
        <pt x="249" y="-15" on="1"/>
        <pt x="203" y="-15" on="0"/>
        <pt x="128" y="20" on="0"/>
        <pt x="74" y="83" on="0"/>
        <pt x="45" y="171" on="0"/>
        <pt x="45" y="224" on="1"/>
        <pt x="45" y="279" on="0"/>
        <pt x="77" y="370" on="0"/>
        <pt x="133" y="435" on="0"/>
        <pt x="209" y="471" on="0"/>
        <pt x="254" y="471" on="1"/>
        <pt x="295" y="471" on="0"/>
        <pt x="358" y="442" on="0"/>
        <pt x="389" y="406" on="1"/>
        <pt x="389" y="538" on="1"/>
        <pt x="203" y="538" on="1"/>
        <pt x="203" y="584" on="1"/>
        <pt x="389" y="584" on="1"/>
        <pt x="389" y="639" on="1"/>
        <pt x="304" y="649" on="1"/>
        <pt x="304" y="684" on="1"/>
        <pt x="461" y="729" on="1"/>
        <pt x="475" y="721" on="1"/>
        <pt x="471" y="584" on="1"/>
        <pt x="552" y="584" on="1"/>
        <pt x="552" y="538" on="1"/>
      </contour>
    </TTGlyph>
    <TTGlyph name="degree" xMin="35" yMin="426" xMax="295" yMax="684">
      <contour>
        <pt x="165" y="462" on="1"/>
        <pt x="202" y="462" on="0"/>
        <pt x="249" y="513" on="0"/>
        <pt x="249" y="554" on="1"/>
        <pt x="249" y="595" on="0"/>
        <pt x="202" y="648" on="0"/>
        <pt x="165" y="648" on="1"/>
        <pt x="128" y="648" on="0"/>
        <pt x="81" y="595" on="0"/>
        <pt x="81" y="554" on="1"/>
        <pt x="81" y="513" on="0"/>
        <pt x="128" y="462" on="0"/>
      </contour>
      <contour>
        <pt x="165" y="426" on="1"/>
        <pt x="139" y="426" on="0"/>
        <pt x="92" y="444" on="0"/>
        <pt x="56" y="477" on="0"/>
        <pt x="35" y="525" on="0"/>
        <pt x="35" y="554" on="1"/>
        <pt x="35" y="583" on="0"/>
        <pt x="56" y="631" on="0"/>
        <pt x="92" y="665" on="0"/>
        <pt x="139" y="684" on="0"/>
        <pt x="165" y="684" on="1"/>
        <pt x="191" y="684" on="0"/>
        <pt x="238" y="665" on="0"/>
        <pt x="274" y="631" on="0"/>
        <pt x="295" y="583" on="0"/>
        <pt x="295" y="554" on="1"/>
        <pt x="295" y="525" on="0"/>
        <pt x="274" y="477" on="0"/>
        <pt x="238" y="444" on="0"/>
        <pt x="191" y="426" on="0"/>
      </contour>
    </TTGlyph>
    <TTGlyph name="dieresis" xMin="42" yMin="587" xMax="358" yMax="696">
      <component glyphName="uni0308" x="200" y="0" flags="0x4"/>
    </TTGlyph>
    <TTGlyph name="dieresiscmb.cap" xMin="-170" yMin="737" xMax="169" yMax="847">
      <contour>
        <pt x="-112" y="737" on="1"/>
        <pt x="-135" y="737" on="0"/>
        <pt x="-170" y="769" on="0"/>
        <pt x="-170" y="792" on="1"/>
        <pt x="-170" y="816" on="0"/>
        <pt x="-135" y="847" on="0"/>
        <pt x="-112" y="847" on="1"/>
        <pt x="-88" y="847" on="0"/>
        <pt x="-55" y="816" on="0"/>
        <pt x="-55" y="792" on="1"/>
        <pt x="-55" y="769" on="0"/>
        <pt x="-88" y="737" on="0"/>
      </contour>
      <contour>
        <pt x="111" y="737" on="1"/>
        <pt x="87" y="737" on="0"/>
        <pt x="54" y="769" on="0"/>
        <pt x="54" y="792" on="1"/>
        <pt x="54" y="816" on="0"/>
        <pt x="87" y="847" on="0"/>
        <pt x="111" y="847" on="1"/>
        <pt x="134" y="847" on="0"/>
        <pt x="169" y="816" on="0"/>
        <pt x="169" y="792" on="1"/>
        <pt x="169" y="769" on="0"/>
        <pt x="134" y="737" on="0"/>
      </contour>
    </TTGlyph>
    <TTGlyph name="divide" xMin="29" yMin="67" xMax="501" yMax="593">
      <contour>
        <pt x="265" y="67" on="1"/>
        <pt x="237" y="67" on="0"/>
        <pt x="197" y="105" on="0"/>
        <pt x="197" y="134" on="1"/>
        <pt x="197" y="164" on="0"/>
        <pt x="237" y="200" on="0"/>
        <pt x="265" y="200" on="1"/>
        <pt x="293" y="200" on="0"/>
        <pt x="333" y="164" on="0"/>
        <pt x="333" y="134" on="1"/>
        <pt x="333" y="105" on="0"/>
        <pt x="293" y="67" on="0"/>
      </contour>
      <contour>
        <pt x="265" y="460" on="1"/>
        <pt x="237" y="460" on="0"/>
        <pt x="197" y="497" on="0"/>
        <pt x="197" y="526" on="1"/>
        <pt x="197" y="556" on="0"/>
        <pt x="237" y="593" on="0"/>
        <pt x="265" y="593" on="1"/>
        <pt x="293" y="593" on="0"/>
        <pt x="333" y="556" on="0"/>
        <pt x="333" y="526" on="1"/>
        <pt x="333" y="497" on="0"/>
        <pt x="293" y="460" on="0"/>
      </contour>
      <contour>
        <pt x="29" y="301" on="1"/>
        <pt x="29" y="359" on="1"/>
        <pt x="501" y="359" on="1"/>
        <pt x="501" y="301" on="1"/>
      </contour>
    </TTGlyph>
    <TTGlyph name="dollar" xMin="50" yMin="-115" xMax="463" yMax="749">
      <contour>
        <pt x="277" y="35" on="1"/>
        <pt x="326" y="42" on="0"/>
        <pt x="382" y="101" on="0"/>
        <pt x="382" y="150" on="1"/>
        <pt x="382" y="194" on="0"/>
        <pt x="332" y="246" on="0"/>
        <pt x="277" y="267" on="1"/>
      </contour>
      <contour>
        <pt x="240" y="608" on="1"/>
        <pt x="195" y="602" on="0"/>
        <pt x="138" y="548" on="0"/>
        <pt x="138" y="499" on="1"/>
        <pt x="138" y="452" on="0"/>
        <pt x="191" y="398" on="0"/>
        <pt x="240" y="381" on="1"/>
      </contour>
      <contour>
        <pt x="286" y="365" on="1"/>
        <pt x="337" y="347" on="0"/>
        <pt x="405" y="306" on="0"/>
        <pt x="446" y="257" on="0"/>
        <pt x="463" y="201" on="0"/>
        <pt x="463" y="170" on="1"/>
        <pt x="463" y="133" on="0"/>
        <pt x="438" y="69" on="0"/>
        <pt x="390" y="21" on="0"/>
        <pt x="321" y="-9" on="0"/>
        <pt x="277" y="-13" on="1"/>
        <pt x="277" y="-115" on="1"/>
        <pt x="236" y="-115" on="1"/>
        <pt x="236" y="-15" on="1"/>
        <pt x="197" y="-14" on="0"/>
        <pt x="130" y="8" on="0"/>
        <pt x="81" y="46" on="0"/>
        <pt x="51" y="99" on="0"/>
        <pt x="50" y="131" on="1"/>
        <pt x="65" y="163" on="0"/>
        <pt x="97" y="163" on="1"/>
        <pt x="115" y="163" on="0"/>
        <pt x="147" y="136" on="0"/>
        <pt x="155" y="97" on="1"/>
        <pt x="167" y="42" on="1"/>
        <pt x="185" y="37" on="0"/>
        <pt x="219" y="34" on="0"/>
        <pt x="236" y="33" on="1"/>
        <pt x="236" y="282" on="1"/>
        <pt x="225" y="286" on="1"/>
        <pt x="145" y="314" on="0"/>
        <pt x="57" y="402" on="0"/>
        <pt x="57" y="478" on="1"/>
        <pt x="57" y="514" on="0"/>
        <pt x="84" y="577" on="0"/>
        <pt x="132" y="625" on="0"/>
        <pt x="199" y="655" on="0"/>
        <pt x="240" y="658" on="1"/>
        <pt x="240" y="749" on="1"/>
        <pt x="282" y="749" on="1"/>
        <pt x="282" y="658" on="1"/>
        <pt x="350" y="651" on="0"/>
        <pt x="440" y="574" on="0"/>
        <pt x="445" y="514" on="1"/>
        <pt x="438" y="497" on="0"/>
        <pt x="414" y="482" on="0"/>
        <pt x="399" y="482" on="1"/>
        <pt x="382" y="482" on="0"/>
        <pt x="348" y="509" on="0"/>
        <pt x="340" y="549" on="1"/>
        <pt x="328" y="604" on="1"/>
        <pt x="305" y="608" on="0"/>
        <pt x="282" y="610" on="1"/>
        <pt x="282" y="366" on="1"/>
      </contour>
    </TTGlyph>
    <TTGlyph name="dotaccent" xMin="133" yMin="598" xMax="267" yMax="727">
      <component glyphName="uni0307" x="200" y="0" flags="0x4"/>
    </TTGlyph>
    <TTGlyph name="dotaccentcmb.cap" xMin="-67" yMin="736" xMax="67" yMax="864">
      <contour>
        <pt x="0" y="736" on="1"/>
        <pt x="-29" y="736" on="0"/>
        <pt x="-67" y="772" on="0"/>
        <pt x="-67" y="800" on="1"/>
        <pt x="-67" y="829" on="0"/>
        <pt x="-29" y="864" on="0"/>
        <pt x="0" y="864" on="1"/>
        <pt x="29" y="864" on="0"/>
        <pt x="67" y="829" on="0"/>
        <pt x="67" y="800" on="1"/>
        <pt x="67" y="772" on="0"/>
        <pt x="29" y="736" on="0"/>
      </contour>
    </TTGlyph>
    <TTGlyph name="dotlessi" xMin="30" yMin="0" xMax="267" yMax="491">
      <contour>
        <pt x="267" y="36" on="1"/>
        <pt x="267" y="0" on="1"/>
        <pt x="35" y="0" on="1"/>
        <pt x="35" y="36" on="1"/>
        <pt x="110" y="50" on="1"/>
        <pt x="111" y="88" on="0"/>
        <pt x="112" y="177" on="0"/>
        <pt x="112" y="210" on="1"/>
        <pt x="112" y="260" on="1"/>
        <pt x="112" y="301" on="0"/>
        <pt x="110" y="356" on="0"/>
        <pt x="109" y="386" on="1"/>
        <pt x="30" y="395" on="1"/>
        <pt x="30" y="430" on="1"/>
        <pt x="184" y="491" on="1"/>
        <pt x="199" y="481" on="1"/>
        <pt x="196" y="345" on="1"/>
        <pt x="196" y="210" on="1"/>
        <pt x="196" y="177" on="0"/>
        <pt x="197" y="88" on="0"/>
        <pt x="198" y="50" on="1"/>
      </contour>
    </TTGlyph>
    <TTGlyph name="e" xMin="47" yMin="-15" xMax="464" yMax="491">
      <contour>
        <pt x="321" y="285" on="1"/>
        <pt x="357" y="285" on="0"/>
        <pt x="381" y="315" on="0"/>
        <pt x="381" y="337" on="1"/>
        <pt x="381" y="358" on="0"/>
        <pt x="364" y="397" on="0"/>
        <pt x="335" y="427" on="0"/>
        <pt x="296" y="445" on="0"/>
        <pt x="273" y="445" on="1"/>
        <pt x="252" y="445" on="0"/>
        <pt x="207" y="428" on="0"/>
        <pt x="170" y="389" on="0"/>
        <pt x="143" y="328" on="0"/>
        <pt x="139" y="285" on="1"/>
      </contour>
      <contour>
        <pt x="137" y="242" on="1"/>
        <pt x="139" y="149" on="0"/>
        <pt x="227" y="49" on="0"/>
        <pt x="299" y="49" on="1"/>
        <pt x="347" y="49" on="0"/>
        <pt x="411" y="89" on="0"/>
        <pt x="438" y="121" on="1"/>
        <pt x="462" y="102" on="1"/>
        <pt x="436" y="48" on="0"/>
        <pt x="339" y="-15" on="0"/>
        <pt x="270" y="-15" on="1"/>
        <pt x="219" y="-15" on="0"/>
        <pt x="137" y="19" on="0"/>
        <pt x="79" y="84" on="0"/>
        <pt x="47" y="176" on="0"/>
        <pt x="47" y="233" on="1"/>
        <pt x="47" y="290" on="0"/>
        <pt x="83" y="385" on="0"/>
        <pt x="146" y="453" on="0"/>
        <pt x="230" y="491" on="0"/>
        <pt x="277" y="491" on="1"/>
        <pt x="316" y="491" on="0"/>
        <pt x="385" y="465" on="0"/>
        <pt x="435" y="415" on="0"/>
        <pt x="464" y="343" on="0"/>
        <pt x="464" y="298" on="1"/>
        <pt x="464" y="281" on="0"/>
        <pt x="460" y="253" on="0"/>
        <pt x="457" y="242" on="1"/>
      </contour>
    </TTGlyph>
    <TTGlyph name="e.sups" xMin="30" yMin="415" xMax="321" yMax="749">
      <contour>
        <pt x="217" y="611" on="1"/>
        <pt x="242" y="611" on="0"/>
        <pt x="258" y="630" on="0"/>
        <pt x="258" y="647" on="1"/>
        <pt x="258" y="680" on="0"/>
        <pt x="217" y="714" on="0"/>
        <pt x="188" y="714" on="1"/>
        <pt x="175" y="714" on="0"/>
        <pt x="146" y="704" on="0"/>
        <pt x="121" y="680" on="0"/>
        <pt x="103" y="641" on="0"/>
        <pt x="100" y="611" on="1"/>
      </contour>
      <contour>
        <pt x="99" y="579" on="1"/>
        <pt x="101" y="521" on="0"/>
        <pt x="160" y="466" on="0"/>
        <pt x="206" y="466" on="1"/>
        <pt x="240" y="466" on="0"/>
        <pt x="284" y="492" on="0"/>
        <pt x="302" y="515" on="1"/>
        <pt x="319" y="502" on="1"/>
        <pt x="301" y="461" on="0"/>
        <pt x="235" y="415" on="0"/>
        <pt x="188" y="415" on="1"/>
        <pt x="116" y="415" on="0"/>
        <pt x="30" y="502" on="0"/>
        <pt x="30" y="581" on="1"/>
        <pt x="30" y="618" on="0"/>
        <pt x="55" y="680" on="0"/>
        <pt x="99" y="724" on="0"/>
        <pt x="157" y="749" on="0"/>
        <pt x="189" y="749" on="1"/>
        <pt x="247" y="749" on="0"/>
        <pt x="321" y="675" on="0"/>
        <pt x="321" y="615" on="1"/>
        <pt x="321" y="605" on="0"/>
        <pt x="319" y="587" on="0"/>
        <pt x="317" y="579" on="1"/>
      </contour>
    </TTGlyph>
    <TTGlyph name="eacute" xMin="47" yMin="-15" xMax="464" yMax="757">
      <component glyphName="e" x="0" y="0" flags="0x204"/>
      <component glyphName="uni0301" x="286" y="0" flags="0x4"/>
    </TTGlyph>
    <TTGlyph name="eacute.sups" xMin="30" yMin="415" xMax="321" yMax="914">
      <contour>
        <pt x="165" y="774" on="1"/>
        <pt x="146" y="790" on="1"/>
        <pt x="195" y="869" on="1"/>
        <pt x="212" y="897" on="0"/>
        <pt x="238" y="914" on="0"/>
        <pt x="246" y="914" on="1"/>
        <pt x="256" y="914" on="0"/>
        <pt x="273" y="901" on="0"/>
        <pt x="273" y="888" on="1"/>
        <pt x="273" y="880" on="0"/>
        <pt x="260" y="856" on="0"/>
        <pt x="237" y="836" on="1"/>
      </contour>
      <contour>
        <pt x="217" y="611" on="1"/>
        <pt x="242" y="611" on="0"/>
        <pt x="258" y="630" on="0"/>
        <pt x="258" y="647" on="1"/>
        <pt x="258" y="680" on="0"/>
        <pt x="217" y="714" on="0"/>
        <pt x="188" y="714" on="1"/>
        <pt x="175" y="714" on="0"/>
        <pt x="146" y="704" on="0"/>
        <pt x="121" y="680" on="0"/>
        <pt x="103" y="641" on="0"/>
        <pt x="100" y="611" on="1"/>
      </contour>
      <contour>
        <pt x="99" y="579" on="1"/>
        <pt x="101" y="521" on="0"/>
        <pt x="160" y="466" on="0"/>
        <pt x="206" y="466" on="1"/>
        <pt x="240" y="466" on="0"/>
        <pt x="284" y="492" on="0"/>
        <pt x="302" y="515" on="1"/>
        <pt x="319" y="502" on="1"/>
        <pt x="301" y="461" on="0"/>
        <pt x="235" y="415" on="0"/>
        <pt x="188" y="415" on="1"/>
        <pt x="116" y="415" on="0"/>
        <pt x="30" y="502" on="0"/>
        <pt x="30" y="581" on="1"/>
        <pt x="30" y="618" on="0"/>
        <pt x="55" y="680" on="0"/>
        <pt x="99" y="724" on="0"/>
        <pt x="157" y="749" on="0"/>
        <pt x="189" y="749" on="1"/>
        <pt x="247" y="749" on="0"/>
        <pt x="321" y="675" on="0"/>
        <pt x="321" y="615" on="1"/>
        <pt x="321" y="605" on="0"/>
        <pt x="319" y="587" on="0"/>
        <pt x="317" y="579" on="1"/>
      </contour>
    </TTGlyph>
    <TTGlyph name="ecaron" xMin="47" yMin="-15" xMax="464" yMax="739">
      <component glyphName="e" x="0" y="0" flags="0x204"/>
      <component glyphName="uni030C" x="266" y="0" flags="0x4"/>
    </TTGlyph>
    <TTGlyph name="ecircumflex" xMin="47" yMin="-15" xMax="464" yMax="753">
      <component glyphName="e" x="0" y="0" flags="0x204"/>
      <component glyphName="uni0302" x="266" y="0" flags="0x4"/>
    </TTGlyph>
    <TTGlyph name="edieresis" xMin="47" yMin="-15" xMax="464" yMax="696">
      <component glyphName="e" x="0" y="0" flags="0x204"/>
      <component glyphName="uni0308" x="269" y="0" flags="0x4"/>
    </TTGlyph>
    <TTGlyph name="edotaccent" xMin="47" yMin="-15" xMax="464" yMax="727">
      <component glyphName="e" x="0" y="0" flags="0x204"/>
      <component glyphName="uni0307" x="271" y="0" flags="0x4"/>
    </TTGlyph>
    <TTGlyph name="egrave" xMin="47" yMin="-15" xMax="464" yMax="757">
      <component glyphName="e" x="0" y="0" flags="0x204"/>
      <component glyphName="uni0300" x="255" y="0" flags="0x4"/>
    </TTGlyph>
    <TTGlyph name="egrave.sups" xMin="30" yMin="415" xMax="321" yMax="914">
      <contour>
        <pt x="134" y="836" on="1"/>
        <pt x="111" y="856" on="0"/>
        <pt x="99" y="880" on="0"/>
        <pt x="99" y="888" on="1"/>
        <pt x="99" y="901" on="0"/>
        <pt x="115" y="914" on="0"/>
        <pt x="126" y="914" on="1"/>
        <pt x="134" y="914" on="0"/>
        <pt x="160" y="897" on="0"/>
        <pt x="177" y="869" on="1"/>
        <pt x="226" y="790" on="1"/>
        <pt x="207" y="774" on="1"/>
      </contour>
      <contour>
        <pt x="217" y="611" on="1"/>
        <pt x="242" y="611" on="0"/>
        <pt x="258" y="630" on="0"/>
        <pt x="258" y="647" on="1"/>
        <pt x="258" y="680" on="0"/>
        <pt x="217" y="714" on="0"/>
        <pt x="188" y="714" on="1"/>
        <pt x="175" y="714" on="0"/>
        <pt x="146" y="704" on="0"/>
        <pt x="121" y="680" on="0"/>
        <pt x="103" y="641" on="0"/>
        <pt x="100" y="611" on="1"/>
      </contour>
      <contour>
        <pt x="99" y="579" on="1"/>
        <pt x="101" y="521" on="0"/>
        <pt x="160" y="466" on="0"/>
        <pt x="206" y="466" on="1"/>
        <pt x="240" y="466" on="0"/>
        <pt x="284" y="492" on="0"/>
        <pt x="302" y="515" on="1"/>
        <pt x="319" y="502" on="1"/>
        <pt x="301" y="461" on="0"/>
        <pt x="235" y="415" on="0"/>
        <pt x="188" y="415" on="1"/>
        <pt x="116" y="415" on="0"/>
        <pt x="30" y="502" on="0"/>
        <pt x="30" y="581" on="1"/>
        <pt x="30" y="618" on="0"/>
        <pt x="55" y="680" on="0"/>
        <pt x="99" y="724" on="0"/>
        <pt x="157" y="749" on="0"/>
        <pt x="189" y="749" on="1"/>
        <pt x="247" y="749" on="0"/>
        <pt x="321" y="675" on="0"/>
        <pt x="321" y="615" on="1"/>
        <pt x="321" y="605" on="0"/>
        <pt x="319" y="587" on="0"/>
        <pt x="317" y="579" on="1"/>
      </contour>
    </TTGlyph>
    <TTGlyph name="eight" xMin="43" yMin="-15" xMax="455" yMax="659">
      <contour>
        <pt x="253" y="29" on="1"/>
        <pt x="307" y="29" on="0"/>
        <pt x="370" y="98" on="0"/>
        <pt x="370" y="149" on="1"/>
        <pt x="370" y="171" on="0"/>
        <pt x="355" y="208" on="0"/>
        <pt x="321" y="243" on="0"/>
        <pt x="262" y="279" on="0"/>
        <pt x="219" y="300" on="1"/>
        <pt x="171" y="271" on="0"/>
        <pt x="126" y="205" on="0"/>
        <pt x="126" y="154" on="1"/>
        <pt x="126" y="99" on="0"/>
        <pt x="197" y="29" on="0"/>
      </contour>
      <contour>
        <pt x="250" y="614" on="1"/>
        <pt x="229" y="614" on="0"/>
        <pt x="191" y="600" on="0"/>
        <pt x="162" y="574" on="0"/>
        <pt x="145" y="537" on="0"/>
        <pt x="145" y="514" on="1"/>
        <pt x="145" y="494" on="0"/>
        <pt x="156" y="457" on="0"/>
        <pt x="184" y="420" on="0"/>
        <pt x="233" y="383" on="0"/>
        <pt x="271" y="364" on="1"/>
        <pt x="316" y="398" on="0"/>
        <pt x="349" y="461" on="0"/>
        <pt x="349" y="503" on="1"/>
        <pt x="349" y="549" on="0"/>
        <pt x="298" y="614" on="0"/>
      </contour>
      <contour>
        <pt x="311" y="345" on="1"/>
        <pt x="383" y="308" on="0"/>
        <pt x="455" y="222" on="0"/>
        <pt x="455" y="156" on="1"/>
        <pt x="455" y="118" on="0"/>
        <pt x="423" y="55" on="0"/>
        <pt x="367" y="10" on="0"/>
        <pt x="290" y="-15" on="0"/>
        <pt x="244" y="-15" on="1"/>
        <pt x="202" y="-15" on="0"/>
        <pt x="128" y="6" on="0"/>
        <pt x="74" y="46" on="0"/>
        <pt x="43" y="107" on="0"/>
        <pt x="43" y="148" on="1"/>
        <pt x="43" y="206" on="0"/>
        <pt x="114" y="286" on="0"/>
        <pt x="181" y="320" on="1"/>
        <pt x="120" y="355" on="0"/>
        <pt x="66" y="442" on="0"/>
        <pt x="66" y="493" on="1"/>
        <pt x="66" y="532" on="0"/>
        <pt x="95" y="594" on="0"/>
        <pt x="146" y="636" on="0"/>
        <pt x="214" y="659" on="0"/>
        <pt x="252" y="659" on="1"/>
        <pt x="291" y="659" on="0"/>
        <pt x="354" y="636" on="0"/>
        <pt x="399" y="595" on="0"/>
        <pt x="424" y="539" on="0"/>
        <pt x="424" y="505" on="1"/>
        <pt x="424" y="487" on="0"/>
        <pt x="413" y="448" on="0"/>
        <pt x="388" y="407" on="0"/>
        <pt x="344" y="365" on="0"/>
      </contour>
    </TTGlyph>
    <TTGlyph name="eight.dnom" xMin="48" yMin="-8" xMax="322" yMax="407">
      <component glyphName="eight.sups" x="0" y="-424" flags="0x204"/>
    </TTGlyph>
    <TTGlyph name="eight.lf" xMin="48" yMin="-15" xMax="460" yMax="659">
      <contour>
        <pt x="258" y="29" on="1"/>
        <pt x="312" y="29" on="0"/>
        <pt x="375" y="98" on="0"/>
        <pt x="375" y="149" on="1"/>
        <pt x="375" y="171" on="0"/>
        <pt x="360" y="208" on="0"/>
        <pt x="326" y="243" on="0"/>
        <pt x="267" y="279" on="0"/>
        <pt x="224" y="300" on="1"/>
        <pt x="176" y="271" on="0"/>
        <pt x="131" y="205" on="0"/>
        <pt x="131" y="154" on="1"/>
        <pt x="131" y="99" on="0"/>
        <pt x="202" y="29" on="0"/>
      </contour>
      <contour>
        <pt x="255" y="614" on="1"/>
        <pt x="234" y="614" on="0"/>
        <pt x="196" y="600" on="0"/>
        <pt x="167" y="574" on="0"/>
        <pt x="150" y="537" on="0"/>
        <pt x="150" y="514" on="1"/>
        <pt x="150" y="494" on="0"/>
        <pt x="161" y="457" on="0"/>
        <pt x="189" y="420" on="0"/>
        <pt x="238" y="383" on="0"/>
        <pt x="276" y="364" on="1"/>
        <pt x="321" y="398" on="0"/>
        <pt x="354" y="461" on="0"/>
        <pt x="354" y="503" on="1"/>
        <pt x="354" y="549" on="0"/>
        <pt x="303" y="614" on="0"/>
      </contour>
      <contour>
        <pt x="316" y="345" on="1"/>
        <pt x="388" y="308" on="0"/>
        <pt x="460" y="222" on="0"/>
        <pt x="460" y="156" on="1"/>
        <pt x="460" y="118" on="0"/>
        <pt x="428" y="55" on="0"/>
        <pt x="372" y="10" on="0"/>
        <pt x="295" y="-15" on="0"/>
        <pt x="249" y="-15" on="1"/>
        <pt x="207" y="-15" on="0"/>
        <pt x="133" y="6" on="0"/>
        <pt x="79" y="46" on="0"/>
        <pt x="48" y="107" on="0"/>
        <pt x="48" y="148" on="1"/>
        <pt x="48" y="206" on="0"/>
        <pt x="119" y="286" on="0"/>
        <pt x="186" y="320" on="1"/>
        <pt x="125" y="355" on="0"/>
        <pt x="71" y="442" on="0"/>
        <pt x="71" y="493" on="1"/>
        <pt x="71" y="532" on="0"/>
        <pt x="100" y="594" on="0"/>
        <pt x="151" y="636" on="0"/>
        <pt x="219" y="659" on="0"/>
        <pt x="257" y="659" on="1"/>
        <pt x="296" y="659" on="0"/>
        <pt x="359" y="636" on="0"/>
        <pt x="404" y="595" on="0"/>
        <pt x="429" y="539" on="0"/>
        <pt x="429" y="505" on="1"/>
        <pt x="429" y="487" on="0"/>
        <pt x="418" y="448" on="0"/>
        <pt x="393" y="407" on="0"/>
        <pt x="349" y="365" on="0"/>
      </contour>
    </TTGlyph>
    <TTGlyph name="eight.numr" xMin="48" yMin="246" xMax="322" yMax="661">
      <component glyphName="eight.sups" x="0" y="-170" flags="0x204"/>
    </TTGlyph>
    <TTGlyph name="eight.osf" xMin="48" yMin="-15" xMax="460" yMax="659">
      <contour>
        <pt x="258" y="29" on="1"/>
        <pt x="312" y="29" on="0"/>
        <pt x="375" y="98" on="0"/>
        <pt x="375" y="149" on="1"/>
        <pt x="375" y="171" on="0"/>
        <pt x="360" y="208" on="0"/>
        <pt x="326" y="243" on="0"/>
        <pt x="267" y="279" on="0"/>
        <pt x="224" y="300" on="1"/>
        <pt x="176" y="271" on="0"/>
        <pt x="131" y="205" on="0"/>
        <pt x="131" y="154" on="1"/>
        <pt x="131" y="99" on="0"/>
        <pt x="202" y="29" on="0"/>
      </contour>
      <contour>
        <pt x="255" y="614" on="1"/>
        <pt x="234" y="614" on="0"/>
        <pt x="196" y="600" on="0"/>
        <pt x="167" y="574" on="0"/>
        <pt x="150" y="537" on="0"/>
        <pt x="150" y="514" on="1"/>
        <pt x="150" y="494" on="0"/>
        <pt x="161" y="457" on="0"/>
        <pt x="189" y="420" on="0"/>
        <pt x="238" y="383" on="0"/>
        <pt x="276" y="364" on="1"/>
        <pt x="321" y="398" on="0"/>
        <pt x="354" y="461" on="0"/>
        <pt x="354" y="503" on="1"/>
        <pt x="354" y="549" on="0"/>
        <pt x="303" y="614" on="0"/>
      </contour>
      <contour>
        <pt x="316" y="345" on="1"/>
        <pt x="388" y="308" on="0"/>
        <pt x="460" y="222" on="0"/>
        <pt x="460" y="156" on="1"/>
        <pt x="460" y="118" on="0"/>
        <pt x="428" y="55" on="0"/>
        <pt x="372" y="10" on="0"/>
        <pt x="295" y="-15" on="0"/>
        <pt x="249" y="-15" on="1"/>
        <pt x="207" y="-15" on="0"/>
        <pt x="133" y="6" on="0"/>
        <pt x="79" y="46" on="0"/>
        <pt x="48" y="107" on="0"/>
        <pt x="48" y="148" on="1"/>
        <pt x="48" y="206" on="0"/>
        <pt x="119" y="286" on="0"/>
        <pt x="186" y="320" on="1"/>
        <pt x="125" y="355" on="0"/>
        <pt x="71" y="442" on="0"/>
        <pt x="71" y="493" on="1"/>
        <pt x="71" y="532" on="0"/>
        <pt x="100" y="594" on="0"/>
        <pt x="151" y="636" on="0"/>
        <pt x="219" y="659" on="0"/>
        <pt x="257" y="659" on="1"/>
        <pt x="296" y="659" on="0"/>
        <pt x="359" y="636" on="0"/>
        <pt x="404" y="595" on="0"/>
        <pt x="429" y="539" on="0"/>
        <pt x="429" y="505" on="1"/>
        <pt x="429" y="487" on="0"/>
        <pt x="418" y="448" on="0"/>
        <pt x="393" y="407" on="0"/>
        <pt x="349" y="365" on="0"/>
      </contour>
    </TTGlyph>
    <TTGlyph name="eight.subs" xMin="48" yMin="-221" xMax="322" yMax="194">
      <component glyphName="eight.sups" x="0" y="-637" flags="0x204"/>
    </TTGlyph>
    <TTGlyph name="eight.sups" xMin="48" yMin="416" xMax="322" yMax="831">
      <contour>
        <pt x="185" y="448" on="1"/>
        <pt x="220" y="448" on="0"/>
        <pt x="256" y="489" on="0"/>
        <pt x="256" y="515" on="1"/>
        <pt x="256" y="539" on="0"/>
        <pt x="216" y="577" on="0"/>
        <pt x="159" y="603" on="1"/>
        <pt x="134" y="587" on="0"/>
        <pt x="111" y="542" on="0"/>
        <pt x="111" y="517" on="1"/>
        <pt x="111" y="485" on="0"/>
        <pt x="153" y="448" on="0"/>
      </contour>
      <contour>
        <pt x="187" y="797" on="1"/>
        <pt x="161" y="797" on="0"/>
        <pt x="125" y="770" on="0"/>
        <pt x="125" y="742" on="1"/>
        <pt x="125" y="722" on="0"/>
        <pt x="157" y="680" on="0"/>
        <pt x="207" y="657" on="1"/>
        <pt x="229" y="676" on="0"/>
        <pt x="245" y="713" on="0"/>
        <pt x="245" y="734" on="1"/>
        <pt x="245" y="797" on="0"/>
      </contour>
      <contour>
        <pt x="237" y="643" on="1"/>
        <pt x="279" y="621" on="0"/>
        <pt x="322" y="569" on="0"/>
        <pt x="322" y="531" on="1"/>
        <pt x="322" y="477" on="0"/>
        <pt x="245" y="416" on="0"/>
        <pt x="183" y="416" on="1"/>
        <pt x="124" y="416" on="0"/>
        <pt x="48" y="466" on="0"/>
        <pt x="48" y="514" on="1"/>
        <pt x="48" y="549" on="0"/>
        <pt x="91" y="599" on="0"/>
        <pt x="130" y="618" on="1"/>
        <pt x="97" y="638" on="0"/>
        <pt x="64" y="692" on="0"/>
        <pt x="64" y="722" on="1"/>
        <pt x="64" y="748" on="0"/>
        <pt x="84" y="789" on="0"/>
        <pt x="119" y="817" on="0"/>
        <pt x="164" y="831" on="0"/>
        <pt x="189" y="831" on="1"/>
        <pt x="240" y="831" on="0"/>
        <pt x="304" y="777" on="0"/>
        <pt x="304" y="736" on="1"/>
        <pt x="304" y="713" on="0"/>
        <pt x="276" y="667" on="0"/>
      </contour>
    </TTGlyph>
    <TTGlyph name="eight.tosf" xMin="44" yMin="-15" xMax="456" yMax="659">
      <contour>
        <pt x="254" y="29" on="1"/>
        <pt x="308" y="29" on="0"/>
        <pt x="371" y="98" on="0"/>
        <pt x="371" y="149" on="1"/>
        <pt x="371" y="171" on="0"/>
        <pt x="356" y="208" on="0"/>
        <pt x="322" y="243" on="0"/>
        <pt x="263" y="279" on="0"/>
        <pt x="220" y="300" on="1"/>
        <pt x="172" y="271" on="0"/>
        <pt x="127" y="205" on="0"/>
        <pt x="127" y="154" on="1"/>
        <pt x="127" y="99" on="0"/>
        <pt x="198" y="29" on="0"/>
      </contour>
      <contour>
        <pt x="251" y="614" on="1"/>
        <pt x="230" y="614" on="0"/>
        <pt x="192" y="600" on="0"/>
        <pt x="163" y="574" on="0"/>
        <pt x="146" y="537" on="0"/>
        <pt x="146" y="514" on="1"/>
        <pt x="146" y="494" on="0"/>
        <pt x="157" y="457" on="0"/>
        <pt x="185" y="420" on="0"/>
        <pt x="234" y="383" on="0"/>
        <pt x="272" y="364" on="1"/>
        <pt x="317" y="398" on="0"/>
        <pt x="350" y="461" on="0"/>
        <pt x="350" y="503" on="1"/>
        <pt x="350" y="549" on="0"/>
        <pt x="299" y="614" on="0"/>
      </contour>
      <contour>
        <pt x="312" y="345" on="1"/>
        <pt x="384" y="308" on="0"/>
        <pt x="456" y="222" on="0"/>
        <pt x="456" y="156" on="1"/>
        <pt x="456" y="118" on="0"/>
        <pt x="424" y="55" on="0"/>
        <pt x="368" y="10" on="0"/>
        <pt x="291" y="-15" on="0"/>
        <pt x="245" y="-15" on="1"/>
        <pt x="203" y="-15" on="0"/>
        <pt x="129" y="6" on="0"/>
        <pt x="75" y="46" on="0"/>
        <pt x="44" y="107" on="0"/>
        <pt x="44" y="148" on="1"/>
        <pt x="44" y="206" on="0"/>
        <pt x="115" y="286" on="0"/>
        <pt x="182" y="320" on="1"/>
        <pt x="121" y="355" on="0"/>
        <pt x="67" y="442" on="0"/>
        <pt x="67" y="493" on="1"/>
        <pt x="67" y="532" on="0"/>
        <pt x="96" y="594" on="0"/>
        <pt x="147" y="636" on="0"/>
        <pt x="215" y="659" on="0"/>
        <pt x="253" y="659" on="1"/>
        <pt x="292" y="659" on="0"/>
        <pt x="355" y="636" on="0"/>
        <pt x="400" y="595" on="0"/>
        <pt x="425" y="539" on="0"/>
        <pt x="425" y="505" on="1"/>
        <pt x="425" y="487" on="0"/>
        <pt x="414" y="448" on="0"/>
        <pt x="389" y="407" on="0"/>
        <pt x="345" y="365" on="0"/>
      </contour>
    </TTGlyph>
    <TTGlyph name="ellipsis" xMin="79" yMin="-15" xMax="881" yMax="128">
      <component glyphName="period" x="0" y="0" flags="0x4"/>
      <component glyphName="period" x="330" y="0" flags="0x4"/>
      <component glyphName="period" x="660" y="0" flags="0x4"/>
    </TTGlyph>
    <TTGlyph name="emacron" xMin="47" yMin="-15" xMax="464" yMax="666">
      <component glyphName="e" x="0" y="0" flags="0x204"/>
      <component glyphName="uni0304" x="266" y="0" flags="0x4"/>
    </TTGlyph>
    <TTGlyph name="emdash" xMin="40" yMin="218" xMax="772" yMax="284">
      <contour>
        <pt x="40" y="284" on="1"/>
        <pt x="772" y="284" on="1"/>
        <pt x="772" y="218" on="1"/>
        <pt x="40" y="218" on="1"/>
      </contour>
    </TTGlyph>
    <TTGlyph name="emdash.cap" xMin="40" yMin="273" xMax="772" yMax="339">
      <component glyphName="emdash" x="0" y="55" flags="0x204"/>
    </TTGlyph>
    <TTGlyph name="emdash.sups" xMin="45" yMin="556" xMax="519" yMax="605">
      <contour>
        <pt x="45" y="605" on="1"/>
        <pt x="519" y="605" on="1"/>
        <pt x="519" y="556" on="1"/>
        <pt x="45" y="556" on="1"/>
      </contour>
    </TTGlyph>
    <TTGlyph name="endash" xMin="40" yMin="218" xMax="472" yMax="284">
      <contour>
        <pt x="40" y="284" on="1"/>
        <pt x="472" y="284" on="1"/>
        <pt x="472" y="218" on="1"/>
        <pt x="40" y="218" on="1"/>
      </contour>
    </TTGlyph>
    <TTGlyph name="endash.cap" xMin="40" yMin="273" xMax="472" yMax="339">
      <component glyphName="endash" x="0" y="55" flags="0x204"/>
    </TTGlyph>
    <TTGlyph name="endash.sups" xMin="45" yMin="556" xMax="327" yMax="605">
      <contour>
        <pt x="45" y="605" on="1"/>
        <pt x="327" y="605" on="1"/>
        <pt x="327" y="556" on="1"/>
        <pt x="45" y="556" on="1"/>
      </contour>
    </TTGlyph>
    <TTGlyph name="eogonek" xMin="47" yMin="-221" xMax="464" yMax="491">
      <contour>
        <pt x="321" y="285" on="1"/>
        <pt x="357" y="285" on="0"/>
        <pt x="381" y="311" on="0"/>
        <pt x="381" y="337" on="1"/>
        <pt x="381" y="358" on="0"/>
        <pt x="364" y="397" on="0"/>
        <pt x="335" y="427" on="0"/>
        <pt x="295" y="445" on="0"/>
        <pt x="272" y="445" on="1"/>
        <pt x="251" y="445" on="0"/>
        <pt x="208" y="428" on="0"/>
        <pt x="170" y="390" on="0"/>
        <pt x="143" y="329" on="0"/>
        <pt x="139" y="285" on="1"/>
      </contour>
      <contour>
        <pt x="462" y="102" on="1"/>
        <pt x="448" y="73" on="0"/>
        <pt x="414" y="36" on="0"/>
        <pt x="386" y="14" on="1"/>
        <pt x="356" y="-11" on="0"/>
        <pt x="319" y="-66" on="0"/>
        <pt x="319" y="-96" on="1"/>
        <pt x="319" y="-128" on="0"/>
        <pt x="358" y="-164" on="0"/>
        <pt x="387" y="-164" on="1"/>
        <pt x="398" y="-164" on="0"/>
        <pt x="424" y="-158" on="0"/>
        <pt x="439" y="-150" on="1"/>
        <pt x="451" y="-173" on="1"/>
        <pt x="433" y="-198" on="0"/>
        <pt x="379" y="-221" on="0"/>
        <pt x="347" y="-221" on="1"/>
        <pt x="306" y="-221" on="0"/>
        <pt x="255" y="-174" on="0"/>
        <pt x="255" y="-132" on="1"/>
        <pt x="255" y="-97" on="0"/>
        <pt x="291" y="-34" on="0"/>
        <pt x="319" y="-11" on="1"/>
        <pt x="296" y="-15" on="0"/>
        <pt x="270" y="-15" on="1"/>
        <pt x="219" y="-15" on="0"/>
        <pt x="137" y="19" on="0"/>
        <pt x="79" y="84" on="0"/>
        <pt x="47" y="177" on="0"/>
        <pt x="47" y="236" on="1"/>
        <pt x="47" y="292" on="0"/>
        <pt x="83" y="386" on="0"/>
        <pt x="146" y="453" on="0"/>
        <pt x="229" y="491" on="0"/>
        <pt x="276" y="491" on="1"/>
        <pt x="316" y="491" on="0"/>
        <pt x="384" y="465" on="0"/>
        <pt x="435" y="415" on="0"/>
        <pt x="464" y="343" on="0"/>
        <pt x="464" y="297" on="1"/>
        <pt x="464" y="280" on="0"/>
        <pt x="460" y="253" on="0"/>
        <pt x="457" y="242" on="1"/>
        <pt x="137" y="242" on="1"/>
        <pt x="138" y="150" on="0"/>
        <pt x="226" y="49" on="0"/>
        <pt x="300" y="49" on="1"/>
        <pt x="348" y="49" on="0"/>
        <pt x="411" y="89" on="0"/>
        <pt x="438" y="121" on="1"/>
      </contour>
    </TTGlyph>
    <TTGlyph name="equal" xMin="29" yMin="202" xMax="501" yMax="459">
      <component glyphName="minus" x="0" y="-99" flags="0x204"/>
      <component glyphName="minus" x="0" y="100" flags="0x4"/>
    </TTGlyph>
    <TTGlyph name="estimated" xMin="46" yMin="-12" xMax="754" yMax="660">
      <contour>
        <pt x="176" y="128" on="1"/>
        <pt x="176" y="122" on="0"/>
        <pt x="181" y="113" on="0"/>
        <pt x="184" y="108" on="1"/>
        <pt x="225" y="61" on="0"/>
        <pt x="337" y="8" on="0"/>
        <pt x="402" y="8" on="1"/>
        <pt x="470" y="8" on="0"/>
        <pt x="588" y="69" on="0"/>
        <pt x="630" y="120" on="1"/>
        <pt x="682" y="120" on="1"/>
        <pt x="632" y="60" on="0"/>
        <pt x="486" y="-12" on="0"/>
        <pt x="400" y="-12" on="1"/>
        <pt x="326" y="-12" on="0"/>
        <pt x="197" y="41" on="0"/>
        <pt x="101" y="132" on="0"/>
        <pt x="46" y="254" on="0"/>
        <pt x="46" y="324" on="1"/>
        <pt x="46" y="394" on="0"/>
        <pt x="101" y="516" on="0"/>
        <pt x="197" y="607" on="0"/>
        <pt x="326" y="660" on="0"/>
        <pt x="400" y="660" on="1"/>
        <pt x="473" y="660" on="0"/>
        <pt x="602" y="607" on="0"/>
        <pt x="698" y="516" on="0"/>
        <pt x="754" y="394" on="0"/>
        <pt x="754" y="324" on="1"/>
        <pt x="754" y="316" on="1"/>
        <pt x="180" y="316" on="1"/>
        <pt x="176" y="316" on="0"/>
        <pt x="176" y="312" on="1"/>
      </contour>
      <contour>
        <pt x="620" y="334" on="1"/>
        <pt x="626" y="334" on="0"/>
        <pt x="626" y="340" on="1"/>
        <pt x="626" y="524" on="1"/>
        <pt x="626" y="536" on="0"/>
        <pt x="616" y="546" on="1"/>
        <pt x="574" y="590" on="0"/>
        <pt x="464" y="640" on="0"/>
        <pt x="402" y="640" on="1"/>
        <pt x="337" y="640" on="0"/>
        <pt x="226" y="587" on="0"/>
        <pt x="184" y="542" on="1"/>
        <pt x="181" y="537" on="0"/>
        <pt x="176" y="526" on="0"/>
        <pt x="176" y="520" on="1"/>
        <pt x="176" y="340" on="1"/>
        <pt x="176" y="334" on="0"/>
        <pt x="180" y="334" on="1"/>
      </contour>
    </TTGlyph>
    <TTGlyph name="eth" xMin="45" yMin="-15" xMax="494" yMax="749">
      <contour>
        <pt x="271" y="30" on="1"/>
        <pt x="339" y="30" on="0"/>
        <pt x="404" y="135" on="0"/>
        <pt x="404" y="231" on="1"/>
        <pt x="404" y="331" on="0"/>
        <pt x="333" y="427" on="0"/>
        <pt x="271" y="427" on="1"/>
        <pt x="205" y="427" on="0"/>
        <pt x="139" y="324" on="0"/>
        <pt x="139" y="227" on="1"/>
        <pt x="139" y="130" on="0"/>
        <pt x="208" y="30" on="0"/>
      </contour>
      <contour>
        <pt x="354" y="625" on="1"/>
        <pt x="419" y="559" on="0"/>
        <pt x="494" y="388" on="0"/>
        <pt x="494" y="278" on="1"/>
        <pt x="494" y="141" on="0"/>
        <pt x="373" y="-15" on="0"/>
        <pt x="262" y="-15" on="1"/>
        <pt x="220" y="-15" on="0"/>
        <pt x="142" y="17" on="0"/>
        <pt x="82" y="79" on="0"/>
        <pt x="45" y="172" on="0"/>
        <pt x="45" y="232" on="1"/>
        <pt x="45" y="290" on="0"/>
        <pt x="83" y="380" on="0"/>
        <pt x="145" y="441" on="0"/>
        <pt x="224" y="473" on="0"/>
        <pt x="266" y="473" on="1"/>
        <pt x="305" y="473" on="0"/>
        <pt x="370" y="448" on="0"/>
        <pt x="393" y="422" on="1"/>
        <pt x="376" y="476" on="0"/>
        <pt x="331" y="560" on="0"/>
        <pt x="299" y="596" on="1"/>
        <pt x="158" y="524" on="1"/>
        <pt x="139" y="562" on="1"/>
        <pt x="268" y="628" on="1"/>
        <pt x="244" y="651" on="0"/>
        <pt x="186" y="693" on="0"/>
        <pt x="151" y="716" on="1"/>
        <pt x="171" y="749" on="1"/>
        <pt x="213" y="729" on="0"/>
        <pt x="288" y="683" on="0"/>
        <pt x="321" y="655" on="1"/>
        <pt x="472" y="733" on="1"/>
        <pt x="491" y="695" on="1"/>
      </contour>
    </TTGlyph>
    <TTGlyph name="exclam" xMin="80" yMin="-15" xMax="209" yMax="684">
      <contour>
        <pt x="145" y="-15" on="1"/>
        <pt x="118" y="-15" on="0"/>
        <pt x="80" y="24" on="0"/>
        <pt x="80" y="50" on="1"/>
        <pt x="80" y="76" on="0"/>
        <pt x="118" y="115" on="0"/>
        <pt x="145" y="115" on="1"/>
        <pt x="172" y="115" on="0"/>
        <pt x="209" y="76" on="0"/>
        <pt x="209" y="50" on="1"/>
        <pt x="209" y="24" on="0"/>
        <pt x="172" y="-15" on="0"/>
      </contour>
      <contour>
        <pt x="145" y="684" on="1"/>
        <pt x="171" y="684" on="0"/>
        <pt x="202" y="654" on="0"/>
        <pt x="202" y="621" on="1"/>
        <pt x="202" y="593" on="0"/>
        <pt x="188" y="457" on="0"/>
        <pt x="177" y="352" on="1"/>
        <pt x="163" y="216" on="1"/>
        <pt x="126" y="216" on="1"/>
        <pt x="113" y="352" on="1"/>
        <pt x="102" y="457" on="0"/>
        <pt x="87" y="593" on="0"/>
        <pt x="87" y="621" on="1"/>
        <pt x="87" y="654" on="0"/>
        <pt x="119" y="684" on="0"/>
      </contour>
    </TTGlyph>
    <TTGlyph name="exclamdown" xMin="80" yMin="-207" xMax="209" yMax="492">
      <component glyphName="exclamdown.cap" x="0" y="-192" flags="0x204"/>
    </TTGlyph>
    <TTGlyph name="exclamdown.cap" xMin="80" yMin="-15" xMax="209" yMax="684">
      <contour>
        <pt x="144" y="684" on="1"/>
        <pt x="171" y="684" on="0"/>
        <pt x="209" y="645" on="0"/>
        <pt x="209" y="619" on="1"/>
        <pt x="209" y="593" on="0"/>
        <pt x="171" y="554" on="0"/>
        <pt x="144" y="554" on="1"/>
        <pt x="117" y="554" on="0"/>
        <pt x="80" y="593" on="0"/>
        <pt x="80" y="619" on="1"/>
        <pt x="80" y="645" on="0"/>
        <pt x="117" y="684" on="0"/>
      </contour>
      <contour>
        <pt x="144" y="-15" on="1"/>
        <pt x="118" y="-15" on="0"/>
        <pt x="87" y="15" on="0"/>
        <pt x="87" y="48" on="1"/>
        <pt x="87" y="76" on="0"/>
        <pt x="101" y="212" on="0"/>
        <pt x="112" y="317" on="1"/>
        <pt x="126" y="453" on="1"/>
        <pt x="163" y="453" on="1"/>
        <pt x="176" y="317" on="1"/>
        <pt x="187" y="212" on="0"/>
        <pt x="202" y="76" on="0"/>
        <pt x="202" y="48" on="1"/>
        <pt x="202" y="15" on="0"/>
        <pt x="170" y="-15" on="0"/>
      </contour>
    </TTGlyph>
    <TTGlyph name="f" xMin="35" yMin="0" xMax="426" yMax="749">
      <contour>
        <pt x="118" y="475" on="1"/>
        <pt x="122" y="515" on="0"/>
        <pt x="133" y="579" on="0"/>
        <pt x="149" y="630" on="0"/>
        <pt x="173" y="671" on="0"/>
        <pt x="189" y="688" on="1"/>
        <pt x="221" y="723" on="0"/>
        <pt x="295" y="749" on="0"/>
        <pt x="329" y="749" on="1"/>
        <pt x="365" y="749" on="0"/>
        <pt x="418" y="725" on="0"/>
        <pt x="426" y="696" on="1"/>
        <pt x="424" y="676" on="0"/>
        <pt x="392" y="650" on="0"/>
        <pt x="365" y="650" on="1"/>
        <pt x="346" y="650" on="0"/>
        <pt x="312" y="666" on="0"/>
        <pt x="293" y="681" on="1"/>
        <pt x="268" y="701" on="1"/>
        <pt x="248" y="686" on="0"/>
        <pt x="234" y="661" on="1"/>
        <pt x="218" y="635" on="0"/>
        <pt x="198" y="545" on="0"/>
        <pt x="200" y="473" on="1"/>
        <pt x="337" y="473" on="1"/>
        <pt x="337" y="420" on="1"/>
        <pt x="202" y="420" on="1"/>
        <pt x="202" y="210" on="1"/>
        <pt x="202" y="170" on="0"/>
        <pt x="203" y="91" on="0"/>
        <pt x="204" y="51" on="1"/>
        <pt x="293" y="36" on="1"/>
        <pt x="293" y="0" on="1"/>
        <pt x="36" y="0" on="1"/>
        <pt x="36" y="36" on="1"/>
        <pt x="115" y="50" on="1"/>
        <pt x="116" y="90" on="0"/>
        <pt x="117" y="170" on="0"/>
        <pt x="117" y="210" on="1"/>
        <pt x="117" y="420" on="1"/>
        <pt x="35" y="420" on="1"/>
        <pt x="35" y="464" on="1"/>
      </contour>
    </TTGlyph>
    <TTGlyph name="f.sups" xMin="23" yMin="425" xMax="294" yMax="911">
      <contour>
        <pt x="76" y="738" on="1"/>
        <pt x="79" y="763" on="0"/>
        <pt x="87" y="803" on="0"/>
        <pt x="100" y="835" on="0"/>
        <pt x="119" y="861" on="0"/>
        <pt x="133" y="874" on="1"/>
        <pt x="153" y="895" on="0"/>
        <pt x="203" y="911" on="0"/>
        <pt x="226" y="911" on="1"/>
        <pt x="252" y="911" on="0"/>
        <pt x="289" y="892" on="0"/>
        <pt x="294" y="875" on="1"/>
        <pt x="292" y="858" on="0"/>
        <pt x="272" y="836" on="0"/>
        <pt x="255" y="836" on="1"/>
        <pt x="241" y="836" on="0"/>
        <pt x="216" y="855" on="0"/>
        <pt x="201" y="871" on="1"/>
        <pt x="191" y="882" on="1"/>
        <pt x="176" y="874" on="0"/>
        <pt x="167" y="860" on="1"/>
        <pt x="142" y="826" on="0"/>
        <pt x="143" y="737" on="1"/>
        <pt x="231" y="737" on="1"/>
        <pt x="231" y="695" on="1"/>
        <pt x="144" y="695" on="1"/>
        <pt x="144" y="465" on="1"/>
        <pt x="203" y="455" on="1"/>
        <pt x="203" y="425" on="1"/>
        <pt x="24" y="425" on="1"/>
        <pt x="24" y="455" on="1"/>
        <pt x="75" y="464" on="1"/>
        <pt x="75" y="695" on="1"/>
        <pt x="23" y="695" on="1"/>
        <pt x="23" y="732" on="1"/>
      </contour>
    </TTGlyph>
    <TTGlyph name="f_i" xMin="35" yMin="0" xMax="586" yMax="749">
      <contour>
        <pt x="586" y="36" on="1"/>
        <pt x="586" y="0" on="1"/>
        <pt x="354" y="0" on="1"/>
        <pt x="354" y="36" on="1"/>
        <pt x="429" y="50" on="1"/>
        <pt x="430" y="88" on="0"/>
        <pt x="431" y="177" on="0"/>
        <pt x="431" y="210" on="1"/>
        <pt x="431" y="261" on="1"/>
        <pt x="431" y="287" on="0"/>
        <pt x="431" y="329" on="0"/>
        <pt x="430" y="366" on="0"/>
        <pt x="429" y="401" on="0"/>
        <pt x="428" y="420" on="1"/>
        <pt x="202" y="420" on="1"/>
        <pt x="202" y="210" on="1"/>
        <pt x="202" y="170" on="0"/>
        <pt x="203" y="91" on="0"/>
        <pt x="204" y="51" on="1"/>
        <pt x="293" y="36" on="1"/>
        <pt x="293" y="0" on="1"/>
        <pt x="36" y="0" on="1"/>
        <pt x="36" y="36" on="1"/>
        <pt x="115" y="50" on="1"/>
        <pt x="116" y="90" on="0"/>
        <pt x="117" y="170" on="0"/>
        <pt x="117" y="210" on="1"/>
        <pt x="117" y="420" on="1"/>
        <pt x="35" y="420" on="1"/>
        <pt x="35" y="464" on="1"/>
        <pt x="118" y="475" on="1"/>
        <pt x="122" y="515" on="0"/>
        <pt x="133" y="579" on="0"/>
        <pt x="151" y="631" on="0"/>
        <pt x="178" y="673" on="0"/>
        <pt x="198" y="691" on="1"/>
        <pt x="234" y="724" on="0"/>
        <pt x="319" y="749" on="0"/>
        <pt x="362" y="749" on="1"/>
        <pt x="395" y="749" on="0"/>
        <pt x="451" y="735" on="0"/>
        <pt x="493" y="709" on="0"/>
        <pt x="518" y="672" on="0"/>
        <pt x="518" y="650" on="1"/>
        <pt x="514" y="633" on="0"/>
        <pt x="488" y="610" on="0"/>
        <pt x="467" y="610" on="1"/>
        <pt x="448" y="610" on="0"/>
        <pt x="417" y="631" on="0"/>
        <pt x="403" y="651" on="1"/>
        <pt x="361" y="708" on="1"/>
        <pt x="290" y="704" on="0"/>
        <pt x="248" y="660" on="1"/>
        <pt x="222" y="633" on="0"/>
        <pt x="198" y="545" on="0"/>
        <pt x="200" y="473" on="1"/>
        <pt x="400" y="473" on="1"/>
        <pt x="503" y="491" on="1"/>
        <pt x="518" y="481" on="1"/>
        <pt x="515" y="345" on="1"/>
        <pt x="515" y="210" on="1"/>
        <pt x="515" y="177" on="0"/>
        <pt x="516" y="88" on="0"/>
        <pt x="517" y="50" on="1"/>
      </contour>
    </TTGlyph>
    <TTGlyph name="f_l" xMin="35" yMin="0" xMax="587" yMax="749">
      <contour>
        <pt x="587" y="36" on="1"/>
        <pt x="587" y="0" on="1"/>
        <pt x="340" y="0" on="1"/>
        <pt x="340" y="36" on="1"/>
        <pt x="419" y="50" on="1"/>
        <pt x="420" y="90" on="0"/>
        <pt x="421" y="170" on="0"/>
        <pt x="421" y="210" on="1"/>
        <pt x="421" y="649" on="1"/>
        <pt x="397" y="651" on="0"/>
        <pt x="342" y="676" on="0"/>
        <pt x="315" y="699" on="1"/>
        <pt x="309" y="704" on="1"/>
        <pt x="291" y="696" on="0"/>
        <pt x="263" y="677" on="0"/>
        <pt x="250" y="663" on="1"/>
        <pt x="221" y="631" on="0"/>
        <pt x="198" y="542" on="0"/>
        <pt x="200" y="473" on="1"/>
        <pt x="337" y="473" on="1"/>
        <pt x="337" y="420" on="1"/>
        <pt x="202" y="420" on="1"/>
        <pt x="202" y="210" on="1"/>
        <pt x="202" y="170" on="0"/>
        <pt x="203" y="91" on="0"/>
        <pt x="204" y="51" on="1"/>
        <pt x="293" y="36" on="1"/>
        <pt x="293" y="0" on="1"/>
        <pt x="36" y="0" on="1"/>
        <pt x="36" y="36" on="1"/>
        <pt x="115" y="50" on="1"/>
        <pt x="116" y="90" on="0"/>
        <pt x="117" y="170" on="0"/>
        <pt x="117" y="210" on="1"/>
        <pt x="117" y="420" on="1"/>
        <pt x="35" y="420" on="1"/>
        <pt x="35" y="464" on="1"/>
        <pt x="118" y="475" on="1"/>
        <pt x="122" y="516" on="0"/>
        <pt x="133" y="581" on="0"/>
        <pt x="153" y="634" on="0"/>
        <pt x="182" y="677" on="0"/>
        <pt x="203" y="695" on="1"/>
        <pt x="241" y="727" on="0"/>
        <pt x="320" y="749" on="0"/>
        <pt x="355" y="749" on="1"/>
        <pt x="389" y="749" on="0"/>
        <pt x="451" y="732" on="0"/>
        <pt x="468" y="715" on="1"/>
        <pt x="496" y="729" on="1"/>
        <pt x="510" y="721" on="1"/>
        <pt x="506" y="579" on="1"/>
        <pt x="506" y="210" on="1"/>
        <pt x="506" y="170" on="0"/>
        <pt x="507" y="90" on="0"/>
        <pt x="508" y="50" on="1"/>
      </contour>
    </TTGlyph>
    <TTGlyph name="f_t" xMin="35" yMin="-10" xMax="642" yMax="749">
      <contour>
        <pt x="642" y="43" on="1"/>
        <pt x="623" y="18" on="0"/>
        <pt x="564" y="-10" on="0"/>
        <pt x="529" y="-10" on="1"/>
        <pt x="472" y="-10" on="0"/>
        <pt x="411" y="45" on="0"/>
        <pt x="411" y="104" on="1"/>
        <pt x="411" y="123" on="0"/>
        <pt x="412" y="160" on="0"/>
        <pt x="412" y="189" on="1"/>
        <pt x="412" y="420" on="1"/>
        <pt x="202" y="420" on="1"/>
        <pt x="202" y="210" on="1"/>
        <pt x="202" y="170" on="0"/>
        <pt x="203" y="91" on="0"/>
        <pt x="204" y="51" on="1"/>
        <pt x="293" y="36" on="1"/>
        <pt x="293" y="0" on="1"/>
        <pt x="36" y="0" on="1"/>
        <pt x="36" y="36" on="1"/>
        <pt x="115" y="50" on="1"/>
        <pt x="116" y="90" on="0"/>
        <pt x="117" y="170" on="0"/>
        <pt x="117" y="210" on="1"/>
        <pt x="117" y="420" on="1"/>
        <pt x="35" y="420" on="1"/>
        <pt x="35" y="464" on="1"/>
        <pt x="118" y="475" on="1"/>
        <pt x="122" y="515" on="0"/>
        <pt x="133" y="579" on="0"/>
        <pt x="149" y="630" on="0"/>
        <pt x="173" y="671" on="0"/>
        <pt x="189" y="688" on="1"/>
        <pt x="221" y="723" on="0"/>
        <pt x="295" y="749" on="0"/>
        <pt x="329" y="749" on="1"/>
        <pt x="365" y="749" on="0"/>
        <pt x="418" y="725" on="0"/>
        <pt x="426" y="696" on="1"/>
        <pt x="424" y="676" on="0"/>
        <pt x="392" y="650" on="0"/>
        <pt x="365" y="650" on="1"/>
        <pt x="346" y="650" on="0"/>
        <pt x="312" y="666" on="0"/>
        <pt x="293" y="681" on="1"/>
        <pt x="268" y="701" on="1"/>
        <pt x="248" y="686" on="0"/>
        <pt x="234" y="661" on="1"/>
        <pt x="218" y="635" on="0"/>
        <pt x="198" y="545" on="0"/>
        <pt x="200" y="473" on="1"/>
        <pt x="417" y="473" on="1"/>
        <pt x="442" y="611" on="1"/>
        <pt x="503" y="611" on="1"/>
        <pt x="498" y="473" on="1"/>
        <pt x="632" y="473" on="1"/>
        <pt x="632" y="420" on="1"/>
        <pt x="496" y="420" on="1"/>
        <pt x="496" y="116" on="1"/>
        <pt x="496" y="77" on="0"/>
        <pt x="527" y="42" on="0"/>
        <pt x="554" y="42" on="1"/>
        <pt x="572" y="42" on="0"/>
        <pt x="599" y="56" on="0"/>
        <pt x="619" y="70" on="1"/>
      </contour>
    </TTGlyph>
    <TTGlyph name="figuredash" xMin="40" yMin="218" xMax="459" yMax="284">
      <contour>
        <pt x="40" y="284" on="1"/>
        <pt x="459" y="284" on="1"/>
        <pt x="459" y="218" on="1"/>
        <pt x="40" y="218" on="1"/>
      </contour>
    </TTGlyph>
    <TTGlyph name="five" xMin="38" yMin="-15" xMax="458" yMax="644">
      <contour>
        <pt x="145" y="395" on="1"/>
        <pt x="190" y="407" on="0"/>
        <pt x="238" y="407" on="1"/>
        <pt x="287" y="407" on="0"/>
        <pt x="368" y="380" on="0"/>
        <pt x="426" y="328" on="0"/>
        <pt x="458" y="252" on="0"/>
        <pt x="458" y="202" on="1"/>
        <pt x="458" y="154" on="0"/>
        <pt x="425" y="74" on="0"/>
        <pt x="363" y="17" on="0"/>
        <pt x="277" y="-15" on="0"/>
        <pt x="225" y="-15" on="1"/>
        <pt x="148" y="-15" on="0"/>
        <pt x="53" y="56" on="0"/>
        <pt x="38" y="126" on="1"/>
        <pt x="51" y="160" on="0"/>
        <pt x="89" y="160" on="1"/>
        <pt x="112" y="160" on="0"/>
        <pt x="136" y="132" on="0"/>
        <pt x="146" y="92" on="1"/>
        <pt x="161" y="38" on="1"/>
        <pt x="177" y="33" on="0"/>
        <pt x="205" y="30" on="0"/>
        <pt x="219" y="30" on="1"/>
        <pt x="292" y="30" on="0"/>
        <pt x="368" y="119" on="0"/>
        <pt x="368" y="192" on="1"/>
        <pt x="368" y="267" on="0"/>
        <pt x="285" y="346" on="0"/>
        <pt x="212" y="346" on="1"/>
        <pt x="168" y="346" on="0"/>
        <pt x="119" y="335" on="1"/>
        <pt x="91" y="343" on="1"/>
        <pt x="112" y="644" on="1"/>
        <pt x="439" y="644" on="1"/>
        <pt x="439" y="561" on="1"/>
        <pt x="157" y="561" on="1"/>
      </contour>
    </TTGlyph>
    <TTGlyph name="five.dnom" xMin="43" yMin="-8" xMax="320" yMax="397">
      <component glyphName="five.sups" x="0" y="-424" flags="0x204"/>
    </TTGlyph>
    <TTGlyph name="five.lf" xMin="41" yMin="-15" xMax="461" yMax="644">
      <contour>
        <pt x="148" y="395" on="1"/>
        <pt x="193" y="407" on="0"/>
        <pt x="241" y="407" on="1"/>
        <pt x="290" y="407" on="0"/>
        <pt x="371" y="380" on="0"/>
        <pt x="429" y="328" on="0"/>
        <pt x="461" y="252" on="0"/>
        <pt x="461" y="202" on="1"/>
        <pt x="461" y="154" on="0"/>
        <pt x="428" y="74" on="0"/>
        <pt x="366" y="17" on="0"/>
        <pt x="280" y="-15" on="0"/>
        <pt x="228" y="-15" on="1"/>
        <pt x="151" y="-15" on="0"/>
        <pt x="56" y="56" on="0"/>
        <pt x="41" y="126" on="1"/>
        <pt x="54" y="160" on="0"/>
        <pt x="92" y="160" on="1"/>
        <pt x="115" y="160" on="0"/>
        <pt x="139" y="132" on="0"/>
        <pt x="149" y="92" on="1"/>
        <pt x="164" y="38" on="1"/>
        <pt x="180" y="33" on="0"/>
        <pt x="208" y="30" on="0"/>
        <pt x="222" y="30" on="1"/>
        <pt x="295" y="30" on="0"/>
        <pt x="371" y="119" on="0"/>
        <pt x="371" y="192" on="1"/>
        <pt x="371" y="267" on="0"/>
        <pt x="288" y="346" on="0"/>
        <pt x="215" y="346" on="1"/>
        <pt x="171" y="346" on="0"/>
        <pt x="122" y="335" on="1"/>
        <pt x="94" y="343" on="1"/>
        <pt x="115" y="644" on="1"/>
        <pt x="442" y="644" on="1"/>
        <pt x="442" y="561" on="1"/>
        <pt x="160" y="561" on="1"/>
      </contour>
    </TTGlyph>
    <TTGlyph name="five.numr" xMin="43" yMin="246" xMax="320" yMax="651">
      <component glyphName="five.sups" x="0" y="-170" flags="0x204"/>
    </TTGlyph>
    <TTGlyph name="five.osf" xMin="41" yMin="-135" xMax="461" yMax="524">
      <contour>
        <pt x="148" y="275" on="1"/>
        <pt x="193" y="287" on="0"/>
        <pt x="241" y="287" on="1"/>
        <pt x="290" y="287" on="0"/>
        <pt x="371" y="260" on="0"/>
        <pt x="429" y="208" on="0"/>
        <pt x="461" y="132" on="0"/>
        <pt x="461" y="82" on="1"/>
        <pt x="461" y="34" on="0"/>
        <pt x="428" y="-46" on="0"/>
        <pt x="366" y="-103" on="0"/>
        <pt x="280" y="-135" on="0"/>
        <pt x="228" y="-135" on="1"/>
        <pt x="151" y="-135" on="0"/>
        <pt x="56" y="-64" on="0"/>
        <pt x="41" y="6" on="1"/>
        <pt x="54" y="40" on="0"/>
        <pt x="92" y="40" on="1"/>
        <pt x="115" y="40" on="0"/>
        <pt x="139" y="12" on="0"/>
        <pt x="149" y="-28" on="1"/>
        <pt x="164" y="-82" on="1"/>
        <pt x="180" y="-87" on="0"/>
        <pt x="208" y="-90" on="0"/>
        <pt x="222" y="-90" on="1"/>
        <pt x="295" y="-90" on="0"/>
        <pt x="371" y="-1" on="0"/>
        <pt x="371" y="72" on="1"/>
        <pt x="371" y="147" on="0"/>
        <pt x="288" y="226" on="0"/>
        <pt x="215" y="226" on="1"/>
        <pt x="171" y="226" on="0"/>
        <pt x="122" y="215" on="1"/>
        <pt x="94" y="223" on="1"/>
        <pt x="115" y="524" on="1"/>
        <pt x="442" y="524" on="1"/>
        <pt x="442" y="441" on="1"/>
        <pt x="160" y="441" on="1"/>
      </contour>
    </TTGlyph>
    <TTGlyph name="five.subs" xMin="43" yMin="-221" xMax="320" yMax="184">
      <component glyphName="five.sups" x="0" y="-637" flags="0x204"/>
    </TTGlyph>
    <TTGlyph name="five.sups" xMin="43" yMin="416" xMax="320" yMax="821">
      <contour>
        <pt x="116" y="669" on="1"/>
        <pt x="146" y="675" on="0"/>
        <pt x="175" y="675" on="1"/>
        <pt x="206" y="675" on="0"/>
        <pt x="259" y="659" on="0"/>
        <pt x="298" y="628" on="0"/>
        <pt x="320" y="580" on="0"/>
        <pt x="320" y="548" on="1"/>
        <pt x="320" y="516" on="0"/>
        <pt x="297" y="467" on="0"/>
        <pt x="258" y="434" on="0"/>
        <pt x="203" y="416" on="0"/>
        <pt x="172" y="416" on="1"/>
        <pt x="114" y="416" on="0"/>
        <pt x="48" y="468" on="0"/>
        <pt x="43" y="506" on="1"/>
        <pt x="47" y="523" on="0"/>
        <pt x="66" y="539" on="0"/>
        <pt x="80" y="539" on="1"/>
        <pt x="94" y="539" on="0"/>
        <pt x="112" y="519" on="0"/>
        <pt x="117" y="491" on="1"/>
        <pt x="124" y="455" on="1"/>
        <pt x="146" y="449" on="0"/>
        <pt x="165" y="449" on="1"/>
        <pt x="201" y="449" on="0"/>
        <pt x="246" y="499" on="0"/>
        <pt x="246" y="544" on="1"/>
        <pt x="246" y="586" on="0"/>
        <pt x="202" y="630" on="0"/>
        <pt x="156" y="630" on="1"/>
        <pt x="141" y="630" on="0"/>
        <pt x="109" y="626" on="0"/>
        <pt x="95" y="623" on="1"/>
        <pt x="77" y="636" on="1"/>
        <pt x="91" y="821" on="1"/>
        <pt x="306" y="821" on="1"/>
        <pt x="306" y="750" on="1"/>
        <pt x="122" y="750" on="1"/>
      </contour>
    </TTGlyph>
    <TTGlyph name="five.tosf" xMin="38" yMin="-135" xMax="458" yMax="524">
      <contour>
        <pt x="145" y="275" on="1"/>
        <pt x="190" y="287" on="0"/>
        <pt x="238" y="287" on="1"/>
        <pt x="287" y="287" on="0"/>
        <pt x="368" y="260" on="0"/>
        <pt x="426" y="208" on="0"/>
        <pt x="458" y="132" on="0"/>
        <pt x="458" y="82" on="1"/>
        <pt x="458" y="34" on="0"/>
        <pt x="425" y="-46" on="0"/>
        <pt x="363" y="-103" on="0"/>
        <pt x="277" y="-135" on="0"/>
        <pt x="225" y="-135" on="1"/>
        <pt x="148" y="-135" on="0"/>
        <pt x="53" y="-64" on="0"/>
        <pt x="38" y="6" on="1"/>
        <pt x="51" y="40" on="0"/>
        <pt x="89" y="40" on="1"/>
        <pt x="112" y="40" on="0"/>
        <pt x="136" y="12" on="0"/>
        <pt x="146" y="-28" on="1"/>
        <pt x="161" y="-82" on="1"/>
        <pt x="177" y="-87" on="0"/>
        <pt x="205" y="-90" on="0"/>
        <pt x="219" y="-90" on="1"/>
        <pt x="292" y="-90" on="0"/>
        <pt x="368" y="-1" on="0"/>
        <pt x="368" y="72" on="1"/>
        <pt x="368" y="147" on="0"/>
        <pt x="285" y="226" on="0"/>
        <pt x="212" y="226" on="1"/>
        <pt x="168" y="226" on="0"/>
        <pt x="119" y="215" on="1"/>
        <pt x="91" y="223" on="1"/>
        <pt x="112" y="524" on="1"/>
        <pt x="439" y="524" on="1"/>
        <pt x="439" y="441" on="1"/>
        <pt x="157" y="441" on="1"/>
      </contour>
    </TTGlyph>
    <TTGlyph name="fiveeighths" xMin="63" yMin="-25" xMax="800" yMax="669">
      <component glyphName="fraction" x="373" y="0" flags="0x4"/>
      <component glyphName="five.sups" x="20" y="-170" flags="0x4"/>
      <component glyphName="eight.sups" x="478" y="-424" flags="0x4"/>
    </TTGlyph>
    <TTGlyph name="four" xMin="23" yMin="0" xMax="484" yMax="654">
      <contour>
        <pt x="297" y="257" on="1"/>
        <pt x="297" y="550" on="1"/>
        <pt x="85" y="257" on="1"/>
      </contour>
      <contour>
        <pt x="484" y="194" on="1"/>
        <pt x="380" y="194" on="1"/>
        <pt x="380" y="0" on="1"/>
        <pt x="297" y="0" on="1"/>
        <pt x="297" y="194" on="1"/>
        <pt x="23" y="194" on="1"/>
        <pt x="23" y="246" on="1"/>
        <pt x="322" y="654" on="1"/>
        <pt x="380" y="654" on="1"/>
        <pt x="380" y="257" on="1"/>
        <pt x="484" y="257" on="1"/>
      </contour>
    </TTGlyph>
    <TTGlyph name="four.dnom" xMin="36" yMin="1" xMax="336" yMax="404">
      <component glyphName="four.sups" x="0" y="-424" flags="0x204"/>
    </TTGlyph>
    <TTGlyph name="four.lf" xMin="28" yMin="0" xMax="489" yMax="654">
      <contour>
        <pt x="302" y="257" on="1"/>
        <pt x="302" y="550" on="1"/>
        <pt x="90" y="257" on="1"/>
      </contour>
      <contour>
        <pt x="489" y="194" on="1"/>
        <pt x="385" y="194" on="1"/>
        <pt x="385" y="0" on="1"/>
        <pt x="302" y="0" on="1"/>
        <pt x="302" y="194" on="1"/>
        <pt x="28" y="194" on="1"/>
        <pt x="28" y="246" on="1"/>
        <pt x="327" y="654" on="1"/>
        <pt x="385" y="654" on="1"/>
        <pt x="385" y="257" on="1"/>
        <pt x="489" y="257" on="1"/>
      </contour>
    </TTGlyph>
    <TTGlyph name="four.numr" xMin="36" yMin="255" xMax="336" yMax="658">
      <component glyphName="four.sups" x="0" y="-170" flags="0x204"/>
    </TTGlyph>
</ttFont>
